<svg xmlns="http://www.w3.org/2000/svg" xmlns:xlink="http://www.w3.org/1999/xlink" width="500" zoomAndPan="magnify" viewBox="0 0 375 187.499995" height="250" preserveAspectRatio="xMidYMid meet" version="1.0"><defs><g/><clipPath id="408a7ede1d"><path d="M 270 44 L 297 44 L 297 93 L 270 93 Z M 270 44 " clip-rule="nonzero"/></clipPath><clipPath id="983b5cf6fd"><path d="M 306.371094 90.609375 L 278.34375 99.398438 L 261.691406 46.289062 L 289.722656 37.503906 Z M 306.371094 90.609375 " clip-rule="nonzero"/></clipPath><clipPath id="6cbac04819"><path d="M 277.671875 99.609375 L 305.703125 90.820312 L 289.050781 37.710938 L 261.023438 46.5 Z M 277.671875 99.609375 " clip-rule="nonzero"/></clipPath><clipPath id="1784a9a5eb"><path d="M 290 53 L 313 53 L 313 94 L 290 94 Z M 290 53 " clip-rule="nonzero"/></clipPath><clipPath id="1062b7e79c"><path d="M 307.882812 98.933594 L 283.96875 92.609375 L 295.824219 47.769531 L 319.738281 54.09375 Z M 307.882812 98.933594 " clip-rule="nonzero"/></clipPath><clipPath id="0c27f5b93e"><path d="M 283.78125 92.5625 L 307.695312 98.882812 L 319.550781 54.042969 L 295.636719 47.722656 Z M 283.78125 92.5625 " clip-rule="nonzero"/></clipPath><clipPath id="43c42e0b11"><path d="M 289 3 L 366 3 L 366 72 L 289 72 Z M 289 3 " clip-rule="nonzero"/></clipPath><clipPath id="99a5e3801e"><path d="M 283.78125 3.457031 L 365.359375 -4.210938 L 372.59375 72.75 L 291.015625 80.417969 Z M 283.78125 3.457031 " clip-rule="nonzero"/></clipPath><clipPath id="70f69f3d7a"><path d="M 283.78125 3.457031 L 365.359375 -4.210938 L 372.59375 72.75 L 291.015625 80.417969 Z M 283.78125 3.457031 " clip-rule="nonzero"/></clipPath><clipPath id="8c66945dd1"><path d="M 259 67 L 303 67 L 303 98 L 259 98 Z M 259 67 " clip-rule="nonzero"/></clipPath><clipPath id="4e2e777d0d"><path d="M 271.589844 106.296875 L 255.007812 69.679688 L 290.21875 53.734375 L 306.796875 90.351562 Z M 271.589844 106.296875 " clip-rule="nonzero"/></clipPath><clipPath id="5c2cbfba92"><path d="M 271.589844 106.296875 L 255.007812 69.679688 L 290.21875 53.734375 L 306.796875 90.351562 Z M 271.589844 106.296875 " clip-rule="nonzero"/></clipPath><clipPath id="defccad3e7"><path d="M 290 87 L 292 87 L 292 89 L 290 89 Z M 290 87 " clip-rule="nonzero"/></clipPath><clipPath id="f029f9b684"><path d="M 277.660156 74.386719 L 291.40625 64.371094 L 306.882812 85.613281 L 293.140625 95.628906 Z M 277.660156 74.386719 " clip-rule="nonzero"/></clipPath><clipPath id="7b8fb185d7"><path d="M 277.660156 74.386719 L 291.40625 64.371094 L 306.882812 85.613281 L 293.140625 95.628906 Z M 277.660156 74.386719 " clip-rule="nonzero"/></clipPath><clipPath id="0a75232c09"><path d="M 277.660156 74.386719 L 291.40625 64.371094 L 306.882812 85.613281 L 293.140625 95.628906 Z M 277.660156 74.386719 " clip-rule="nonzero"/></clipPath><clipPath id="fd0da9d0dc"><path d="M 287 86 L 289 86 L 289 88 L 287 88 Z M 287 86 " clip-rule="nonzero"/></clipPath><clipPath id="8e2cd873f2"><path d="M 277.660156 74.386719 L 291.40625 64.371094 L 306.882812 85.613281 L 293.140625 95.628906 Z M 277.660156 74.386719 " clip-rule="nonzero"/></clipPath><clipPath id="39b987ad8a"><path d="M 277.660156 74.386719 L 291.40625 64.371094 L 306.882812 85.613281 L 293.140625 95.628906 Z M 277.660156 74.386719 " clip-rule="nonzero"/></clipPath><clipPath id="21c3735fbd"><path d="M 277.660156 74.386719 L 291.40625 64.371094 L 306.882812 85.613281 L 293.140625 95.628906 Z M 277.660156 74.386719 " clip-rule="nonzero"/></clipPath><clipPath id="c82fbe978a"><path d="M 289 82 L 291 82 L 291 85 L 289 85 Z M 289 82 " clip-rule="nonzero"/></clipPath><clipPath id="03201ecfe2"><path d="M 277.660156 74.386719 L 291.40625 64.371094 L 306.882812 85.613281 L 293.140625 95.628906 Z M 277.660156 74.386719 " clip-rule="nonzero"/></clipPath><clipPath id="49e7264515"><path d="M 277.660156 74.386719 L 291.40625 64.371094 L 306.882812 85.613281 L 293.140625 95.628906 Z M 277.660156 74.386719 " clip-rule="nonzero"/></clipPath><clipPath id="a19c5c0774"><path d="M 277.660156 74.386719 L 291.40625 64.371094 L 306.882812 85.613281 L 293.140625 95.628906 Z M 277.660156 74.386719 " clip-rule="nonzero"/></clipPath><clipPath id="8b7f1d962e"><path d="M 295 84 L 298 84 L 298 87 L 295 87 Z M 295 84 " clip-rule="nonzero"/></clipPath><clipPath id="12037f2472"><path d="M 277.660156 74.386719 L 291.40625 64.371094 L 306.882812 85.613281 L 293.140625 95.628906 Z M 277.660156 74.386719 " clip-rule="nonzero"/></clipPath><clipPath id="fb4b2955d7"><path d="M 277.660156 74.386719 L 291.40625 64.371094 L 306.882812 85.613281 L 293.140625 95.628906 Z M 277.660156 74.386719 " clip-rule="nonzero"/></clipPath><clipPath id="b377ce1674"><path d="M 277.660156 74.386719 L 291.40625 64.371094 L 306.882812 85.613281 L 293.140625 95.628906 Z M 277.660156 74.386719 " clip-rule="nonzero"/></clipPath><clipPath id="c78d8f97c5"><path d="M 294 91 L 298 91 L 298 94 L 294 94 Z M 294 91 " clip-rule="nonzero"/></clipPath><clipPath id="839f16b9ad"><path d="M 277.660156 74.386719 L 291.40625 64.371094 L 306.882812 85.613281 L 293.140625 95.628906 Z M 277.660156 74.386719 " clip-rule="nonzero"/></clipPath><clipPath id="763c4100e2"><path d="M 277.660156 74.386719 L 291.40625 64.371094 L 306.882812 85.613281 L 293.140625 95.628906 Z M 277.660156 74.386719 " clip-rule="nonzero"/></clipPath><clipPath id="9649bdbdbe"><path d="M 277.660156 74.386719 L 291.40625 64.371094 L 306.882812 85.613281 L 293.140625 95.628906 Z M 277.660156 74.386719 " clip-rule="nonzero"/></clipPath><clipPath id="4587712d05"><path d="M 294.351562 91.9375 L 296.203125 90.589844 L 297.527344 92.40625 L 295.675781 93.753906 Z M 294.351562 91.9375 " clip-rule="nonzero"/></clipPath><clipPath id="9c625fe880"><path d="M 293 82 L 295 82 L 295 84 L 293 84 Z M 293 82 " clip-rule="nonzero"/></clipPath><clipPath id="0b294ee9be"><path d="M 277.660156 74.386719 L 291.40625 64.371094 L 306.882812 85.613281 L 293.140625 95.628906 Z M 277.660156 74.386719 " clip-rule="nonzero"/></clipPath><clipPath id="ee30d6f8cd"><path d="M 277.660156 74.386719 L 291.40625 64.371094 L 306.882812 85.613281 L 293.140625 95.628906 Z M 277.660156 74.386719 " clip-rule="nonzero"/></clipPath><clipPath id="85c2194ff1"><path d="M 277.660156 74.386719 L 291.40625 64.371094 L 306.882812 85.613281 L 293.140625 95.628906 Z M 277.660156 74.386719 " clip-rule="nonzero"/></clipPath><clipPath id="58589056c5"><path d="M 296 81 L 298 81 L 298 83 L 296 83 Z M 296 81 " clip-rule="nonzero"/></clipPath><clipPath id="f9c51d1f32"><path d="M 277.660156 74.386719 L 291.40625 64.371094 L 306.882812 85.613281 L 293.140625 95.628906 Z M 277.660156 74.386719 " clip-rule="nonzero"/></clipPath><clipPath id="e945a75cfb"><path d="M 277.660156 74.386719 L 291.40625 64.371094 L 306.882812 85.613281 L 293.140625 95.628906 Z M 277.660156 74.386719 " clip-rule="nonzero"/></clipPath><clipPath id="9f187ccb5b"><path d="M 277.660156 74.386719 L 291.40625 64.371094 L 306.882812 85.613281 L 293.140625 95.628906 Z M 277.660156 74.386719 " clip-rule="nonzero"/></clipPath><clipPath id="23cdae469f"><path d="M 294 78 L 296 78 L 296 80 L 294 80 Z M 294 78 " clip-rule="nonzero"/></clipPath><clipPath id="5a27fb9e84"><path d="M 277.660156 74.386719 L 291.40625 64.371094 L 306.882812 85.613281 L 293.140625 95.628906 Z M 277.660156 74.386719 " clip-rule="nonzero"/></clipPath><clipPath id="f0b1c8ce71"><path d="M 277.660156 74.386719 L 291.40625 64.371094 L 306.882812 85.613281 L 293.140625 95.628906 Z M 277.660156 74.386719 " clip-rule="nonzero"/></clipPath><clipPath id="11d179f6cc"><path d="M 277.660156 74.386719 L 291.40625 64.371094 L 306.882812 85.613281 L 293.140625 95.628906 Z M 277.660156 74.386719 " clip-rule="nonzero"/></clipPath><clipPath id="ef91d64902"><path d="M 289 76 L 292 76 L 292 79 L 289 79 Z M 289 76 " clip-rule="nonzero"/></clipPath><clipPath id="cbde82720b"><path d="M 277.660156 74.386719 L 291.40625 64.371094 L 306.882812 85.613281 L 293.140625 95.628906 Z M 277.660156 74.386719 " clip-rule="nonzero"/></clipPath><clipPath id="69ca2dea90"><path d="M 277.660156 74.386719 L 291.40625 64.371094 L 306.882812 85.613281 L 293.140625 95.628906 Z M 277.660156 74.386719 " clip-rule="nonzero"/></clipPath><clipPath id="abdacda09a"><path d="M 277.660156 74.386719 L 291.40625 64.371094 L 306.882812 85.613281 L 293.140625 95.628906 Z M 277.660156 74.386719 " clip-rule="nonzero"/></clipPath><clipPath id="0e221bd896"><path d="M 287 80 L 289 80 L 289 82 L 287 82 Z M 287 80 " clip-rule="nonzero"/></clipPath><clipPath id="1872822daa"><path d="M 277.660156 74.386719 L 291.40625 64.371094 L 306.882812 85.613281 L 293.140625 95.628906 Z M 277.660156 74.386719 " clip-rule="nonzero"/></clipPath><clipPath id="139617493b"><path d="M 277.660156 74.386719 L 291.40625 64.371094 L 306.882812 85.613281 L 293.140625 95.628906 Z M 277.660156 74.386719 " clip-rule="nonzero"/></clipPath><clipPath id="7086fbcd2e"><path d="M 277.660156 74.386719 L 291.40625 64.371094 L 306.882812 85.613281 L 293.140625 95.628906 Z M 277.660156 74.386719 " clip-rule="nonzero"/></clipPath><clipPath id="d6b2353a19"><path d="M 292 74 L 294 74 L 294 76 L 292 76 Z M 292 74 " clip-rule="nonzero"/></clipPath><clipPath id="3695f84120"><path d="M 277.660156 74.386719 L 291.40625 64.371094 L 306.882812 85.613281 L 293.140625 95.628906 Z M 277.660156 74.386719 " clip-rule="nonzero"/></clipPath><clipPath id="3b501a6584"><path d="M 277.660156 74.386719 L 291.40625 64.371094 L 306.882812 85.613281 L 293.140625 95.628906 Z M 277.660156 74.386719 " clip-rule="nonzero"/></clipPath><clipPath id="985c78f6e3"><path d="M 277.660156 74.386719 L 291.40625 64.371094 L 306.882812 85.613281 L 293.140625 95.628906 Z M 277.660156 74.386719 " clip-rule="nonzero"/></clipPath><clipPath id="92b6e88592"><path d="M 293 69 L 296 69 L 296 72 L 293 72 Z M 293 69 " clip-rule="nonzero"/></clipPath><clipPath id="4e4b2c24d6"><path d="M 277.660156 74.386719 L 291.40625 64.371094 L 306.882812 85.613281 L 293.140625 95.628906 Z M 277.660156 74.386719 " clip-rule="nonzero"/></clipPath><clipPath id="e8a8fd1b95"><path d="M 277.660156 74.386719 L 291.40625 64.371094 L 306.882812 85.613281 L 293.140625 95.628906 Z M 277.660156 74.386719 " clip-rule="nonzero"/></clipPath><clipPath id="c168794638"><path d="M 277.660156 74.386719 L 291.40625 64.371094 L 306.882812 85.613281 L 293.140625 95.628906 Z M 277.660156 74.386719 " clip-rule="nonzero"/></clipPath><clipPath id="65f2328763"><path d="M 296 75 L 298 75 L 298 78 L 296 78 Z M 296 75 " clip-rule="nonzero"/></clipPath><clipPath id="55c451a324"><path d="M 277.660156 74.386719 L 291.40625 64.371094 L 306.882812 85.613281 L 293.140625 95.628906 Z M 277.660156 74.386719 " clip-rule="nonzero"/></clipPath><clipPath id="258c746223"><path d="M 277.660156 74.386719 L 291.40625 64.371094 L 306.882812 85.613281 L 293.140625 95.628906 Z M 277.660156 74.386719 " clip-rule="nonzero"/></clipPath><clipPath id="755ea33de5"><path d="M 277.660156 74.386719 L 291.40625 64.371094 L 306.882812 85.613281 L 293.140625 95.628906 Z M 277.660156 74.386719 " clip-rule="nonzero"/></clipPath><clipPath id="77725b9808"><path d="M 288 69 L 290 69 L 290 71 L 288 71 Z M 288 69 " clip-rule="nonzero"/></clipPath><clipPath id="1807365e55"><path d="M 277.660156 74.386719 L 291.40625 64.371094 L 306.882812 85.613281 L 293.140625 95.628906 Z M 277.660156 74.386719 " clip-rule="nonzero"/></clipPath><clipPath id="10aac8b069"><path d="M 277.660156 74.386719 L 291.40625 64.371094 L 306.882812 85.613281 L 293.140625 95.628906 Z M 277.660156 74.386719 " clip-rule="nonzero"/></clipPath><clipPath id="40705b8ab0"><path d="M 277.660156 74.386719 L 291.40625 64.371094 L 306.882812 85.613281 L 293.140625 95.628906 Z M 277.660156 74.386719 " clip-rule="nonzero"/></clipPath><clipPath id="f19bd8190a"><path d="M 286 74 L 288 74 L 288 76 L 286 76 Z M 286 74 " clip-rule="nonzero"/></clipPath><clipPath id="bf8f54f051"><path d="M 277.660156 74.386719 L 291.40625 64.371094 L 306.882812 85.613281 L 293.140625 95.628906 Z M 277.660156 74.386719 " clip-rule="nonzero"/></clipPath><clipPath id="1375520e34"><path d="M 277.660156 74.386719 L 291.40625 64.371094 L 306.882812 85.613281 L 293.140625 95.628906 Z M 277.660156 74.386719 " clip-rule="nonzero"/></clipPath><clipPath id="abc83ff166"><path d="M 277.660156 74.386719 L 291.40625 64.371094 L 306.882812 85.613281 L 293.140625 95.628906 Z M 277.660156 74.386719 " clip-rule="nonzero"/></clipPath><clipPath id="6255644abf"><path d="M 290 65 L 291 65 L 291 66 L 290 66 Z M 290 65 " clip-rule="nonzero"/></clipPath><clipPath id="2ac82e153f"><path d="M 277.660156 74.386719 L 291.40625 64.371094 L 306.882812 85.613281 L 293.140625 95.628906 Z M 277.660156 74.386719 " clip-rule="nonzero"/></clipPath><clipPath id="950338840b"><path d="M 277.660156 74.386719 L 291.40625 64.371094 L 306.882812 85.613281 L 293.140625 95.628906 Z M 277.660156 74.386719 " clip-rule="nonzero"/></clipPath><clipPath id="089493b70c"><path d="M 277.660156 74.386719 L 291.40625 64.371094 L 306.882812 85.613281 L 293.140625 95.628906 Z M 277.660156 74.386719 " clip-rule="nonzero"/></clipPath><clipPath id="17f30b5898"><path d="M 301 81 L 303 81 L 303 83 L 301 83 Z M 301 81 " clip-rule="nonzero"/></clipPath><clipPath id="17dbfcba9e"><path d="M 277.660156 74.386719 L 291.40625 64.371094 L 306.882812 85.613281 L 293.140625 95.628906 Z M 277.660156 74.386719 " clip-rule="nonzero"/></clipPath><clipPath id="c5bb0d071c"><path d="M 277.660156 74.386719 L 291.40625 64.371094 L 306.882812 85.613281 L 293.140625 95.628906 Z M 277.660156 74.386719 " clip-rule="nonzero"/></clipPath><clipPath id="3ea3d7525e"><path d="M 277.660156 74.386719 L 291.40625 64.371094 L 306.882812 85.613281 L 293.140625 95.628906 Z M 277.660156 74.386719 " clip-rule="nonzero"/></clipPath><clipPath id="b17c7f8104"><path d="M 297 88 L 299 88 L 299 89 L 297 89 Z M 297 88 " clip-rule="nonzero"/></clipPath><clipPath id="73e45c3bd8"><path d="M 277.660156 74.386719 L 291.40625 64.371094 L 306.882812 85.613281 L 293.140625 95.628906 Z M 277.660156 74.386719 " clip-rule="nonzero"/></clipPath><clipPath id="a2e338b698"><path d="M 277.660156 74.386719 L 291.40625 64.371094 L 306.882812 85.613281 L 293.140625 95.628906 Z M 277.660156 74.386719 " clip-rule="nonzero"/></clipPath><clipPath id="cedf97ba89"><path d="M 277.660156 74.386719 L 291.40625 64.371094 L 306.882812 85.613281 L 293.140625 95.628906 Z M 277.660156 74.386719 " clip-rule="nonzero"/></clipPath><clipPath id="c486e4c47d"><path d="M 296 71 L 297 71 L 297 73 L 296 73 Z M 296 71 " clip-rule="nonzero"/></clipPath><clipPath id="8672c18d38"><path d="M 277.660156 74.386719 L 291.40625 64.371094 L 306.882812 85.613281 L 293.140625 95.628906 Z M 277.660156 74.386719 " clip-rule="nonzero"/></clipPath><clipPath id="661645dc97"><path d="M 277.660156 74.386719 L 291.40625 64.371094 L 306.882812 85.613281 L 293.140625 95.628906 Z M 277.660156 74.386719 " clip-rule="nonzero"/></clipPath><clipPath id="b782305e1b"><path d="M 277.660156 74.386719 L 291.40625 64.371094 L 306.882812 85.613281 L 293.140625 95.628906 Z M 277.660156 74.386719 " clip-rule="nonzero"/></clipPath><clipPath id="46fab06370"><path d="M 295.917969 71.769531 L 296.496094 71.351562 L 296.933594 71.957031 L 296.359375 72.375 Z M 295.917969 71.769531 " clip-rule="nonzero"/></clipPath><clipPath id="18f222c09c"><path d="M 282 80 L 284 80 L 284 82 L 282 82 Z M 282 80 " clip-rule="nonzero"/></clipPath><clipPath id="dc34712459"><path d="M 277.660156 74.386719 L 291.40625 64.371094 L 306.882812 85.613281 L 293.140625 95.628906 Z M 277.660156 74.386719 " clip-rule="nonzero"/></clipPath><clipPath id="2bf81343f5"><path d="M 277.660156 74.386719 L 291.40625 64.371094 L 306.882812 85.613281 L 293.140625 95.628906 Z M 277.660156 74.386719 " clip-rule="nonzero"/></clipPath><clipPath id="769cd06940"><path d="M 277.660156 74.386719 L 291.40625 64.371094 L 306.882812 85.613281 L 293.140625 95.628906 Z M 277.660156 74.386719 " clip-rule="nonzero"/></clipPath><clipPath id="1807cfbc42"><path d="M 288 86 L 290 86 L 290 88 L 288 88 Z M 288 86 " clip-rule="nonzero"/></clipPath><clipPath id="2b548da2c3"><path d="M 269.472656 85.882812 L 272.484375 69.148438 L 298.351562 73.804688 L 295.339844 90.539062 Z M 269.472656 85.882812 " clip-rule="nonzero"/></clipPath><clipPath id="fa84a3f58a"><path d="M 269.472656 85.882812 L 272.484375 69.148438 L 298.351562 73.804688 L 295.339844 90.539062 Z M 269.472656 85.882812 " clip-rule="nonzero"/></clipPath><clipPath id="bf9ca77b68"><path d="M 269.472656 85.882812 L 272.484375 69.148438 L 298.351562 73.804688 L 295.339844 90.539062 Z M 269.472656 85.882812 " clip-rule="nonzero"/></clipPath><clipPath id="eb2bd10240"><path d="M 285 87 L 287 87 L 287 89 L 285 89 Z M 285 87 " clip-rule="nonzero"/></clipPath><clipPath id="da8f1200bb"><path d="M 269.472656 85.882812 L 272.484375 69.148438 L 298.351562 73.804688 L 295.339844 90.539062 Z M 269.472656 85.882812 " clip-rule="nonzero"/></clipPath><clipPath id="80923a36f5"><path d="M 269.472656 85.882812 L 272.484375 69.148438 L 298.351562 73.804688 L 295.339844 90.539062 Z M 269.472656 85.882812 " clip-rule="nonzero"/></clipPath><clipPath id="67e320d728"><path d="M 269.472656 85.882812 L 272.484375 69.148438 L 298.351562 73.804688 L 295.339844 90.539062 Z M 269.472656 85.882812 " clip-rule="nonzero"/></clipPath><clipPath id="d0deb85137"><path d="M 283 83 L 286 83 L 286 85 L 283 85 Z M 283 83 " clip-rule="nonzero"/></clipPath><clipPath id="1e8837cda0"><path d="M 269.472656 85.882812 L 272.484375 69.148438 L 298.351562 73.804688 L 295.339844 90.539062 Z M 269.472656 85.882812 " clip-rule="nonzero"/></clipPath><clipPath id="c463d28229"><path d="M 269.472656 85.882812 L 272.484375 69.148438 L 298.351562 73.804688 L 295.339844 90.539062 Z M 269.472656 85.882812 " clip-rule="nonzero"/></clipPath><clipPath id="5ec4f2bd5e"><path d="M 269.472656 85.882812 L 272.484375 69.148438 L 298.351562 73.804688 L 295.339844 90.539062 Z M 269.472656 85.882812 " clip-rule="nonzero"/></clipPath><clipPath id="a88120a1bc"><path d="M 289 80 L 292 80 L 292 82 L 289 82 Z M 289 80 " clip-rule="nonzero"/></clipPath><clipPath id="a3b43d9d30"><path d="M 269.472656 85.882812 L 272.484375 69.148438 L 298.351562 73.804688 L 295.339844 90.539062 Z M 269.472656 85.882812 " clip-rule="nonzero"/></clipPath><clipPath id="c05b5f5f97"><path d="M 269.472656 85.882812 L 272.484375 69.148438 L 298.351562 73.804688 L 295.339844 90.539062 Z M 269.472656 85.882812 " clip-rule="nonzero"/></clipPath><clipPath id="fbd0c56c53"><path d="M 269.472656 85.882812 L 272.484375 69.148438 L 298.351562 73.804688 L 295.339844 90.539062 Z M 269.472656 85.882812 " clip-rule="nonzero"/></clipPath><clipPath id="429bc8b597"><path d="M 293 84 L 297 84 L 297 88 L 293 88 Z M 293 84 " clip-rule="nonzero"/></clipPath><clipPath id="61a809796f"><path d="M 269.472656 85.882812 L 272.484375 69.148438 L 298.351562 73.804688 L 295.339844 90.539062 Z M 269.472656 85.882812 " clip-rule="nonzero"/></clipPath><clipPath id="6b2854ddaf"><path d="M 269.472656 85.882812 L 272.484375 69.148438 L 298.351562 73.804688 L 295.339844 90.539062 Z M 269.472656 85.882812 " clip-rule="nonzero"/></clipPath><clipPath id="e761e8aab7"><path d="M 269.472656 85.882812 L 272.484375 69.148438 L 298.351562 73.804688 L 295.339844 90.539062 Z M 269.472656 85.882812 " clip-rule="nonzero"/></clipPath><clipPath id="7a661902ca"><path d="M 293.664062 87.035156 L 294.070312 84.78125 L 296.28125 85.179688 L 295.875 87.433594 Z M 293.664062 87.035156 " clip-rule="nonzero"/></clipPath><clipPath id="273b13315b"><path d="M 286 79 L 288 79 L 288 82 L 286 82 Z M 286 79 " clip-rule="nonzero"/></clipPath><clipPath id="54edfbccf1"><path d="M 269.472656 85.882812 L 272.484375 69.148438 L 298.351562 73.804688 L 295.339844 90.539062 Z M 269.472656 85.882812 " clip-rule="nonzero"/></clipPath><clipPath id="8f649a3de3"><path d="M 269.472656 85.882812 L 272.484375 69.148438 L 298.351562 73.804688 L 295.339844 90.539062 Z M 269.472656 85.882812 " clip-rule="nonzero"/></clipPath><clipPath id="26df99e980"><path d="M 269.472656 85.882812 L 272.484375 69.148438 L 298.351562 73.804688 L 295.339844 90.539062 Z M 269.472656 85.882812 " clip-rule="nonzero"/></clipPath><clipPath id="8581d6f404"><path d="M 288 76 L 290 76 L 290 78 L 288 78 Z M 288 76 " clip-rule="nonzero"/></clipPath><clipPath id="afcdb2675b"><path d="M 269.472656 85.882812 L 272.484375 69.148438 L 298.351562 73.804688 L 295.339844 90.539062 Z M 269.472656 85.882812 " clip-rule="nonzero"/></clipPath><clipPath id="ab3b79980b"><path d="M 269.472656 85.882812 L 272.484375 69.148438 L 298.351562 73.804688 L 295.339844 90.539062 Z M 269.472656 85.882812 " clip-rule="nonzero"/></clipPath><clipPath id="820debc74e"><path d="M 269.472656 85.882812 L 272.484375 69.148438 L 298.351562 73.804688 L 295.339844 90.539062 Z M 269.472656 85.882812 " clip-rule="nonzero"/></clipPath><clipPath id="0c567fa4a9"><path d="M 284 76 L 286 76 L 286 78 L 284 78 Z M 284 76 " clip-rule="nonzero"/></clipPath><clipPath id="51f26e46be"><path d="M 269.472656 85.882812 L 272.484375 69.148438 L 298.351562 73.804688 L 295.339844 90.539062 Z M 269.472656 85.882812 " clip-rule="nonzero"/></clipPath><clipPath id="d1964fad36"><path d="M 269.472656 85.882812 L 272.484375 69.148438 L 298.351562 73.804688 L 295.339844 90.539062 Z M 269.472656 85.882812 " clip-rule="nonzero"/></clipPath><clipPath id="8ca6b46fd9"><path d="M 269.472656 85.882812 L 272.484375 69.148438 L 298.351562 73.804688 L 295.339844 90.539062 Z M 269.472656 85.882812 " clip-rule="nonzero"/></clipPath><clipPath id="153ab2eec7"><path d="M 280 78 L 283 78 L 283 81 L 280 81 Z M 280 78 " clip-rule="nonzero"/></clipPath><clipPath id="ee25459007"><path d="M 269.472656 85.882812 L 272.484375 69.148438 L 298.351562 73.804688 L 295.339844 90.539062 Z M 269.472656 85.882812 " clip-rule="nonzero"/></clipPath><clipPath id="803bd4dfcc"><path d="M 269.472656 85.882812 L 272.484375 69.148438 L 298.351562 73.804688 L 295.339844 90.539062 Z M 269.472656 85.882812 " clip-rule="nonzero"/></clipPath><clipPath id="825d608f81"><path d="M 269.472656 85.882812 L 272.484375 69.148438 L 298.351562 73.804688 L 295.339844 90.539062 Z M 269.472656 85.882812 " clip-rule="nonzero"/></clipPath><clipPath id="1d4ac56f86"><path d="M 281 83 L 282 83 L 282 84 L 281 84 Z M 281 83 " clip-rule="nonzero"/></clipPath><clipPath id="533f92bac5"><path d="M 269.472656 85.882812 L 272.484375 69.148438 L 298.351562 73.804688 L 295.339844 90.539062 Z M 269.472656 85.882812 " clip-rule="nonzero"/></clipPath><clipPath id="6e8d81b06c"><path d="M 269.472656 85.882812 L 272.484375 69.148438 L 298.351562 73.804688 L 295.339844 90.539062 Z M 269.472656 85.882812 " clip-rule="nonzero"/></clipPath><clipPath id="0b8404a487"><path d="M 269.472656 85.882812 L 272.484375 69.148438 L 298.351562 73.804688 L 295.339844 90.539062 Z M 269.472656 85.882812 " clip-rule="nonzero"/></clipPath><clipPath id="3af813d27c"><path d="M 280 74 L 282 74 L 282 76 L 280 76 Z M 280 74 " clip-rule="nonzero"/></clipPath><clipPath id="1590cd3df7"><path d="M 269.472656 85.882812 L 272.484375 69.148438 L 298.351562 73.804688 L 295.339844 90.539062 Z M 269.472656 85.882812 " clip-rule="nonzero"/></clipPath><clipPath id="a1f0d9e9f2"><path d="M 269.472656 85.882812 L 272.484375 69.148438 L 298.351562 73.804688 L 295.339844 90.539062 Z M 269.472656 85.882812 " clip-rule="nonzero"/></clipPath><clipPath id="974cfc1c0c"><path d="M 269.472656 85.882812 L 272.484375 69.148438 L 298.351562 73.804688 L 295.339844 90.539062 Z M 269.472656 85.882812 " clip-rule="nonzero"/></clipPath><clipPath id="05bd9249d0"><path d="M 278 70 L 281 70 L 281 73 L 278 73 Z M 278 70 " clip-rule="nonzero"/></clipPath><clipPath id="fd78f275ba"><path d="M 269.472656 85.882812 L 272.484375 69.148438 L 298.351562 73.804688 L 295.339844 90.539062 Z M 269.472656 85.882812 " clip-rule="nonzero"/></clipPath><clipPath id="ddb8828526"><path d="M 269.472656 85.882812 L 272.484375 69.148438 L 298.351562 73.804688 L 295.339844 90.539062 Z M 269.472656 85.882812 " clip-rule="nonzero"/></clipPath><clipPath id="3b6ec098ee"><path d="M 269.472656 85.882812 L 272.484375 69.148438 L 298.351562 73.804688 L 295.339844 90.539062 Z M 269.472656 85.882812 " clip-rule="nonzero"/></clipPath><clipPath id="66ef37ee64"><path d="M 284 73 L 286 73 L 286 75 L 284 75 Z M 284 73 " clip-rule="nonzero"/></clipPath><clipPath id="6127afb3f2"><path d="M 269.472656 85.882812 L 272.484375 69.148438 L 298.351562 73.804688 L 295.339844 90.539062 Z M 269.472656 85.882812 " clip-rule="nonzero"/></clipPath><clipPath id="37736758b4"><path d="M 269.472656 85.882812 L 272.484375 69.148438 L 298.351562 73.804688 L 295.339844 90.539062 Z M 269.472656 85.882812 " clip-rule="nonzero"/></clipPath><clipPath id="80ca99b135"><path d="M 269.472656 85.882812 L 272.484375 69.148438 L 298.351562 73.804688 L 295.339844 90.539062 Z M 269.472656 85.882812 " clip-rule="nonzero"/></clipPath><clipPath id="c1853c3b3f"><path d="M 274 74 L 276 74 L 276 76 L 274 76 Z M 274 74 " clip-rule="nonzero"/></clipPath><clipPath id="610142b6e7"><path d="M 269.472656 85.882812 L 272.484375 69.148438 L 298.351562 73.804688 L 295.339844 90.539062 Z M 269.472656 85.882812 " clip-rule="nonzero"/></clipPath><clipPath id="7b084fce2c"><path d="M 269.472656 85.882812 L 272.484375 69.148438 L 298.351562 73.804688 L 295.339844 90.539062 Z M 269.472656 85.882812 " clip-rule="nonzero"/></clipPath><clipPath id="e4b4a626ef"><path d="M 269.472656 85.882812 L 272.484375 69.148438 L 298.351562 73.804688 L 295.339844 90.539062 Z M 269.472656 85.882812 " clip-rule="nonzero"/></clipPath><clipPath id="6474760c88"><path d="M 275 79 L 277 79 L 277 81 L 275 81 Z M 275 79 " clip-rule="nonzero"/></clipPath><clipPath id="664b358d17"><path d="M 269.472656 85.882812 L 272.484375 69.148438 L 298.351562 73.804688 L 295.339844 90.539062 Z M 269.472656 85.882812 " clip-rule="nonzero"/></clipPath><clipPath id="aa5c270043"><path d="M 269.472656 85.882812 L 272.484375 69.148438 L 298.351562 73.804688 L 295.339844 90.539062 Z M 269.472656 85.882812 " clip-rule="nonzero"/></clipPath><clipPath id="c97df05dc4"><path d="M 269.472656 85.882812 L 272.484375 69.148438 L 298.351562 73.804688 L 295.339844 90.539062 Z M 269.472656 85.882812 " clip-rule="nonzero"/></clipPath><clipPath id="6a19e38d07"><path d="M 272 70 L 274 70 L 274 71 L 272 71 Z M 272 70 " clip-rule="nonzero"/></clipPath><clipPath id="dc1d4e1d53"><path d="M 269.472656 85.882812 L 272.484375 69.148438 L 298.351562 73.804688 L 295.339844 90.539062 Z M 269.472656 85.882812 " clip-rule="nonzero"/></clipPath><clipPath id="32ae1f4856"><path d="M 269.472656 85.882812 L 272.484375 69.148438 L 298.351562 73.804688 L 295.339844 90.539062 Z M 269.472656 85.882812 " clip-rule="nonzero"/></clipPath><clipPath id="71e0a0e995"><path d="M 269.472656 85.882812 L 272.484375 69.148438 L 298.351562 73.804688 L 295.339844 90.539062 Z M 269.472656 85.882812 " clip-rule="nonzero"/></clipPath><clipPath id="23d6118589"><path d="M 291 74 L 293 74 L 293 76 L 291 76 Z M 291 74 " clip-rule="nonzero"/></clipPath><clipPath id="a988e1def3"><path d="M 269.472656 85.882812 L 272.484375 69.148438 L 298.351562 73.804688 L 295.339844 90.539062 Z M 269.472656 85.882812 " clip-rule="nonzero"/></clipPath><clipPath id="7c319d5166"><path d="M 269.472656 85.882812 L 272.484375 69.148438 L 298.351562 73.804688 L 295.339844 90.539062 Z M 269.472656 85.882812 " clip-rule="nonzero"/></clipPath><clipPath id="5c6c993d8e"><path d="M 269.472656 85.882812 L 272.484375 69.148438 L 298.351562 73.804688 L 295.339844 90.539062 Z M 269.472656 85.882812 " clip-rule="nonzero"/></clipPath><clipPath id="64fc7b6766"><path d="M 293 81 L 295 81 L 295 83 L 293 83 Z M 293 81 " clip-rule="nonzero"/></clipPath><clipPath id="40fe75b7f8"><path d="M 269.472656 85.882812 L 272.484375 69.148438 L 298.351562 73.804688 L 295.339844 90.539062 Z M 269.472656 85.882812 " clip-rule="nonzero"/></clipPath><clipPath id="aa53670908"><path d="M 269.472656 85.882812 L 272.484375 69.148438 L 298.351562 73.804688 L 295.339844 90.539062 Z M 269.472656 85.882812 " clip-rule="nonzero"/></clipPath><clipPath id="bb1d25ab9e"><path d="M 269.472656 85.882812 L 272.484375 69.148438 L 298.351562 73.804688 L 295.339844 90.539062 Z M 269.472656 85.882812 " clip-rule="nonzero"/></clipPath><clipPath id="c533cc7fdb"><path d="M 280 70 L 282 70 L 282 72 L 280 72 Z M 280 70 " clip-rule="nonzero"/></clipPath><clipPath id="24c86085f2"><path d="M 269.472656 85.882812 L 272.484375 69.148438 L 298.351562 73.804688 L 295.339844 90.539062 Z M 269.472656 85.882812 " clip-rule="nonzero"/></clipPath><clipPath id="e40b132410"><path d="M 269.472656 85.882812 L 272.484375 69.148438 L 298.351562 73.804688 L 295.339844 90.539062 Z M 269.472656 85.882812 " clip-rule="nonzero"/></clipPath><clipPath id="23373c2a26"><path d="M 269.472656 85.882812 L 272.484375 69.148438 L 298.351562 73.804688 L 295.339844 90.539062 Z M 269.472656 85.882812 " clip-rule="nonzero"/></clipPath><clipPath id="d65f744f58"><path d="M 280.859375 71.375 L 280.988281 70.675781 L 281.722656 70.808594 L 281.597656 71.507812 Z M 280.859375 71.375 " clip-rule="nonzero"/></clipPath><clipPath id="1a5543721f"><path d="M 277 86 L 279 86 L 279 88 L 277 88 Z M 277 86 " clip-rule="nonzero"/></clipPath><clipPath id="471e2b1325"><path d="M 269.472656 85.882812 L 272.484375 69.148438 L 298.351562 73.804688 L 295.339844 90.539062 Z M 269.472656 85.882812 " clip-rule="nonzero"/></clipPath><clipPath id="0e631d4940"><path d="M 269.472656 85.882812 L 272.484375 69.148438 L 298.351562 73.804688 L 295.339844 90.539062 Z M 269.472656 85.882812 " clip-rule="nonzero"/></clipPath><clipPath id="33a2e2377e"><path d="M 269.472656 85.882812 L 272.484375 69.148438 L 298.351562 73.804688 L 295.339844 90.539062 Z M 269.472656 85.882812 " clip-rule="nonzero"/></clipPath><clipPath id="b7b3328df7"><path d="M 289 75 L 291 75 L 291 77 L 289 77 Z M 289 75 " clip-rule="nonzero"/></clipPath><clipPath id="2d3870c39e"><path d="M 300.308594 59.949219 L 313.210938 71.027344 L 296.09375 90.96875 L 283.1875 79.890625 Z M 300.308594 59.949219 " clip-rule="nonzero"/></clipPath><clipPath id="340a35de68"><path d="M 300.308594 59.949219 L 313.210938 71.027344 L 296.09375 90.96875 L 283.1875 79.890625 Z M 300.308594 59.949219 " clip-rule="nonzero"/></clipPath><clipPath id="19a9f46a2f"><path d="M 300.308594 59.949219 L 313.210938 71.027344 L 296.09375 90.96875 L 283.1875 79.890625 Z M 300.308594 59.949219 " clip-rule="nonzero"/></clipPath><clipPath id="aac21c45cc"><path d="M 290 72 L 291 72 L 291 74 L 290 74 Z M 290 72 " clip-rule="nonzero"/></clipPath><clipPath id="10d7b9e7d0"><path d="M 300.308594 59.949219 L 313.210938 71.027344 L 296.09375 90.96875 L 283.1875 79.890625 Z M 300.308594 59.949219 " clip-rule="nonzero"/></clipPath><clipPath id="c1493c2769"><path d="M 300.308594 59.949219 L 313.210938 71.027344 L 296.09375 90.96875 L 283.1875 79.890625 Z M 300.308594 59.949219 " clip-rule="nonzero"/></clipPath><clipPath id="da0be3cc15"><path d="M 300.308594 59.949219 L 313.210938 71.027344 L 296.09375 90.96875 L 283.1875 79.890625 Z M 300.308594 59.949219 " clip-rule="nonzero"/></clipPath><clipPath id="1dc54f3b0e"><path d="M 293 73 L 296 73 L 296 75 L 293 75 Z M 293 73 " clip-rule="nonzero"/></clipPath><clipPath id="a99935124d"><path d="M 300.308594 59.949219 L 313.210938 71.027344 L 296.09375 90.96875 L 283.1875 79.890625 Z M 300.308594 59.949219 " clip-rule="nonzero"/></clipPath><clipPath id="ec714b4fa1"><path d="M 300.308594 59.949219 L 313.210938 71.027344 L 296.09375 90.96875 L 283.1875 79.890625 Z M 300.308594 59.949219 " clip-rule="nonzero"/></clipPath><clipPath id="b711884a4b"><path d="M 300.308594 59.949219 L 313.210938 71.027344 L 296.09375 90.96875 L 283.1875 79.890625 Z M 300.308594 59.949219 " clip-rule="nonzero"/></clipPath><clipPath id="1ca771ff9e"><path d="M 292 79 L 295 79 L 295 82 L 292 82 Z M 292 79 " clip-rule="nonzero"/></clipPath><clipPath id="a66bb7f50d"><path d="M 300.308594 59.949219 L 313.210938 71.027344 L 296.09375 90.96875 L 283.1875 79.890625 Z M 300.308594 59.949219 " clip-rule="nonzero"/></clipPath><clipPath id="0c8fd2d604"><path d="M 300.308594 59.949219 L 313.210938 71.027344 L 296.09375 90.96875 L 283.1875 79.890625 Z M 300.308594 59.949219 " clip-rule="nonzero"/></clipPath><clipPath id="3503bae73f"><path d="M 300.308594 59.949219 L 313.210938 71.027344 L 296.09375 90.96875 L 283.1875 79.890625 Z M 300.308594 59.949219 " clip-rule="nonzero"/></clipPath><clipPath id="e28d9e8ae9"><path d="M 286 80 L 289 80 L 289 83 L 286 83 Z M 286 80 " clip-rule="nonzero"/></clipPath><clipPath id="1c5e73a4c1"><path d="M 300.308594 59.949219 L 313.210938 71.027344 L 296.09375 90.96875 L 283.1875 79.890625 Z M 300.308594 59.949219 " clip-rule="nonzero"/></clipPath><clipPath id="2c15afa8c4"><path d="M 300.308594 59.949219 L 313.210938 71.027344 L 296.09375 90.96875 L 283.1875 79.890625 Z M 300.308594 59.949219 " clip-rule="nonzero"/></clipPath><clipPath id="8d53acdb5f"><path d="M 300.308594 59.949219 L 313.210938 71.027344 L 296.09375 90.96875 L 283.1875 79.890625 Z M 300.308594 59.949219 " clip-rule="nonzero"/></clipPath><clipPath id="f7d440e757"><path d="M 287.058594 80.222656 L 288.796875 81.714844 L 287.332031 83.421875 L 285.59375 81.929688 Z M 287.058594 80.222656 " clip-rule="nonzero"/></clipPath><clipPath id="78cba7c041"><path d="M 295 77 L 297 77 L 297 79 L 295 79 Z M 295 77 " clip-rule="nonzero"/></clipPath><clipPath id="9b0020e9e4"><path d="M 300.308594 59.949219 L 313.210938 71.027344 L 296.09375 90.96875 L 283.1875 79.890625 Z M 300.308594 59.949219 " clip-rule="nonzero"/></clipPath><clipPath id="cb5f79dc57"><path d="M 300.308594 59.949219 L 313.210938 71.027344 L 296.09375 90.96875 L 283.1875 79.890625 Z M 300.308594 59.949219 " clip-rule="nonzero"/></clipPath><clipPath id="fa9aac165b"><path d="M 300.308594 59.949219 L 313.210938 71.027344 L 296.09375 90.96875 L 283.1875 79.890625 Z M 300.308594 59.949219 " clip-rule="nonzero"/></clipPath><clipPath id="4dff818bc9"><path d="M 297 80 L 299 80 L 299 82 L 297 82 Z M 297 80 " clip-rule="nonzero"/></clipPath><clipPath id="0586fbfe76"><path d="M 300.308594 59.949219 L 313.210938 71.027344 L 296.09375 90.96875 L 283.1875 79.890625 Z M 300.308594 59.949219 " clip-rule="nonzero"/></clipPath><clipPath id="584e7339d9"><path d="M 300.308594 59.949219 L 313.210938 71.027344 L 296.09375 90.96875 L 283.1875 79.890625 Z M 300.308594 59.949219 " clip-rule="nonzero"/></clipPath><clipPath id="7b0fd483f4"><path d="M 300.308594 59.949219 L 313.210938 71.027344 L 296.09375 90.96875 L 283.1875 79.890625 Z M 300.308594 59.949219 " clip-rule="nonzero"/></clipPath><clipPath id="79fc98a212"><path d="M 299 77 L 301 77 L 301 79 L 299 79 Z M 299 77 " clip-rule="nonzero"/></clipPath><clipPath id="a8cab97226"><path d="M 300.308594 59.949219 L 313.210938 71.027344 L 296.09375 90.96875 L 283.1875 79.890625 Z M 300.308594 59.949219 " clip-rule="nonzero"/></clipPath><clipPath id="95fc8c314a"><path d="M 300.308594 59.949219 L 313.210938 71.027344 L 296.09375 90.96875 L 283.1875 79.890625 Z M 300.308594 59.949219 " clip-rule="nonzero"/></clipPath><clipPath id="bc317c6490"><path d="M 300.308594 59.949219 L 313.210938 71.027344 L 296.09375 90.96875 L 283.1875 79.890625 Z M 300.308594 59.949219 " clip-rule="nonzero"/></clipPath><clipPath id="b6b92f2cad"><path d="M 299 72 L 302 72 L 302 75 L 299 75 Z M 299 72 " clip-rule="nonzero"/></clipPath><clipPath id="a56f99c4e3"><path d="M 300.308594 59.949219 L 313.210938 71.027344 L 296.09375 90.96875 L 283.1875 79.890625 Z M 300.308594 59.949219 " clip-rule="nonzero"/></clipPath><clipPath id="0d97da605c"><path d="M 300.308594 59.949219 L 313.210938 71.027344 L 296.09375 90.96875 L 283.1875 79.890625 Z M 300.308594 59.949219 " clip-rule="nonzero"/></clipPath><clipPath id="734a48b8ef"><path d="M 300.308594 59.949219 L 313.210938 71.027344 L 296.09375 90.96875 L 283.1875 79.890625 Z M 300.308594 59.949219 " clip-rule="nonzero"/></clipPath><clipPath id="98e4aa30a7"><path d="M 296 71 L 297 71 L 297 72 L 296 72 Z M 296 71 " clip-rule="nonzero"/></clipPath><clipPath id="5538f6d912"><path d="M 300.308594 59.949219 L 313.210938 71.027344 L 296.09375 90.96875 L 283.1875 79.890625 Z M 300.308594 59.949219 " clip-rule="nonzero"/></clipPath><clipPath id="d79f5edab7"><path d="M 300.308594 59.949219 L 313.210938 71.027344 L 296.09375 90.96875 L 283.1875 79.890625 Z M 300.308594 59.949219 " clip-rule="nonzero"/></clipPath><clipPath id="568985f499"><path d="M 300.308594 59.949219 L 313.210938 71.027344 L 296.09375 90.96875 L 283.1875 79.890625 Z M 300.308594 59.949219 " clip-rule="nonzero"/></clipPath><clipPath id="72c08c1314"><path d="M 302 74 L 304 74 L 304 76 L 302 76 Z M 302 74 " clip-rule="nonzero"/></clipPath><clipPath id="93aaf45ad2"><path d="M 300.308594 59.949219 L 313.210938 71.027344 L 296.09375 90.96875 L 283.1875 79.890625 Z M 300.308594 59.949219 " clip-rule="nonzero"/></clipPath><clipPath id="bb1edb572a"><path d="M 300.308594 59.949219 L 313.210938 71.027344 L 296.09375 90.96875 L 283.1875 79.890625 Z M 300.308594 59.949219 " clip-rule="nonzero"/></clipPath><clipPath id="2227c7bb3a"><path d="M 300.308594 59.949219 L 313.210938 71.027344 L 296.09375 90.96875 L 283.1875 79.890625 Z M 300.308594 59.949219 " clip-rule="nonzero"/></clipPath><clipPath id="66e34d4ddf"><path d="M 306 74 L 309 74 L 309 77 L 306 77 Z M 306 74 " clip-rule="nonzero"/></clipPath><clipPath id="ad1f6af299"><path d="M 300.308594 59.949219 L 313.210938 71.027344 L 296.09375 90.96875 L 283.1875 79.890625 Z M 300.308594 59.949219 " clip-rule="nonzero"/></clipPath><clipPath id="2b22c177f2"><path d="M 300.308594 59.949219 L 313.210938 71.027344 L 296.09375 90.96875 L 283.1875 79.890625 Z M 300.308594 59.949219 " clip-rule="nonzero"/></clipPath><clipPath id="304b042626"><path d="M 300.308594 59.949219 L 313.210938 71.027344 L 296.09375 90.96875 L 283.1875 79.890625 Z M 300.308594 59.949219 " clip-rule="nonzero"/></clipPath><clipPath id="714f3ae41d"><path d="M 302 78 L 304 78 L 304 81 L 302 81 Z M 302 78 " clip-rule="nonzero"/></clipPath><clipPath id="df9beef7e7"><path d="M 300.308594 59.949219 L 313.210938 71.027344 L 296.09375 90.96875 L 283.1875 79.890625 Z M 300.308594 59.949219 " clip-rule="nonzero"/></clipPath><clipPath id="31eab8e850"><path d="M 300.308594 59.949219 L 313.210938 71.027344 L 296.09375 90.96875 L 283.1875 79.890625 Z M 300.308594 59.949219 " clip-rule="nonzero"/></clipPath><clipPath id="26206f4c20"><path d="M 300.308594 59.949219 L 313.210938 71.027344 L 296.09375 90.96875 L 283.1875 79.890625 Z M 300.308594 59.949219 " clip-rule="nonzero"/></clipPath><clipPath id="eee6c0a517"><path d="M 306 69 L 308 69 L 308 71 L 306 71 Z M 306 69 " clip-rule="nonzero"/></clipPath><clipPath id="e3f2439f3e"><path d="M 300.308594 59.949219 L 313.210938 71.027344 L 296.09375 90.96875 L 283.1875 79.890625 Z M 300.308594 59.949219 " clip-rule="nonzero"/></clipPath><clipPath id="7a5ecae71a"><path d="M 300.308594 59.949219 L 313.210938 71.027344 L 296.09375 90.96875 L 283.1875 79.890625 Z M 300.308594 59.949219 " clip-rule="nonzero"/></clipPath><clipPath id="e6041111c3"><path d="M 300.308594 59.949219 L 313.210938 71.027344 L 296.09375 90.96875 L 283.1875 79.890625 Z M 300.308594 59.949219 " clip-rule="nonzero"/></clipPath><clipPath id="961b2090e5"><path d="M 301 68 L 303 68 L 303 70 L 301 70 Z M 301 68 " clip-rule="nonzero"/></clipPath><clipPath id="5bf19d043b"><path d="M 300.308594 59.949219 L 313.210938 71.027344 L 296.09375 90.96875 L 283.1875 79.890625 Z M 300.308594 59.949219 " clip-rule="nonzero"/></clipPath><clipPath id="1e378cf29b"><path d="M 300.308594 59.949219 L 313.210938 71.027344 L 296.09375 90.96875 L 283.1875 79.890625 Z M 300.308594 59.949219 " clip-rule="nonzero"/></clipPath><clipPath id="5e95c32bf1"><path d="M 300.308594 59.949219 L 313.210938 71.027344 L 296.09375 90.96875 L 283.1875 79.890625 Z M 300.308594 59.949219 " clip-rule="nonzero"/></clipPath><clipPath id="e0a3c9eb76"><path d="M 311 70 L 313 70 L 313 71 L 311 71 Z M 311 70 " clip-rule="nonzero"/></clipPath><clipPath id="3241403fc1"><path d="M 300.308594 59.949219 L 313.210938 71.027344 L 296.09375 90.96875 L 283.1875 79.890625 Z M 300.308594 59.949219 " clip-rule="nonzero"/></clipPath><clipPath id="53f291a3fc"><path d="M 300.308594 59.949219 L 313.210938 71.027344 L 296.09375 90.96875 L 283.1875 79.890625 Z M 300.308594 59.949219 " clip-rule="nonzero"/></clipPath><clipPath id="dbd3c0d250"><path d="M 300.308594 59.949219 L 313.210938 71.027344 L 296.09375 90.96875 L 283.1875 79.890625 Z M 300.308594 59.949219 " clip-rule="nonzero"/></clipPath><clipPath id="e0d7b25531"><path d="M 298 84 L 299 84 L 299 86 L 298 86 Z M 298 84 " clip-rule="nonzero"/></clipPath><clipPath id="7232dc0cdb"><path d="M 300.308594 59.949219 L 313.210938 71.027344 L 296.09375 90.96875 L 283.1875 79.890625 Z M 300.308594 59.949219 " clip-rule="nonzero"/></clipPath><clipPath id="aaf295a269"><path d="M 300.308594 59.949219 L 313.210938 71.027344 L 296.09375 90.96875 L 283.1875 79.890625 Z M 300.308594 59.949219 " clip-rule="nonzero"/></clipPath><clipPath id="f0d7f493c1"><path d="M 300.308594 59.949219 L 313.210938 71.027344 L 296.09375 90.96875 L 283.1875 79.890625 Z M 300.308594 59.949219 " clip-rule="nonzero"/></clipPath><clipPath id="2267cbb8d1"><path d="M 290 82 L 292 82 L 292 84 L 290 84 Z M 290 82 " clip-rule="nonzero"/></clipPath><clipPath id="6b382ace64"><path d="M 300.308594 59.949219 L 313.210938 71.027344 L 296.09375 90.96875 L 283.1875 79.890625 Z M 300.308594 59.949219 " clip-rule="nonzero"/></clipPath><clipPath id="227c6c6ef8"><path d="M 300.308594 59.949219 L 313.210938 71.027344 L 296.09375 90.96875 L 283.1875 79.890625 Z M 300.308594 59.949219 " clip-rule="nonzero"/></clipPath><clipPath id="de975dc874"><path d="M 300.308594 59.949219 L 313.210938 71.027344 L 296.09375 90.96875 L 283.1875 79.890625 Z M 300.308594 59.949219 " clip-rule="nonzero"/></clipPath><clipPath id="3cbe21721d"><path d="M 306 77 L 308 77 L 308 78 L 306 78 Z M 306 77 " clip-rule="nonzero"/></clipPath><clipPath id="ef42a41a85"><path d="M 300.308594 59.949219 L 313.210938 71.027344 L 296.09375 90.96875 L 283.1875 79.890625 Z M 300.308594 59.949219 " clip-rule="nonzero"/></clipPath><clipPath id="9eb7d80166"><path d="M 300.308594 59.949219 L 313.210938 71.027344 L 296.09375 90.96875 L 283.1875 79.890625 Z M 300.308594 59.949219 " clip-rule="nonzero"/></clipPath><clipPath id="7362200e93"><path d="M 300.308594 59.949219 L 313.210938 71.027344 L 296.09375 90.96875 L 283.1875 79.890625 Z M 300.308594 59.949219 " clip-rule="nonzero"/></clipPath><clipPath id="41b68d17b4"><path d="M 307.046875 77.117188 L 307.585938 77.582031 L 307.097656 78.148438 L 306.558594 77.6875 Z M 307.046875 77.117188 " clip-rule="nonzero"/></clipPath><clipPath id="af50881e65"><path d="M 294 66 L 296 66 L 296 67 L 294 67 Z M 294 66 " clip-rule="nonzero"/></clipPath><clipPath id="5f88a9d882"><path d="M 300.308594 59.949219 L 313.210938 71.027344 L 296.09375 90.96875 L 283.1875 79.890625 Z M 300.308594 59.949219 " clip-rule="nonzero"/></clipPath><clipPath id="f62a614690"><path d="M 300.308594 59.949219 L 313.210938 71.027344 L 296.09375 90.96875 L 283.1875 79.890625 Z M 300.308594 59.949219 " clip-rule="nonzero"/></clipPath><clipPath id="e8c727d4a8"><path d="M 300.308594 59.949219 L 313.210938 71.027344 L 296.09375 90.96875 L 283.1875 79.890625 Z M 300.308594 59.949219 " clip-rule="nonzero"/></clipPath></defs><g clip-path="url(#408a7ede1d)"><g clip-path="url(#983b5cf6fd)"><g clip-path="url(#6cbac04819)"><path fill="#ffde59" d="M 295.886719 64.996094 C 291.769531 51.863281 276.449219 44.96875 276.449219 44.96875 C 276.449219 44.96875 267.53125 59.460938 271.648438 72.597656 C 275.765625 85.730469 291.363281 92.535156 291.363281 92.535156 C 291.363281 92.535156 300.003906 78.132812 295.886719 64.996094 " fill-opacity="1" fill-rule="nonzero"/></g></g></g><g fill="#149d80" fill-opacity="1"><g transform="translate(20.202492, 179.520781)"><g><path d="M 43.8125 -111.71875 C 50.84375 -105.03125 56.25 -96.722656 60.03125 -86.796875 C 63.9375 -76.765625 65.890625 -66.0625 65.890625 -54.6875 C 65.890625 -43.3125 64.160156 -33.554688 60.703125 -25.421875 C 57.140625 -17.285156 51.789062 -10.816406 44.65625 -6.015625 C 40.414062 -3.117188 35.898438 -1.003906 31.109375 0.328125 C 26.421875 1.671875 20.066406 2.617188 12.046875 3.171875 C 10.253906 3.285156 8.800781 3.34375 7.6875 3.34375 L 6.359375 3.34375 C 5.242188 3.226562 4.347656 2.953125 3.671875 2.515625 C 3.003906 2.066406 2.5625 1.507812 2.34375 0.84375 C 2.113281 0.28125 2 -0.5 2 -1.5 C 2 -3.175781 2.554688 -4.460938 3.671875 -5.359375 C 4.898438 -6.128906 6.6875 -6.515625 9.03125 -6.515625 C 10.03125 -6.515625 11.085938 -6.628906 12.203125 -6.859375 C 13.316406 -6.972656 14.15625 -7.140625 14.71875 -7.359375 C 15.164062 -7.472656 15.832031 -7.695312 16.71875 -8.03125 C 16.613281 -11.257812 16.445312 -16.164062 16.21875 -22.75 C 16 -34.675781 15.609375 -45.65625 15.046875 -55.6875 C 14.492188 -65.71875 13.882812 -73.523438 13.21875 -79.109375 C 12.988281 -82.003906 12.648438 -85.738281 12.203125 -90.3125 C 11.867188 -94.769531 11.59375 -98.726562 11.375 -102.1875 C 11.144531 -106.644531 10.863281 -109.875 10.53125 -111.875 C 10.3125 -113.882812 9.976562 -115 9.53125 -115.21875 C 9.3125 -115.332031 8.753906 -115.503906 7.859375 -115.734375 C 6.859375 -115.835938 5.851562 -115.890625 4.84375 -115.890625 C 1.945312 -115.890625 -0.0546875 -116.671875 -1.171875 -118.234375 C -1.722656 -118.898438 -2 -119.625 -2 -120.40625 C -1.894531 -121.414062 -1.453125 -122.476562 -0.671875 -123.59375 C -0.109375 -124.375 0.613281 -124.816406 1.5 -124.921875 C 2.394531 -125.148438 4.570312 -125.265625 8.03125 -125.265625 C 15.71875 -125.265625 22.347656 -124.203125 27.921875 -122.078125 C 33.503906 -119.960938 38.800781 -116.507812 43.8125 -111.71875 Z M 23.40625 -78.765625 C 23.851562 -74.523438 24.300781 -69.226562 24.75 -62.875 C 25.082031 -56.519531 25.414062 -50.113281 25.75 -43.65625 C 25.863281 -40.195312 25.921875 -36.796875 25.921875 -33.453125 C 26.035156 -30.210938 26.09375 -27.203125 26.09375 -24.421875 C 26.09375 -21.296875 26.144531 -18.507812 26.25 -16.0625 C 26.363281 -13.488281 26.476562 -11.925781 26.59375 -11.375 C 26.925781 -10.257812 27.707031 -9.703125 28.9375 -9.703125 C 30.050781 -9.703125 31.945312 -10.316406 34.625 -11.546875 C 37.632812 -12.992188 40.644531 -15.222656 43.65625 -18.234375 C 46.664062 -21.347656 49.003906 -24.578125 50.671875 -27.921875 C 53.015625 -32.722656 54.578125 -37.96875 55.359375 -43.65625 C 56.242188 -49.332031 56.410156 -55.128906 55.859375 -61.046875 C 54.859375 -71.742188 51.847656 -81.890625 46.828125 -91.484375 C 41.703125 -100.953125 35.179688 -107.582031 27.265625 -111.375 C 25.921875 -111.9375 24.75 -112.382812 23.75 -112.71875 C 22.75 -113.050781 22.078125 -113.21875 21.734375 -113.21875 C 21.296875 -112.769531 21.242188 -108.925781 21.578125 -101.6875 C 21.910156 -94.4375 22.519531 -86.796875 23.40625 -78.765625 Z M 23.40625 -78.765625 "/></g></g></g><g fill="#149d80" fill-opacity="1"><g transform="translate(109.661377, 179.520781)"><g><path d="M 40.46875 -118.234375 C 41.46875 -117.453125 42.023438 -116.335938 42.140625 -114.890625 C 42.140625 -113.441406 41.640625 -112.101562 40.640625 -110.875 C 40.191406 -110.207031 39.96875 -109.207031 39.96875 -107.875 C 39.96875 -106.53125 40.582031 -102.738281 41.8125 -96.5 C 42.363281 -93.820312 42.976562 -90.585938 43.65625 -86.796875 C 44.425781 -82.890625 45.367188 -78.316406 46.484375 -73.078125 C 48.492188 -63.160156 50.445312 -53.628906 52.34375 -44.484375 C 54.125 -35.234375 55.351562 -29.101562 56.03125 -26.09375 C 56.46875 -23.75 57.191406 -20.125 58.203125 -15.21875 L 61.203125 -14.71875 C 62.878906 -14.488281 64.164062 -13.929688 65.0625 -13.046875 C 65.945312 -12.148438 66.390625 -11.035156 66.390625 -9.703125 C 66.390625 -8.023438 65.722656 -6.796875 64.390625 -6.015625 C 63.046875 -5.234375 60.703125 -4.675781 57.359375 -4.34375 C 55.691406 -4.238281 54.078125 -4.070312 52.515625 -3.84375 C 50.953125 -3.726562 50.003906 -3.617188 49.671875 -3.515625 C 49.441406 -3.398438 49.21875 -3.34375 49 -3.34375 C 48.664062 -3.34375 48.332031 -3.398438 48 -3.515625 C 47.4375 -3.617188 46.929688 -3.785156 46.484375 -4.015625 C 44.703125 -5.015625 43.757812 -6.351562 43.65625 -8.03125 C 43.539062 -9.8125 44.265625 -11.316406 45.828125 -12.546875 C 46.265625 -12.878906 46.988281 -13.4375 48 -14.21875 C 47.664062 -15.78125 47.21875 -18.234375 46.65625 -21.578125 C 46.320312 -23.691406 45.929688 -25.53125 45.484375 -27.09375 C 45.148438 -28.757812 44.875 -29.707031 44.65625 -29.9375 C 44.320312 -30.15625 43.09375 -30.378906 40.96875 -30.609375 C 38.96875 -30.710938 36.179688 -30.765625 32.609375 -30.765625 C 30.160156 -30.765625 26.484375 -30.820312 21.578125 -30.9375 C 21.347656 -29.9375 21.007812 -28.488281 20.5625 -26.59375 C 19.789062 -23.351562 19.457031 -21.125 19.5625 -19.90625 C 19.675781 -18.675781 20.289062 -17.835938 21.40625 -17.390625 C 22.738281 -16.835938 23.578125 -15.832031 23.921875 -14.375 C 24.140625 -13.039062 23.859375 -11.757812 23.078125 -10.53125 C 22.296875 -9.3125 21.015625 -8.703125 19.234375 -8.703125 C 17.554688 -8.585938 14.265625 -8.972656 9.359375 -9.859375 C 5.679688 -10.535156 3.226562 -11.265625 2 -12.046875 C 0.664062 -12.828125 0 -13.992188 0 -15.546875 C 0 -17.109375 0.390625 -18.222656 1.171875 -18.890625 C 1.835938 -19.566406 3.175781 -20.015625 5.1875 -20.234375 C 6.851562 -20.453125 7.96875 -20.785156 8.53125 -21.234375 C 9.082031 -21.679688 9.804688 -24.191406 10.703125 -28.765625 C 11.035156 -30.210938 11.425781 -31.941406 11.875 -33.953125 C 12.320312 -36.066406 12.820312 -38.519531 13.375 -41.3125 C 14.15625 -45.769531 15.382812 -52.007812 17.0625 -60.03125 C 18.625 -68.0625 20.128906 -75.535156 21.578125 -82.453125 C 22.910156 -89.253906 24.078125 -95.21875 25.078125 -100.34375 C 26.085938 -105.363281 26.59375 -107.984375 26.59375 -108.203125 C 26.476562 -108.421875 26.195312 -108.695312 25.75 -109.03125 C 25.300781 -109.476562 24.691406 -109.867188 23.921875 -110.203125 C 22.910156 -110.648438 22.238281 -111.097656 21.90625 -111.546875 C 21.570312 -112.109375 21.347656 -112.890625 21.234375 -113.890625 C 21.015625 -116.234375 21.519531 -117.738281 22.75 -118.40625 C 23.96875 -119.1875 26.753906 -119.578125 31.109375 -119.578125 C 33.890625 -119.578125 36.007812 -119.460938 37.46875 -119.234375 C 38.800781 -119.015625 39.800781 -118.679688 40.46875 -118.234375 Z M 32.78125 -85.453125 C 32.445312 -85.003906 31.722656 -82.21875 30.609375 -77.09375 C 29.492188 -71.96875 28.378906 -66.617188 27.265625 -61.046875 C 26.484375 -56.359375 25.753906 -52.234375 25.078125 -48.671875 C 24.523438 -44.984375 24.304688 -42.921875 24.421875 -42.484375 C 24.640625 -42.140625 25.25 -41.859375 26.25 -41.640625 C 27.363281 -41.421875 28.925781 -41.3125 30.9375 -41.3125 L 35.953125 -40.96875 C 37.515625 -40.863281 38.578125 -40.8125 39.140625 -40.8125 C 39.804688 -40.695312 40.363281 -40.75 40.8125 -40.96875 C 41.363281 -41.082031 41.695312 -41.25 41.8125 -41.46875 C 41.914062 -41.695312 41.691406 -43.707031 41.140625 -47.5 C 40.472656 -51.394531 39.632812 -55.960938 38.625 -61.203125 C 36.726562 -71.128906 35.394531 -77.65625 34.625 -80.78125 C 33.945312 -83.894531 33.441406 -85.507812 33.109375 -85.625 L 32.953125 -85.625 C 32.953125 -85.507812 32.894531 -85.453125 32.78125 -85.453125 Z M 32.78125 -85.453125 "/></g></g></g><g fill="#149d80" fill-opacity="1"><g transform="translate(199.120263, 179.520781)"><g><path d="M 7.359375 -1.84375 C 6.023438 -2.289062 5.132812 -2.847656 4.6875 -3.515625 C 4.125 -4.179688 3.84375 -5.238281 3.84375 -6.6875 C 3.84375 -7.800781 4.234375 -8.804688 5.015625 -9.703125 C 5.910156 -10.585938 6.96875 -11.144531 8.1875 -11.375 C 8.632812 -11.488281 8.972656 -11.929688 9.203125 -12.703125 C 9.421875 -13.484375 9.585938 -15.71875 9.703125 -19.40625 L 9.703125 -33.453125 C 9.703125 -37.128906 9.644531 -41.253906 9.53125 -45.828125 C 9.53125 -50.390625 9.421875 -55.125 9.203125 -60.03125 C 8.972656 -69.175781 8.691406 -78.039062 8.359375 -86.625 C 7.910156 -95.320312 7.519531 -101.675781 7.1875 -105.6875 C 6.96875 -107.03125 6.742188 -108.984375 6.515625 -111.546875 C 5.847656 -111.660156 4.789062 -111.828125 3.34375 -112.046875 C 1.226562 -112.273438 -0.273438 -112.773438 -1.171875 -113.546875 C -1.953125 -114.328125 -2.34375 -115.5 -2.34375 -117.0625 C -2.34375 -118.84375 -2.007812 -120.070312 -1.34375 -120.75 C -0.5625 -121.414062 1.945312 -121.804688 6.1875 -121.921875 C 7.863281 -122.023438 10.035156 -122.078125 12.703125 -122.078125 L 22.078125 -122.078125 C 25.640625 -122.078125 28.648438 -122.132812 31.109375 -122.25 L 37.296875 -122.25 C 40.304688 -122.363281 42.203125 -122.472656 42.984375 -122.578125 C 43.648438 -122.804688 44.148438 -123.144531 44.484375 -123.59375 C 44.703125 -124.03125 44.867188 -124.585938 44.984375 -125.265625 C 45.097656 -125.929688 45.15625 -126.539062 45.15625 -127.09375 C 45.15625 -128.988281 46.210938 -130.328125 48.328125 -131.109375 C 48.992188 -131.441406 49.609375 -131.609375 50.171875 -131.609375 C 51.398438 -131.609375 52.457031 -131.109375 53.34375 -130.109375 C 53.90625 -129.554688 54.242188 -128.382812 54.359375 -126.59375 C 54.578125 -124.925781 54.6875 -121.523438 54.6875 -116.390625 C 54.6875 -110.816406 54.578125 -107.304688 54.359375 -105.859375 C 54.242188 -104.410156 53.796875 -103.351562 53.015625 -102.6875 C 52.117188 -101.675781 51.0625 -101.171875 49.84375 -101.171875 C 48.613281 -101.066406 47.441406 -101.40625 46.328125 -102.1875 C 45.878906 -102.519531 45.488281 -103.128906 45.15625 -104.015625 C 44.820312 -104.796875 44.597656 -105.910156 44.484375 -107.359375 C 44.367188 -108.367188 44.203125 -109.765625 43.984375 -111.546875 L 17.5625 -111.546875 C 17.5625 -108.867188 17.617188 -104.851562 17.734375 -99.5 C 17.835938 -96.15625 18.003906 -91.753906 18.234375 -86.296875 C 18.453125 -80.941406 18.671875 -76.09375 18.890625 -71.75 L 19.90625 -56.1875 C 22.019531 -56.1875 25.140625 -56.242188 29.265625 -56.359375 C 31.046875 -56.472656 33.78125 -56.582031 37.46875 -56.6875 C 40.46875 -56.582031 42.023438 -55.414062 42.140625 -53.1875 C 42.253906 -51.0625 41.640625 -49.5 40.296875 -48.5 C 39.523438 -47.71875 38.582031 -47.160156 37.46875 -46.828125 C 36.238281 -46.597656 33.785156 -46.375 30.109375 -46.15625 C 27.878906 -46.039062 25.867188 -45.875 24.078125 -45.65625 C 22.296875 -45.539062 21.296875 -45.375 21.078125 -45.15625 C 20.734375 -45.039062 20.507812 -42.976562 20.40625 -38.96875 C 20.289062 -34.957031 20.234375 -30.773438 20.234375 -26.421875 C 20.234375 -22.742188 20.34375 -19.507812 20.5625 -16.71875 C 20.675781 -13.9375 20.847656 -12.488281 21.078125 -12.375 C 21.296875 -12.257812 21.90625 -12.09375 22.90625 -11.875 C 23.800781 -11.757812 24.804688 -11.648438 25.921875 -11.546875 C 27.484375 -11.546875 28.65625 -11.375 29.4375 -11.03125 C 30.21875 -10.8125 30.828125 -10.367188 31.265625 -9.703125 C 32.273438 -8.585938 32.722656 -7.523438 32.609375 -6.515625 C 32.609375 -5.398438 32.109375 -4.398438 31.109375 -3.515625 C 30.441406 -2.734375 29.550781 -2.285156 28.4375 -2.171875 C 27.320312 -1.953125 24.921875 -1.84375 21.234375 -1.84375 L 14.890625 -1.84375 C 12.878906 -1.726562 11.648438 -1.613281 11.203125 -1.5 L 9.53125 -1.5 C 8.75 -1.613281 8.023438 -1.726562 7.359375 -1.84375 Z M 7.359375 -1.84375 "/></g></g></g><g fill="#149d80" fill-opacity="1"><g transform="translate(278.21077, 179.520781)"><g><path d="M 4.015625 -7.1875 C 3.015625 -8.195312 2.515625 -9.203125 2.515625 -10.203125 C 2.515625 -10.753906 2.625 -11.253906 2.84375 -11.703125 C 3.507812 -13.265625 4.957031 -14.4375 7.1875 -15.21875 L 10.203125 -16.21875 L 10.703125 -36.796875 C 11.035156 -46.046875 11.203125 -55.519531 11.203125 -65.21875 C 11.203125 -74.8125 11.144531 -84.957031 11.03125 -95.65625 C 11.03125 -97.332031 10.976562 -99.898438 10.875 -103.359375 C 10.425781 -103.460938 9.644531 -103.628906 8.53125 -103.859375 C 7.082031 -104.078125 5.910156 -104.632812 5.015625 -105.53125 C 4.117188 -106.414062 3.726562 -107.53125 3.84375 -108.875 C 3.84375 -110.65625 4.679688 -111.9375 6.359375 -112.71875 C 8.023438 -113.382812 11.535156 -114.050781 16.890625 -114.71875 C 20.347656 -115.050781 23.078125 -115.21875 25.078125 -115.21875 C 26.203125 -115.21875 27.097656 -115.164062 27.765625 -115.0625 C 29.546875 -114.726562 30.601562 -113.613281 30.9375 -111.71875 C 31.050781 -111.269531 31.109375 -110.878906 31.109375 -110.546875 C 31.109375 -109.316406 30.601562 -108.253906 29.59375 -107.359375 C 28.375 -106.242188 26.425781 -105.519531 23.75 -105.1875 C 22.632812 -104.96875 21.960938 -104.632812 21.734375 -104.1875 C 21.515625 -103.632812 21.347656 -102.070312 21.234375 -99.5 C 21.234375 -98.050781 21.179688 -94.988281 21.078125 -90.3125 C 21.078125 -85.625 21.128906 -80.71875 21.234375 -75.59375 C 21.234375 -70.351562 21.179688 -63.882812 21.078125 -56.1875 C 21.078125 -48.382812 20.960938 -41.640625 20.734375 -35.953125 C 20.617188 -31.273438 20.453125 -24.304688 20.234375 -15.046875 C 21.128906 -14.941406 22.410156 -14.773438 24.078125 -14.546875 C 26.203125 -14.210938 27.875 -13.546875 29.09375 -12.546875 C 30.207031 -11.648438 30.710938 -10.421875 30.609375 -8.859375 C 30.492188 -6.859375 29.65625 -5.632812 28.09375 -5.1875 C 27.09375 -4.957031 25.363281 -4.84375 22.90625 -4.84375 C 21.125 -4.84375 19.007812 -4.898438 16.5625 -5.015625 C 11.539062 -5.242188 8.363281 -5.46875 7.03125 -5.6875 C 5.6875 -5.90625 4.679688 -6.40625 4.015625 -7.1875 Z M 4.015625 -7.1875 "/></g></g></g><g clip-path="url(#1784a9a5eb)"><g clip-path="url(#1062b7e79c)"><g clip-path="url(#0c27f5b93e)"><path fill="#149d80" d="M 311.847656 76.339844 C 314.765625 65.308594 307.066406 53.707031 307.066406 53.707031 C 307.066406 53.707031 294.410156 59.925781 291.492188 70.957031 C 288.574219 81.992188 296.503906 93.65625 296.503906 93.65625 C 296.503906 93.65625 308.933594 87.371094 311.847656 76.339844 " fill-opacity="1" fill-rule="nonzero"/></g></g></g><g clip-path="url(#43c42e0b11)"><g clip-path="url(#99a5e3801e)"><g clip-path="url(#70f69f3d7a)"><path fill="#149d80" d="M 347.863281 11.203125 C 309.726562 14.613281 290.9375 34.335938 292.648438 71.34375 C 292.667969 71.808594 291.996094 71.898438 291.886719 71.445312 C 289.054688 59.570312 288.351562 48.566406 290.511719 38.742188 C 297.636719 6.320312 335.714844 -1.425781 363.941406 5.96875 C 365.347656 6.339844 365.789062 8.066406 364.742188 9.078125 C 345.054688 28.101562 352.320312 74.289062 298.609375 59.027344 C 304.339844 33.113281 319.464844 15.96875 347.863281 11.203125 " fill-opacity="1" fill-rule="evenodd"/></g></g></g><g clip-path="url(#8c66945dd1)"><g clip-path="url(#4e2e777d0d)"><g clip-path="url(#5c2cbfba92)"><path fill="#149d80" d="M 264.886719 74.976562 C 272.644531 92.316406 284.929688 97.949219 302.015625 91.171875 C 302.230469 91.085938 302.382812 91.386719 302.1875 91.511719 C 297.070312 94.757812 292.023438 96.863281 287.066406 97.4375 C 270.703125 99.328125 260.925781 82.714844 259.835938 68.28125 C 259.78125 67.558594 260.523438 67.074219 261.164062 67.402344 C 273.269531 73.566406 293.761719 62.703125 295.273438 90.363281 C 282.191406 91.859375 271.707031 87.53125 264.886719 74.976562 " fill-opacity="1" fill-rule="evenodd"/></g></g></g><g clip-path="url(#defccad3e7)"><g clip-path="url(#f029f9b684)"><g clip-path="url(#7b8fb185d7)"><g clip-path="url(#0a75232c09)"><path fill="#000000" d="M 291.042969 87.859375 C 290.699219 87.984375 290.613281 88.316406 290.703125 88.578125 C 290.796875 88.84375 291.070312 89.042969 291.414062 88.917969 C 291.472656 88.898438 291.523438 88.871094 291.566406 88.835938 C 291.78125 88.683594 291.828125 88.417969 291.75 88.199219 C 291.660156 87.9375 291.386719 87.734375 291.042969 87.859375 " fill-opacity="1" fill-rule="nonzero"/></g></g></g></g><g clip-path="url(#fd0da9d0dc)"><g clip-path="url(#8e2cd873f2)"><g clip-path="url(#39b987ad8a)"><g clip-path="url(#21c3735fbd)"><path fill="#000000" d="M 288.011719 86.601562 C 287.882812 86.648438 287.792969 86.75 287.769531 86.878906 C 287.742188 87.015625 287.792969 87.164062 287.898438 87.253906 C 288 87.339844 288.132812 87.359375 288.261719 87.3125 C 288.300781 87.296875 288.332031 87.28125 288.363281 87.257812 C 288.4375 87.203125 288.488281 87.125 288.503906 87.035156 C 288.53125 86.894531 288.480469 86.75 288.375 86.660156 C 288.273438 86.574219 288.144531 86.554688 288.011719 86.601562 " fill-opacity="1" fill-rule="nonzero"/></g></g></g></g><g clip-path="url(#c82fbe978a)"><g clip-path="url(#03201ecfe2)"><g clip-path="url(#49e7264515)"><g clip-path="url(#a19c5c0774)"><path fill="#000000" d="M 289.820312 82.65625 C 289.394531 82.8125 289.285156 83.222656 289.398438 83.550781 C 289.515625 83.878906 289.855469 84.132812 290.28125 83.976562 C 290.351562 83.949219 290.414062 83.917969 290.472656 83.875 C 290.609375 83.777344 290.699219 83.636719 290.734375 83.46875 C 290.78125 83.210938 290.683594 82.925781 290.484375 82.757812 C 290.304688 82.605469 290.0625 82.570312 289.820312 82.65625 " fill-opacity="1" fill-rule="nonzero"/></g></g></g></g><g clip-path="url(#8b7f1d962e)"><g clip-path="url(#12037f2472)"><g clip-path="url(#fb4b2955d7)"><g clip-path="url(#b377ce1674)"><path fill="#000000" d="M 295.949219 84.804688 C 295.4375 84.988281 295.308594 85.484375 295.445312 85.878906 C 295.582031 86.269531 295.988281 86.570312 296.5 86.386719 C 296.585938 86.355469 296.664062 86.3125 296.734375 86.265625 C 296.894531 86.144531 297 85.980469 297.039062 85.777344 C 297.101562 85.46875 296.980469 85.128906 296.742188 84.925781 C 296.523438 84.742188 296.242188 84.699219 295.949219 84.804688 " fill-opacity="1" fill-rule="nonzero"/></g></g></g></g><g clip-path="url(#c78d8f97c5)"><g clip-path="url(#839f16b9ad)"><g clip-path="url(#763c4100e2)"><g clip-path="url(#9649bdbdbe)"><g clip-path="url(#4587712d05)"><path fill="#000000" d="M 295.570312 91.128906 C 295.183594 91.269531 294.925781 91.554688 294.855469 91.933594 C 294.773438 92.34375 294.933594 92.800781 295.25 93.070312 C 295.542969 93.316406 295.917969 93.375 296.304688 93.234375 C 296.421875 93.191406 296.523438 93.136719 296.613281 93.070312 C 296.828125 92.914062 296.96875 92.695312 297.023438 92.425781 C 297.101562 92.015625 296.941406 91.558594 296.625 91.289062 C 296.332031 91.042969 295.957031 90.988281 295.570312 91.128906 " fill-opacity="1" fill-rule="nonzero"/></g></g></g></g></g><g clip-path="url(#9c625fe880)"><g clip-path="url(#0b294ee9be)"><g clip-path="url(#ee30d6f8cd)"><g clip-path="url(#85c2194ff1)"><path fill="#000000" d="M 294.222656 83.285156 C 294.289062 83.257812 294.351562 83.226562 294.402344 83.1875 C 294.648438 83.007812 294.703125 82.699219 294.613281 82.445312 C 294.507812 82.140625 294.191406 81.90625 293.789062 82.050781 C 293.390625 82.195312 293.289062 82.582031 293.398438 82.886719 C 293.503906 83.195312 293.824219 83.429688 294.222656 83.285156 " fill-opacity="1" fill-rule="nonzero"/></g></g></g></g><g clip-path="url(#58589056c5)"><g clip-path="url(#f9c51d1f32)"><g clip-path="url(#e945a75cfb)"><g clip-path="url(#9f187ccb5b)"><path fill="#000000" d="M 297.253906 81.136719 C 296.941406 81.25 296.859375 81.554688 296.945312 81.796875 C 297.03125 82.039062 297.28125 82.222656 297.59375 82.109375 C 297.648438 82.089844 297.695312 82.0625 297.738281 82.035156 C 297.933594 81.890625 297.976562 81.648438 297.90625 81.449219 C 297.820312 81.207031 297.570312 81.023438 297.253906 81.136719 " fill-opacity="1" fill-rule="nonzero"/></g></g></g></g><g clip-path="url(#23cdae469f)"><g clip-path="url(#5a27fb9e84)"><g clip-path="url(#f0b1c8ce71)"><g clip-path="url(#11d179f6cc)"><path fill="#000000" d="M 295.285156 79.078125 C 295.308594 78.9375 295.257812 78.789062 295.152344 78.699219 C 295.050781 78.617188 294.921875 78.597656 294.789062 78.644531 C 294.660156 78.691406 294.570312 78.792969 294.546875 78.921875 C 294.519531 79.058594 294.570312 79.207031 294.675781 79.296875 C 294.777344 79.378906 294.910156 79.402344 295.039062 79.355469 C 295.078125 79.339844 295.109375 79.320312 295.140625 79.300781 C 295.214844 79.246094 295.265625 79.167969 295.285156 79.078125 " fill-opacity="1" fill-rule="nonzero"/></g></g></g></g><g clip-path="url(#ef91d64902)"><g clip-path="url(#cbde82720b)"><g clip-path="url(#69ca2dea90)"><g clip-path="url(#abdacda09a)"><path fill="#000000" d="M 290.558594 76.789062 C 289.960938 77.007812 289.8125 77.582031 289.972656 78.042969 C 290.132812 78.5 290.605469 78.851562 291.203125 78.632812 C 291.304688 78.597656 291.394531 78.550781 291.472656 78.492188 C 291.660156 78.355469 291.785156 78.160156 291.832031 77.925781 C 291.898438 77.566406 291.761719 77.167969 291.484375 76.933594 C 291.226562 76.71875 290.898438 76.667969 290.558594 76.789062 " fill-opacity="1" fill-rule="nonzero"/></g></g></g></g><g clip-path="url(#0e221bd896)"><g clip-path="url(#1872822daa)"><g clip-path="url(#139617493b)"><g clip-path="url(#7086fbcd2e)"><path fill="#000000" d="M 288.125 81.222656 C 288.15625 81.210938 288.1875 81.195312 288.210938 81.175781 C 288.328125 81.09375 288.375 80.945312 288.324219 80.800781 C 288.261719 80.621094 288.082031 80.535156 287.90625 80.601562 C 287.730469 80.664062 287.644531 80.847656 287.707031 81.023438 C 287.769531 81.203125 287.949219 81.289062 288.125 81.222656 " fill-opacity="1" fill-rule="nonzero"/></g></g></g></g><g clip-path="url(#d6b2353a19)"><g clip-path="url(#3695f84120)"><g clip-path="url(#3b501a6584)"><g clip-path="url(#985c78f6e3)"><path fill="#000000" d="M 293.3125 74.414062 L 293.136719 74.480469 C 293.027344 74.519531 292.9375 74.605469 292.886719 74.714844 C 292.835938 74.820312 292.832031 74.933594 292.875 75.03125 C 292.960938 75.25 293.199219 75.355469 293.414062 75.277344 L 293.589844 75.214844 C 293.628906 75.199219 293.664062 75.179688 293.695312 75.15625 C 293.757812 75.113281 293.808594 75.050781 293.84375 74.980469 C 293.890625 74.875 293.894531 74.761719 293.855469 74.660156 C 293.765625 74.445312 293.53125 74.335938 293.3125 74.414062 " fill-opacity="1" fill-rule="nonzero"/></g></g></g></g><g clip-path="url(#92b6e88592)"><g clip-path="url(#4e4b2c24d6)"><g clip-path="url(#e8a8fd1b95)"><g clip-path="url(#c168794638)"><path fill="#000000" d="M 294.152344 69.984375 C 293.558594 70.203125 293.410156 70.777344 293.570312 71.238281 C 293.730469 71.695312 294.203125 72.046875 294.796875 71.828125 C 294.902344 71.792969 294.988281 71.746094 295.066406 71.6875 C 295.4375 71.417969 295.515625 70.957031 295.382812 70.578125 C 295.222656 70.121094 294.75 69.769531 294.152344 69.984375 " fill-opacity="1" fill-rule="nonzero"/></g></g></g></g><g clip-path="url(#65f2328763)"><g clip-path="url(#55c451a324)"><g clip-path="url(#258c746223)"><g clip-path="url(#755ea33de5)"><path fill="#000000" d="M 296.828125 75.523438 C 296.363281 75.691406 296.25 76.140625 296.371094 76.496094 C 296.496094 76.851562 296.863281 77.121094 297.328125 76.957031 C 297.40625 76.925781 297.476562 76.890625 297.535156 76.847656 C 297.824219 76.636719 297.886719 76.277344 297.78125 75.984375 C 297.65625 75.628906 297.289062 75.355469 296.828125 75.523438 " fill-opacity="1" fill-rule="nonzero"/></g></g></g></g><g clip-path="url(#77725b9808)"><g clip-path="url(#1807365e55)"><g clip-path="url(#10aac8b069)"><g clip-path="url(#40705b8ab0)"><path fill="#000000" d="M 289.46875 70.835938 C 289.546875 70.808594 289.617188 70.773438 289.675781 70.726562 C 289.964844 70.519531 290.027344 70.160156 289.925781 69.867188 C 289.800781 69.511719 289.433594 69.238281 288.96875 69.40625 C 288.507812 69.574219 288.390625 70.023438 288.515625 70.378906 C 288.636719 70.734375 289.007812 71.003906 289.46875 70.835938 " fill-opacity="1" fill-rule="nonzero"/></g></g></g></g><g clip-path="url(#f19bd8190a)"><g clip-path="url(#bf8f54f051)"><g clip-path="url(#1375520e34)"><g clip-path="url(#abc83ff166)"><path fill="#000000" d="M 286.546875 74.226562 C 286.1875 74.359375 286.097656 74.707031 286.195312 74.980469 C 286.289062 75.257812 286.574219 75.46875 286.933594 75.335938 C 286.996094 75.3125 287.050781 75.285156 287.097656 75.25 C 287.320312 75.089844 287.367188 74.8125 287.289062 74.582031 C 287.191406 74.308594 286.90625 74.097656 286.546875 74.226562 " fill-opacity="1" fill-rule="nonzero"/></g></g></g></g><g clip-path="url(#6255644abf)"><g clip-path="url(#2ac82e153f)"><g clip-path="url(#950338840b)"><g clip-path="url(#089493b70c)"><path fill="#000000" d="M 290.765625 65.738281 C 290.800781 65.726562 290.832031 65.710938 290.859375 65.6875 C 290.929688 65.636719 290.976562 65.566406 290.992188 65.480469 C 291.019531 65.351562 290.96875 65.214844 290.871094 65.132812 C 290.777344 65.054688 290.65625 65.035156 290.535156 65.078125 C 290.414062 65.121094 290.332031 65.214844 290.308594 65.335938 C 290.285156 65.464844 290.332031 65.601562 290.429688 65.683594 C 290.523438 65.761719 290.644531 65.78125 290.765625 65.738281 " fill-opacity="1" fill-rule="nonzero"/></g></g></g></g><g clip-path="url(#17f30b5898)"><g clip-path="url(#17dbfcba9e)"><g clip-path="url(#c5bb0d071c)"><g clip-path="url(#3ea3d7525e)"><path fill="#000000" d="M 301.636719 81.734375 C 301.515625 81.78125 301.433594 81.875 301.410156 81.992188 C 301.386719 82.121094 301.433594 82.257812 301.53125 82.339844 C 301.625 82.417969 301.746094 82.4375 301.867188 82.394531 C 301.902344 82.382812 301.933594 82.367188 301.964844 82.34375 C 302.03125 82.296875 302.078125 82.222656 302.097656 82.136719 C 302.121094 82.007812 302.074219 81.871094 301.972656 81.789062 C 301.882812 81.710938 301.757812 81.691406 301.636719 81.734375 " fill-opacity="1" fill-rule="nonzero"/></g></g></g></g><g clip-path="url(#b17c7f8104)"><g clip-path="url(#73e45c3bd8)"><g clip-path="url(#a2e338b698)"><g clip-path="url(#cedf97ba89)"><path fill="#000000" d="M 297.613281 88.257812 C 297.425781 88.324219 297.335938 88.519531 297.398438 88.707031 C 297.464844 88.894531 297.65625 88.984375 297.84375 88.917969 C 297.878906 88.90625 297.90625 88.890625 297.933594 88.871094 C 298.058594 88.78125 298.109375 88.625 298.054688 88.46875 C 297.988281 88.28125 297.800781 88.191406 297.613281 88.257812 " fill-opacity="1" fill-rule="nonzero"/></g></g></g></g><g clip-path="url(#c486e4c47d)"><g clip-path="url(#8672c18d38)"><g clip-path="url(#661645dc97)"><g clip-path="url(#b782305e1b)"><g clip-path="url(#46fab06370)"><path fill="#000000" d="M 296.644531 71.574219 C 296.550781 71.496094 296.429688 71.476562 296.308594 71.519531 C 296.1875 71.5625 296.105469 71.65625 296.078125 71.777344 C 296.054688 71.90625 296.101562 72.042969 296.203125 72.125 C 296.292969 72.203125 296.417969 72.222656 296.539062 72.179688 C 296.574219 72.167969 296.605469 72.148438 296.632812 72.128906 C 296.703125 72.078125 296.746094 72.007812 296.765625 71.921875 C 296.789062 71.792969 296.742188 71.65625 296.644531 71.574219 " fill-opacity="1" fill-rule="nonzero"/></g></g></g></g></g><g clip-path="url(#18f222c09c)"><g clip-path="url(#dc34712459)"><g clip-path="url(#2bf81343f5)"><g clip-path="url(#769cd06940)"><path fill="#000000" d="M 282.726562 80.496094 C 282.539062 80.5625 282.449219 80.757812 282.511719 80.945312 C 282.578125 81.132812 282.769531 81.222656 282.957031 81.15625 C 282.992188 81.144531 283.023438 81.125 283.050781 81.105469 C 283.171875 81.015625 283.222656 80.859375 283.167969 80.707031 C 283.101562 80.519531 282.914062 80.425781 282.726562 80.496094 " fill-opacity="1" fill-rule="nonzero"/></g></g></g></g><g clip-path="url(#1807cfbc42)"><g clip-path="url(#2b548da2c3)"><g clip-path="url(#fa84a3f58a)"><g clip-path="url(#bf9ca77b68)"><path fill="#000000" d="M 288.453125 86.375 C 288.292969 86.703125 288.457031 87.003906 288.707031 87.128906 C 288.953125 87.253906 289.289062 87.210938 289.453125 86.882812 C 289.480469 86.828125 289.5 86.773438 289.507812 86.71875 C 289.554688 86.460938 289.40625 86.234375 289.199219 86.132812 C 288.953125 86.003906 288.617188 86.046875 288.453125 86.375 " fill-opacity="1" fill-rule="nonzero"/></g></g></g></g><g clip-path="url(#eb2bd10240)"><g clip-path="url(#da8f1200bb)"><g clip-path="url(#80923a36f5)"><g clip-path="url(#67e320d728)"><path fill="#000000" d="M 285.394531 87.558594 C 285.332031 87.683594 285.339844 87.816406 285.410156 87.929688 C 285.484375 88.046875 285.625 88.117188 285.765625 88.109375 C 285.894531 88.101562 286.003906 88.023438 286.066406 87.902344 C 286.082031 87.863281 286.09375 87.828125 286.101562 87.792969 C 286.117188 87.699219 286.101562 87.609375 286.050781 87.53125 C 285.972656 87.414062 285.835938 87.34375 285.695312 87.351562 C 285.566406 87.359375 285.457031 87.433594 285.394531 87.558594 " fill-opacity="1" fill-rule="nonzero"/></g></g></g></g><g clip-path="url(#d0deb85137)"><g clip-path="url(#1e8837cda0)"><g clip-path="url(#c463d28229)"><g clip-path="url(#5ec4f2bd5e)"><path fill="#000000" d="M 283.972656 83.457031 C 283.773438 83.867188 283.980469 84.238281 284.289062 84.398438 C 284.597656 84.554688 285.019531 84.5 285.21875 84.09375 C 285.253906 84.027344 285.277344 83.957031 285.289062 83.890625 C 285.316406 83.722656 285.285156 83.558594 285.195312 83.414062 C 285.054688 83.195312 284.785156 83.058594 284.527344 83.074219 C 284.289062 83.089844 284.085938 83.226562 283.972656 83.457031 " fill-opacity="1" fill-rule="nonzero"/></g></g></g></g><g clip-path="url(#a88120a1bc)"><g clip-path="url(#a3b43d9d30)"><g clip-path="url(#c05b5f5f97)"><g clip-path="url(#fbd0c56c53)"><path fill="#000000" d="M 289.886719 80.773438 C 289.644531 81.261719 289.894531 81.710938 290.265625 81.898438 C 290.636719 82.089844 291.140625 82.023438 291.378906 81.535156 C 291.421875 81.453125 291.449219 81.371094 291.464844 81.289062 C 291.5 81.089844 291.460938 80.898438 291.351562 80.726562 C 291.179688 80.460938 290.859375 80.296875 290.546875 80.316406 C 290.261719 80.332031 290.027344 80.496094 289.886719 80.773438 " fill-opacity="1" fill-rule="nonzero"/></g></g></g></g><g clip-path="url(#429bc8b597)"><g clip-path="url(#61a809796f)"><g clip-path="url(#6b2854ddaf)"><g clip-path="url(#e761e8aab7)"><g clip-path="url(#7a661902ca)"><path fill="#000000" d="M 293.984375 85.609375 C 293.800781 85.976562 293.816406 86.359375 294.023438 86.683594 C 294.25 87.039062 294.683594 87.257812 295.097656 87.230469 C 295.476562 87.207031 295.789062 86.992188 295.972656 86.621094 C 296.027344 86.511719 296.0625 86.402344 296.082031 86.289062 C 296.128906 86.03125 296.078125 85.773438 295.933594 85.542969 C 295.707031 85.191406 295.273438 84.96875 294.859375 84.996094 C 294.480469 85.019531 294.167969 85.238281 293.984375 85.609375 " fill-opacity="1" fill-rule="nonzero"/></g></g></g></g></g><g clip-path="url(#273b13315b)"><g clip-path="url(#54edfbccf1)"><g clip-path="url(#8f649a3de3)"><g clip-path="url(#26df99e980)"><path fill="#000000" d="M 287.589844 80.871094 C 287.621094 80.804688 287.644531 80.738281 287.65625 80.675781 C 287.707031 80.375 287.535156 80.113281 287.292969 79.992188 C 287.003906 79.84375 286.613281 79.894531 286.425781 80.277344 C 286.238281 80.65625 286.429688 81.007812 286.71875 81.152344 C 287.007812 81.300781 287.402344 81.25 287.589844 80.871094 " fill-opacity="1" fill-rule="nonzero"/></g></g></g></g><g clip-path="url(#8581d6f404)"><g clip-path="url(#afcdb2675b)"><g clip-path="url(#ab3b79980b)"><g clip-path="url(#820debc74e)"><path fill="#000000" d="M 288.300781 77.222656 C 288.148438 77.523438 288.304688 77.796875 288.53125 77.914062 C 288.757812 78.03125 289.066406 77.992188 289.214844 77.691406 C 289.242188 77.636719 289.257812 77.585938 289.265625 77.539062 C 289.308594 77.300781 289.171875 77.09375 288.984375 76.996094 C 288.757812 76.882812 288.449219 76.921875 288.300781 77.222656 " fill-opacity="1" fill-rule="nonzero"/></g></g></g></g><g clip-path="url(#0c567fa4a9)"><g clip-path="url(#51f26e46be)"><g clip-path="url(#d1964fad36)"><g clip-path="url(#8ca6b46fd9)"><path fill="#000000" d="M 285.449219 77.09375 C 285.371094 76.976562 285.234375 76.90625 285.09375 76.914062 C 284.964844 76.921875 284.855469 77 284.792969 77.121094 C 284.730469 77.246094 284.738281 77.382812 284.808594 77.492188 C 284.886719 77.609375 285.023438 77.679688 285.164062 77.671875 C 285.292969 77.664062 285.402344 77.589844 285.464844 77.464844 C 285.480469 77.429688 285.492188 77.390625 285.5 77.355469 C 285.515625 77.265625 285.5 77.175781 285.449219 77.09375 " fill-opacity="1" fill-rule="nonzero"/></g></g></g></g><g clip-path="url(#153ab2eec7)"><g clip-path="url(#ee25459007)"><g clip-path="url(#803bd4dfcc)"><g clip-path="url(#825d608f81)"><path fill="#000000" d="M 280.453125 78.707031 C 280.171875 79.277344 280.464844 79.796875 280.894531 80.015625 C 281.328125 80.238281 281.914062 80.164062 282.195312 79.59375 C 282.242188 79.5 282.273438 79.402344 282.289062 79.308594 C 282.332031 79.078125 282.289062 78.851562 282.160156 78.652344 C 281.960938 78.34375 281.582031 78.148438 281.222656 78.171875 C 280.886719 78.195312 280.613281 78.382812 280.453125 78.707031 " fill-opacity="1" fill-rule="nonzero"/></g></g></g></g><g clip-path="url(#1d4ac56f86)"><g clip-path="url(#533f92bac5)"><g clip-path="url(#6e8d81b06c)"><g clip-path="url(#0b8404a487)"><path fill="#000000" d="M 281.757812 83.59375 C 281.773438 83.5625 281.785156 83.53125 281.789062 83.5 C 281.816406 83.359375 281.746094 83.21875 281.609375 83.148438 C 281.441406 83.0625 281.253906 83.125 281.171875 83.292969 C 281.085938 83.464844 281.152344 83.65625 281.316406 83.738281 C 281.484375 83.824219 281.675781 83.761719 281.757812 83.59375 " fill-opacity="1" fill-rule="nonzero"/></g></g></g></g><g clip-path="url(#3af813d27c)"><g clip-path="url(#1590cd3df7)"><g clip-path="url(#a1f0d9e9f2)"><g clip-path="url(#974cfc1c0c)"><path fill="#000000" d="M 280.804688 75.089844 L 280.722656 75.257812 C 280.667969 75.359375 280.664062 75.484375 280.703125 75.597656 C 280.738281 75.707031 280.8125 75.792969 280.914062 75.835938 C 281.125 75.933594 281.371094 75.847656 281.472656 75.640625 L 281.558594 75.472656 C 281.574219 75.4375 281.585938 75.398438 281.59375 75.359375 C 281.609375 75.285156 281.601562 75.203125 281.574219 75.128906 C 281.539062 75.019531 281.464844 74.9375 281.367188 74.890625 C 281.152344 74.796875 280.90625 74.882812 280.804688 75.089844 " fill-opacity="1" fill-rule="nonzero"/></g></g></g></g><g clip-path="url(#05bd9249d0)"><g clip-path="url(#fd78f275ba)"><g clip-path="url(#ddb8828526)"><g clip-path="url(#3b6ec098ee)"><path fill="#000000" d="M 278.351562 71.304688 C 278.070312 71.871094 278.359375 72.394531 278.792969 72.613281 C 279.226562 72.835938 279.808594 72.761719 280.089844 72.191406 C 280.140625 72.09375 280.171875 72 280.1875 71.90625 C 280.269531 71.453125 280.007812 71.066406 279.648438 70.882812 C 279.214844 70.664062 278.632812 70.738281 278.351562 71.304688 " fill-opacity="1" fill-rule="nonzero"/></g></g></g></g><g clip-path="url(#66ef37ee64)"><g clip-path="url(#6127afb3f2)"><g clip-path="url(#37736758b4)"><g clip-path="url(#80ca99b135)"><path fill="#000000" d="M 284.109375 73.460938 C 283.894531 73.902344 284.117188 74.308594 284.453125 74.476562 C 284.789062 74.648438 285.242188 74.589844 285.460938 74.148438 C 285.5 74.074219 285.523438 74 285.535156 73.925781 C 285.597656 73.578125 285.394531 73.273438 285.117188 73.132812 C 284.785156 72.960938 284.328125 73.019531 284.109375 73.460938 " fill-opacity="1" fill-rule="nonzero"/></g></g></g></g><g clip-path="url(#c1853c3b3f)"><g clip-path="url(#610142b6e7)"><g clip-path="url(#7b084fce2c)"><g clip-path="url(#e4b4a626ef)"><path fill="#000000" d="M 275.554688 75.160156 C 275.589844 75.082031 275.613281 75.007812 275.628906 74.9375 C 275.691406 74.585938 275.488281 74.285156 275.210938 74.140625 C 274.875 73.972656 274.421875 74.027344 274.203125 74.46875 C 273.984375 74.910156 274.210938 75.316406 274.546875 75.488281 C 274.882812 75.65625 275.335938 75.601562 275.554688 75.160156 " fill-opacity="1" fill-rule="nonzero"/></g></g></g></g><g clip-path="url(#6474760c88)"><g clip-path="url(#664b358d17)"><g clip-path="url(#aa5c270043)"><g clip-path="url(#c97df05dc4)"><path fill="#000000" d="M 275.785156 79.628906 C 275.613281 79.96875 275.789062 80.285156 276.050781 80.417969 C 276.308594 80.550781 276.660156 80.503906 276.832031 80.160156 C 276.859375 80.101562 276.878906 80.042969 276.890625 79.988281 C 276.9375 79.714844 276.78125 79.480469 276.566406 79.371094 C 276.304688 79.238281 275.953125 79.285156 275.785156 79.628906 " fill-opacity="1" fill-rule="nonzero"/></g></g></g></g><g clip-path="url(#6a19e38d07)"><g clip-path="url(#dc1d4e1d53)"><g clip-path="url(#32ae1f4856)"><g clip-path="url(#71e0a0e995)"><path fill="#000000" d="M 272.96875 70.578125 C 272.984375 70.542969 272.996094 70.507812 273 70.476562 C 273.015625 70.390625 273 70.304688 272.953125 70.234375 C 272.882812 70.125 272.753906 70.058594 272.625 70.066406 C 272.503906 70.074219 272.402344 70.144531 272.34375 70.257812 C 272.289062 70.375 272.292969 70.5 272.359375 70.601562 C 272.429688 70.710938 272.558594 70.777344 272.6875 70.769531 C 272.808594 70.761719 272.910156 70.691406 272.96875 70.578125 " fill-opacity="1" fill-rule="nonzero"/></g></g></g></g><g clip-path="url(#23d6118589)"><g clip-path="url(#a988e1def3)"><g clip-path="url(#7c319d5166)"><g clip-path="url(#5c6c993d8e)"><path fill="#000000" d="M 291.878906 74.625 C 291.824219 74.742188 291.828125 74.867188 291.894531 74.96875 C 291.964844 75.078125 292.09375 75.144531 292.222656 75.136719 C 292.34375 75.128906 292.445312 75.058594 292.503906 74.941406 C 292.519531 74.910156 292.53125 74.875 292.535156 74.84375 C 292.550781 74.757812 292.535156 74.671875 292.488281 74.601562 C 292.417969 74.488281 292.289062 74.425781 292.160156 74.433594 C 292.039062 74.441406 291.9375 74.511719 291.878906 74.625 " fill-opacity="1" fill-rule="nonzero"/></g></g></g></g><g clip-path="url(#64fc7b6766)"><g clip-path="url(#40fe75b7f8)"><g clip-path="url(#aa53670908)"><g clip-path="url(#bb1d25ab9e)"><path fill="#000000" d="M 293.476562 82.121094 C 293.390625 82.300781 293.457031 82.503906 293.632812 82.59375 C 293.8125 82.683594 294.011719 82.617188 294.101562 82.441406 C 294.117188 82.40625 294.128906 82.375 294.132812 82.339844 C 294.160156 82.191406 294.089844 82.042969 293.945312 81.96875 C 293.765625 81.878906 293.566406 81.945312 293.476562 82.121094 " fill-opacity="1" fill-rule="nonzero"/></g></g></g></g><g clip-path="url(#c533cc7fdb)"><g clip-path="url(#24c86085f2)"><g clip-path="url(#e40b132410)"><g clip-path="url(#23373c2a26)"><g clip-path="url(#d65f744f58)"><path fill="#000000" d="M 281.246094 70.734375 C 281.125 70.738281 281.023438 70.8125 280.964844 70.925781 C 280.910156 71.039062 280.914062 71.167969 280.980469 71.269531 C 281.050781 71.378906 281.179688 71.445312 281.308594 71.4375 C 281.429688 71.429688 281.53125 71.359375 281.589844 71.242188 C 281.605469 71.210938 281.617188 71.175781 281.625 71.140625 C 281.636719 71.058594 281.621094 70.972656 281.574219 70.898438 C 281.503906 70.789062 281.375 70.722656 281.246094 70.734375 " fill-opacity="1" fill-rule="nonzero"/></g></g></g></g></g><g clip-path="url(#1a5543721f)"><g clip-path="url(#471e2b1325)"><g clip-path="url(#0e631d4940)"><g clip-path="url(#33a2e2377e)"><path fill="#000000" d="M 277.351562 86.800781 C 277.265625 86.976562 277.332031 87.179688 277.511719 87.269531 C 277.6875 87.359375 277.886719 87.296875 277.976562 87.117188 C 277.992188 87.085938 278.003906 87.050781 278.007812 87.015625 C 278.035156 86.867188 277.964844 86.71875 277.820312 86.644531 C 277.640625 86.554688 277.441406 86.621094 277.351562 86.800781 " fill-opacity="1" fill-rule="nonzero"/></g></g></g></g><g clip-path="url(#b7b3328df7)"><g clip-path="url(#2d3870c39e)"><g clip-path="url(#340a35de68)"><g clip-path="url(#19a9f46a2f)"><path fill="#000000" d="M 290.265625 76.066406 C 290.066406 75.761719 289.722656 75.753906 289.488281 75.902344 C 289.253906 76.050781 289.121094 76.363281 289.320312 76.667969 C 289.355469 76.722656 289.394531 76.765625 289.4375 76.800781 C 289.636719 76.972656 289.90625 76.957031 290.101562 76.832031 C 290.335938 76.683594 290.46875 76.371094 290.265625 76.066406 " fill-opacity="1" fill-rule="nonzero"/></g></g></g></g><g clip-path="url(#aac21c45cc)"><g clip-path="url(#10d7b9e7d0)"><g clip-path="url(#c1493c2769)"><g clip-path="url(#da0be3cc15)"><path fill="#000000" d="M 290.796875 72.828125 C 290.722656 72.714844 290.601562 72.648438 290.46875 72.65625 C 290.328125 72.660156 290.199219 72.746094 290.136719 72.871094 C 290.078125 72.984375 290.085938 73.117188 290.164062 73.234375 C 290.183594 73.269531 290.210938 73.296875 290.238281 73.320312 C 290.308594 73.378906 290.394531 73.410156 290.488281 73.40625 C 290.628906 73.402344 290.761719 73.320312 290.824219 73.195312 C 290.882812 73.078125 290.871094 72.945312 290.796875 72.828125 " fill-opacity="1" fill-rule="nonzero"/></g></g></g></g><g clip-path="url(#1dc54f3b0e)"><g clip-path="url(#a99935124d)"><g clip-path="url(#ec714b4fa1)"><g clip-path="url(#b711884a4b)"><path fill="#000000" d="M 295.050781 73.683594 C 294.804688 73.300781 294.375 73.292969 294.082031 73.480469 C 293.789062 73.664062 293.625 74.054688 293.871094 74.433594 C 293.914062 74.496094 293.960938 74.550781 294.011719 74.597656 C 294.140625 74.707031 294.300781 74.761719 294.472656 74.757812 C 294.730469 74.746094 294.988281 74.585938 295.105469 74.351562 C 295.210938 74.140625 295.191406 73.894531 295.050781 73.683594 " fill-opacity="1" fill-rule="nonzero"/></g></g></g></g><g clip-path="url(#1ca771ff9e)"><g clip-path="url(#a66bb7f50d)"><g clip-path="url(#0c8fd2d604)"><g clip-path="url(#3503bae73f)"><path fill="#000000" d="M 294.367188 80.140625 C 294.070312 79.683594 293.558594 79.671875 293.207031 79.898438 C 292.855469 80.121094 292.65625 80.585938 292.957031 81.042969 C 293.007812 81.117188 293.0625 81.183594 293.128906 81.238281 C 293.28125 81.367188 293.464844 81.433594 293.671875 81.425781 C 293.984375 81.414062 294.289062 81.21875 294.429688 80.941406 C 294.5625 80.683594 294.539062 80.398438 294.367188 80.140625 " fill-opacity="1" fill-rule="nonzero"/></g></g></g></g><g clip-path="url(#e28d9e8ae9)"><g clip-path="url(#1c5e73a4c1)"><g clip-path="url(#2c15afa8c4)"><g clip-path="url(#8d53acdb5f)"><g clip-path="url(#f7d440e757)"><path fill="#000000" d="M 288.125 81.222656 C 287.898438 80.878906 287.5625 80.695312 287.179688 80.710938 C 286.757812 80.730469 286.351562 80.988281 286.164062 81.359375 C 285.992188 81.699219 286.019531 82.078125 286.246094 82.421875 C 286.3125 82.527344 286.390625 82.613281 286.476562 82.6875 C 286.675781 82.859375 286.925781 82.945312 287.195312 82.9375 C 287.613281 82.917969 288.023438 82.660156 288.210938 82.289062 C 288.382812 81.949219 288.351562 81.570312 288.125 81.222656 " fill-opacity="1" fill-rule="nonzero"/></g></g></g></g></g><g clip-path="url(#78cba7c041)"><g clip-path="url(#9b0020e9e4)"><g clip-path="url(#cb5f79dc57)"><g clip-path="url(#fa9aac165b)"><path fill="#000000" d="M 295.453125 78.109375 C 295.492188 78.171875 295.535156 78.222656 295.585938 78.265625 C 295.816406 78.464844 296.128906 78.445312 296.355469 78.300781 C 296.628906 78.125 296.785156 77.761719 296.554688 77.40625 C 296.320312 77.050781 295.921875 77.042969 295.648438 77.21875 C 295.375 77.390625 295.21875 77.753906 295.453125 78.109375 " fill-opacity="1" fill-rule="nonzero"/></g></g></g></g><g clip-path="url(#4dff818bc9)"><g clip-path="url(#0586fbfe76)"><g clip-path="url(#584e7339d9)"><g clip-path="url(#7b0fd483f4)"><path fill="#000000" d="M 298.238281 80.570312 C 298.054688 80.289062 297.738281 80.28125 297.523438 80.417969 C 297.308594 80.558594 297.183594 80.84375 297.371094 81.125 C 297.402344 81.171875 297.4375 81.210938 297.476562 81.246094 C 297.660156 81.402344 297.90625 81.390625 298.082031 81.273438 C 298.300781 81.136719 298.421875 80.851562 298.238281 80.570312 " fill-opacity="1" fill-rule="nonzero"/></g></g></g></g><g clip-path="url(#79fc98a212)"><g clip-path="url(#a8cab97226)"><g clip-path="url(#95fc8c314a)"><g clip-path="url(#bc317c6490)"><path fill="#000000" d="M 299.789062 78.175781 C 299.929688 78.171875 300.0625 78.085938 300.125 77.964844 C 300.183594 77.847656 300.175781 77.714844 300.097656 77.597656 C 300.023438 77.484375 299.902344 77.417969 299.773438 77.425781 C 299.632812 77.429688 299.5 77.515625 299.4375 77.636719 C 299.378906 77.753906 299.386719 77.886719 299.464844 78.003906 C 299.484375 78.035156 299.511719 78.066406 299.539062 78.089844 C 299.609375 78.148438 299.695312 78.179688 299.789062 78.175781 " fill-opacity="1" fill-rule="nonzero"/></g></g></g></g><g clip-path="url(#b6b92f2cad)"><g clip-path="url(#a56f99c4e3)"><g clip-path="url(#0d97da605c)"><g clip-path="url(#734a48b8ef)"><path fill="#000000" d="M 300.929688 73.054688 C 300.582031 72.523438 299.988281 72.511719 299.578125 72.769531 C 299.167969 73.03125 298.9375 73.574219 299.285156 74.105469 C 299.34375 74.195312 299.410156 74.269531 299.484375 74.332031 C 299.660156 74.484375 299.878906 74.5625 300.117188 74.550781 C 300.484375 74.539062 300.839844 74.308594 301.003906 73.984375 C 301.15625 73.6875 301.128906 73.355469 300.929688 73.054688 " fill-opacity="1" fill-rule="nonzero"/></g></g></g></g><g clip-path="url(#98e4aa30a7)"><g clip-path="url(#5538f6d912)"><g clip-path="url(#d79f5edab7)"><g clip-path="url(#568985f499)"><path fill="#000000" d="M 296.058594 71.703125 C 296.074219 71.730469 296.097656 71.757812 296.121094 71.777344 C 296.230469 71.871094 296.386719 71.882812 296.515625 71.800781 C 296.675781 71.699219 296.714844 71.503906 296.613281 71.347656 C 296.511719 71.191406 296.3125 71.148438 296.152344 71.25 C 295.996094 71.351562 295.953125 71.546875 296.058594 71.703125 " fill-opacity="1" fill-rule="nonzero"/></g></g></g></g><g clip-path="url(#72c08c1314)"><g clip-path="url(#93aaf45ad2)"><g clip-path="url(#bb1edb572a)"><g clip-path="url(#2227c7bb3a)"><path fill="#000000" d="M 303.875 75.1875 L 303.769531 75.03125 C 303.707031 74.933594 303.601562 74.867188 303.484375 74.84375 C 303.371094 74.820312 303.261719 74.839844 303.171875 74.902344 C 302.984375 75.039062 302.933594 75.292969 303.058594 75.488281 L 303.160156 75.644531 C 303.183594 75.675781 303.210938 75.707031 303.238281 75.734375 C 303.296875 75.78125 303.371094 75.816406 303.445312 75.832031 C 303.558594 75.855469 303.671875 75.835938 303.757812 75.773438 C 303.949219 75.636719 304 75.382812 303.875 75.1875 " fill-opacity="1" fill-rule="nonzero"/></g></g></g></g><g clip-path="url(#66e34d4ddf)"><g clip-path="url(#ad1f6af299)"><g clip-path="url(#2b22c177f2)"><g clip-path="url(#304b042626)"><path fill="#000000" d="M 308.378906 74.992188 C 308.03125 74.460938 307.433594 74.449219 307.027344 74.707031 C 306.617188 74.96875 306.382812 75.511719 306.730469 76.042969 C 306.792969 76.132812 306.859375 76.207031 306.929688 76.269531 C 307.277344 76.566406 307.746094 76.539062 308.085938 76.324219 C 308.492188 76.0625 308.726562 75.519531 308.378906 74.992188 " fill-opacity="1" fill-rule="nonzero"/></g></g></g></g><g clip-path="url(#714f3ae41d)"><g clip-path="url(#df9beef7e7)"><g clip-path="url(#31eab8e850)"><g clip-path="url(#26206f4c20)"><path fill="#000000" d="M 303.601562 78.863281 C 303.332031 78.453125 302.867188 78.441406 302.550781 78.644531 C 302.234375 78.847656 302.054688 79.269531 302.324219 79.679688 C 302.371094 79.75 302.421875 79.808594 302.476562 79.855469 C 302.746094 80.089844 303.109375 80.066406 303.375 79.898438 C 303.691406 79.695312 303.871094 79.277344 303.601562 78.863281 " fill-opacity="1" fill-rule="nonzero"/></g></g></g></g><g clip-path="url(#eee6c0a517)"><g clip-path="url(#e3f2439f3e)"><g clip-path="url(#7a5ecae71a)"><g clip-path="url(#e6041111c3)"><path fill="#000000" d="M 306.472656 70.625 C 306.519531 70.695312 306.570312 70.757812 306.628906 70.804688 C 306.898438 71.035156 307.261719 71.015625 307.523438 70.847656 C 307.839844 70.644531 308.019531 70.222656 307.75 69.8125 C 307.480469 69.398438 307.019531 69.390625 306.699219 69.589844 C 306.382812 69.792969 306.203125 70.214844 306.472656 70.625 " fill-opacity="1" fill-rule="nonzero"/></g></g></g></g><g clip-path="url(#961b2090e5)"><g clip-path="url(#5bf19d043b)"><g clip-path="url(#1e378cf29b)"><g clip-path="url(#5e95c32bf1)"><path fill="#000000" d="M 302.503906 68.5625 C 302.292969 68.242188 301.933594 68.234375 301.6875 68.390625 C 301.441406 68.546875 301.304688 68.875 301.511719 69.195312 C 301.546875 69.25 301.589844 69.292969 301.632812 69.332031 C 301.84375 69.511719 302.125 69.496094 302.328125 69.363281 C 302.574219 69.207031 302.710938 68.882812 302.503906 68.5625 " fill-opacity="1" fill-rule="nonzero"/></g></g></g></g><g clip-path="url(#e0a3c9eb76)"><g clip-path="url(#3241403fc1)"><g clip-path="url(#53f291a3fc)"><g clip-path="url(#dbd3c0d250)"><path fill="#000000" d="M 311.734375 70.71875 C 311.753906 70.75 311.777344 70.777344 311.804688 70.796875 C 311.871094 70.855469 311.949219 70.882812 312.039062 70.878906 C 312.167969 70.875 312.289062 70.796875 312.347656 70.683594 C 312.402344 70.574219 312.394531 70.449219 312.324219 70.34375 C 312.253906 70.234375 312.140625 70.175781 312.019531 70.179688 C 311.890625 70.183594 311.769531 70.261719 311.710938 70.378906 C 311.65625 70.488281 311.664062 70.609375 311.734375 70.71875 " fill-opacity="1" fill-rule="nonzero"/></g></g></g></g><g clip-path="url(#e0d7b25531)"><g clip-path="url(#7232dc0cdb)"><g clip-path="url(#aaf295a269)"><g clip-path="url(#f0d7f493c1)"><path fill="#000000" d="M 298.660156 84.972656 C 298.589844 84.867188 298.480469 84.808594 298.359375 84.8125 C 298.226562 84.816406 298.105469 84.894531 298.046875 85.007812 C 297.992188 85.117188 298 85.242188 298.070312 85.347656 C 298.09375 85.378906 298.117188 85.40625 298.140625 85.429688 C 298.207031 85.484375 298.289062 85.515625 298.375 85.511719 C 298.503906 85.503906 298.628906 85.429688 298.6875 85.3125 C 298.742188 85.203125 298.730469 85.082031 298.660156 84.972656 " fill-opacity="1" fill-rule="nonzero"/></g></g></g></g><g clip-path="url(#2267cbb8d1)"><g clip-path="url(#6b382ace64)"><g clip-path="url(#227c6c6ef8)"><g clip-path="url(#de975dc874)"><path fill="#000000" d="M 291.386719 82.550781 C 291.28125 82.386719 291.070312 82.339844 290.902344 82.449219 C 290.734375 82.554688 290.691406 82.761719 290.800781 82.929688 C 290.820312 82.960938 290.84375 82.984375 290.867188 83.007812 C 290.984375 83.105469 291.148438 83.121094 291.285156 83.03125 C 291.453125 82.925781 291.496094 82.71875 291.386719 82.550781 " fill-opacity="1" fill-rule="nonzero"/></g></g></g></g><g clip-path="url(#3cbe21721d)"><g clip-path="url(#ef42a41a85)"><g clip-path="url(#9eb7d80166)"><g clip-path="url(#7362200e93)"><g clip-path="url(#41b68d17b4)"><path fill="#000000" d="M 307.40625 77.777344 C 307.460938 77.667969 307.449219 77.546875 307.378906 77.4375 C 307.308594 77.332031 307.199219 77.273438 307.078125 77.277344 C 306.945312 77.28125 306.824219 77.359375 306.765625 77.472656 C 306.710938 77.582031 306.71875 77.707031 306.792969 77.8125 C 306.8125 77.84375 306.835938 77.871094 306.859375 77.894531 C 306.925781 77.949219 307.007812 77.980469 307.09375 77.976562 C 307.226562 77.96875 307.347656 77.894531 307.40625 77.777344 " fill-opacity="1" fill-rule="nonzero"/></g></g></g></g></g><g clip-path="url(#af50881e65)"><g clip-path="url(#5f88a9d882)"><g clip-path="url(#f62a614690)"><g clip-path="url(#e8c727d4a8)"><path fill="#000000" d="M 295.523438 66.28125 C 295.417969 66.113281 295.207031 66.070312 295.039062 66.175781 C 294.871094 66.285156 294.828125 66.492188 294.9375 66.65625 C 294.957031 66.6875 294.980469 66.714844 295.003906 66.734375 C 295.121094 66.835938 295.285156 66.847656 295.421875 66.761719 C 295.589844 66.652344 295.632812 66.449219 295.523438 66.28125 " fill-opacity="1" fill-rule="nonzero"/></g></g></g></g></svg>