<svg xmlns="http://www.w3.org/2000/svg" xmlns:xlink="http://www.w3.org/1999/xlink" width="500" zoomAndPan="magnify" viewBox="0 0 375 187.499995" height="250" preserveAspectRatio="xMidYMid meet" version="1.0"><defs><g/><clipPath id="35207e3fcf"><path d="M 271 45 L 299 45 L 299 94 L 271 94 Z M 271 45 " clip-rule="nonzero"/></clipPath><clipPath id="7844b4f5fc"><path d="M 307.757812 91.285156 L 279.730469 100.074219 L 263.078125 46.964844 L 291.109375 38.179688 Z M 307.757812 91.285156 " clip-rule="nonzero"/></clipPath><clipPath id="f7413e042d"><path d="M 279.0625 100.285156 L 307.089844 91.496094 L 290.441406 38.386719 L 262.410156 47.175781 Z M 279.0625 100.285156 " clip-rule="nonzero"/></clipPath><clipPath id="e4a18d8bba"><path d="M 292 54 L 314 54 L 314 95 L 292 95 Z M 292 54 " clip-rule="nonzero"/></clipPath><clipPath id="58c7d08d0d"><path d="M 309.269531 99.609375 L 285.355469 93.285156 L 297.210938 48.445312 L 321.125 54.769531 Z M 309.269531 99.609375 " clip-rule="nonzero"/></clipPath><clipPath id="6fcf8efdb5"><path d="M 285.167969 93.238281 L 309.085938 99.558594 L 320.9375 54.71875 L 297.023438 48.398438 Z M 285.167969 93.238281 " clip-rule="nonzero"/></clipPath><clipPath id="dc32ca0658"><path d="M 290 4 L 367 4 L 367 73 L 290 73 Z M 290 4 " clip-rule="nonzero"/></clipPath><clipPath id="d32e278d1c"><path d="M 285.167969 4.132812 L 366.746094 -3.539062 L 373.984375 73.425781 L 292.402344 81.09375 Z M 285.167969 4.132812 " clip-rule="nonzero"/></clipPath><clipPath id="b9f3de279a"><path d="M 285.167969 4.132812 L 366.746094 -3.539062 L 373.984375 73.425781 L 292.402344 81.09375 Z M 285.167969 4.132812 " clip-rule="nonzero"/></clipPath><clipPath id="4102bc24f5"><path d="M 261 67 L 304 67 L 304 99 L 261 99 Z M 261 67 " clip-rule="nonzero"/></clipPath><clipPath id="c8a8ece850"><path d="M 272.976562 106.972656 L 256.398438 70.351562 L 291.605469 54.410156 L 308.1875 91.027344 Z M 272.976562 106.972656 " clip-rule="nonzero"/></clipPath><clipPath id="9c7cca6ac5"><path d="M 272.976562 106.972656 L 256.398438 70.351562 L 291.605469 54.410156 L 308.1875 91.027344 Z M 272.976562 106.972656 " clip-rule="nonzero"/></clipPath><clipPath id="322a3664f2"><path d="M 292 88 L 294 88 L 294 90 L 292 90 Z M 292 88 " clip-rule="nonzero"/></clipPath><clipPath id="c6c7ce883c"><path d="M 279.050781 75.0625 L 292.792969 65.046875 L 308.273438 86.289062 L 294.527344 96.304688 Z M 279.050781 75.0625 " clip-rule="nonzero"/></clipPath><clipPath id="45b6dc53c2"><path d="M 279.050781 75.0625 L 292.792969 65.046875 L 308.273438 86.289062 L 294.527344 96.304688 Z M 279.050781 75.0625 " clip-rule="nonzero"/></clipPath><clipPath id="d33c9521da"><path d="M 279.050781 75.0625 L 292.792969 65.046875 L 308.273438 86.289062 L 294.527344 96.304688 Z M 279.050781 75.0625 " clip-rule="nonzero"/></clipPath><clipPath id="117e9b62cf"><path d="M 289 87 L 290 87 L 290 89 L 289 89 Z M 289 87 " clip-rule="nonzero"/></clipPath><clipPath id="ef7594dbb2"><path d="M 279.050781 75.0625 L 292.792969 65.046875 L 308.273438 86.289062 L 294.527344 96.304688 Z M 279.050781 75.0625 " clip-rule="nonzero"/></clipPath><clipPath id="dc0caf306b"><path d="M 279.050781 75.0625 L 292.792969 65.046875 L 308.273438 86.289062 L 294.527344 96.304688 Z M 279.050781 75.0625 " clip-rule="nonzero"/></clipPath><clipPath id="83f2ad322d"><path d="M 279.050781 75.0625 L 292.792969 65.046875 L 308.273438 86.289062 L 294.527344 96.304688 Z M 279.050781 75.0625 " clip-rule="nonzero"/></clipPath><clipPath id="f65d94b921"><path d="M 290 83 L 293 83 L 293 85 L 290 85 Z M 290 83 " clip-rule="nonzero"/></clipPath><clipPath id="22c5972034"><path d="M 279.050781 75.0625 L 292.792969 65.046875 L 308.273438 86.289062 L 294.527344 96.304688 Z M 279.050781 75.0625 " clip-rule="nonzero"/></clipPath><clipPath id="6240ba0523"><path d="M 279.050781 75.0625 L 292.792969 65.046875 L 308.273438 86.289062 L 294.527344 96.304688 Z M 279.050781 75.0625 " clip-rule="nonzero"/></clipPath><clipPath id="51590ce16b"><path d="M 279.050781 75.0625 L 292.792969 65.046875 L 308.273438 86.289062 L 294.527344 96.304688 Z M 279.050781 75.0625 " clip-rule="nonzero"/></clipPath><clipPath id="1b7801474e"><path d="M 296 85 L 299 85 L 299 88 L 296 88 Z M 296 85 " clip-rule="nonzero"/></clipPath><clipPath id="5a9a01d562"><path d="M 279.050781 75.0625 L 292.792969 65.046875 L 308.273438 86.289062 L 294.527344 96.304688 Z M 279.050781 75.0625 " clip-rule="nonzero"/></clipPath><clipPath id="5fa1a10119"><path d="M 279.050781 75.0625 L 292.792969 65.046875 L 308.273438 86.289062 L 294.527344 96.304688 Z M 279.050781 75.0625 " clip-rule="nonzero"/></clipPath><clipPath id="545db155bb"><path d="M 279.050781 75.0625 L 292.792969 65.046875 L 308.273438 86.289062 L 294.527344 96.304688 Z M 279.050781 75.0625 " clip-rule="nonzero"/></clipPath><clipPath id="dcc7b681a6"><path d="M 296 91 L 299 91 L 299 94 L 296 94 Z M 296 91 " clip-rule="nonzero"/></clipPath><clipPath id="2406b7484c"><path d="M 279.050781 75.0625 L 292.792969 65.046875 L 308.273438 86.289062 L 294.527344 96.304688 Z M 279.050781 75.0625 " clip-rule="nonzero"/></clipPath><clipPath id="0c7a8ab9d0"><path d="M 279.050781 75.0625 L 292.792969 65.046875 L 308.273438 86.289062 L 294.527344 96.304688 Z M 279.050781 75.0625 " clip-rule="nonzero"/></clipPath><clipPath id="4a886f958e"><path d="M 279.050781 75.0625 L 292.792969 65.046875 L 308.273438 86.289062 L 294.527344 96.304688 Z M 279.050781 75.0625 " clip-rule="nonzero"/></clipPath><clipPath id="bfe076cec6"><path d="M 295.738281 92.613281 L 297.589844 91.265625 L 298.914062 93.082031 L 297.0625 94.429688 Z M 295.738281 92.613281 " clip-rule="nonzero"/></clipPath><clipPath id="7b56eee47e"><path d="M 294 82 L 297 82 L 297 85 L 294 85 Z M 294 82 " clip-rule="nonzero"/></clipPath><clipPath id="7812b60c0e"><path d="M 279.050781 75.0625 L 292.792969 65.046875 L 308.273438 86.289062 L 294.527344 96.304688 Z M 279.050781 75.0625 " clip-rule="nonzero"/></clipPath><clipPath id="41900ab59d"><path d="M 279.050781 75.0625 L 292.792969 65.046875 L 308.273438 86.289062 L 294.527344 96.304688 Z M 279.050781 75.0625 " clip-rule="nonzero"/></clipPath><clipPath id="0890f43b19"><path d="M 279.050781 75.0625 L 292.792969 65.046875 L 308.273438 86.289062 L 294.527344 96.304688 Z M 279.050781 75.0625 " clip-rule="nonzero"/></clipPath><clipPath id="1afe43fc0b"><path d="M 298 81 L 300 81 L 300 83 L 298 83 Z M 298 81 " clip-rule="nonzero"/></clipPath><clipPath id="94aa275d3c"><path d="M 279.050781 75.0625 L 292.792969 65.046875 L 308.273438 86.289062 L 294.527344 96.304688 Z M 279.050781 75.0625 " clip-rule="nonzero"/></clipPath><clipPath id="0e2498b4e8"><path d="M 279.050781 75.0625 L 292.792969 65.046875 L 308.273438 86.289062 L 294.527344 96.304688 Z M 279.050781 75.0625 " clip-rule="nonzero"/></clipPath><clipPath id="99e3d4fbec"><path d="M 279.050781 75.0625 L 292.792969 65.046875 L 308.273438 86.289062 L 294.527344 96.304688 Z M 279.050781 75.0625 " clip-rule="nonzero"/></clipPath><clipPath id="ae151d7838"><path d="M 295 79 L 297 79 L 297 81 L 295 81 Z M 295 79 " clip-rule="nonzero"/></clipPath><clipPath id="e2ed55144b"><path d="M 279.050781 75.0625 L 292.792969 65.046875 L 308.273438 86.289062 L 294.527344 96.304688 Z M 279.050781 75.0625 " clip-rule="nonzero"/></clipPath><clipPath id="1bea2aea38"><path d="M 279.050781 75.0625 L 292.792969 65.046875 L 308.273438 86.289062 L 294.527344 96.304688 Z M 279.050781 75.0625 " clip-rule="nonzero"/></clipPath><clipPath id="b8e1b51744"><path d="M 279.050781 75.0625 L 292.792969 65.046875 L 308.273438 86.289062 L 294.527344 96.304688 Z M 279.050781 75.0625 " clip-rule="nonzero"/></clipPath><clipPath id="75dbae5166"><path d="M 291 77 L 294 77 L 294 80 L 291 80 Z M 291 77 " clip-rule="nonzero"/></clipPath><clipPath id="e45e2e400b"><path d="M 279.050781 75.0625 L 292.792969 65.046875 L 308.273438 86.289062 L 294.527344 96.304688 Z M 279.050781 75.0625 " clip-rule="nonzero"/></clipPath><clipPath id="43c16ab3eb"><path d="M 279.050781 75.0625 L 292.792969 65.046875 L 308.273438 86.289062 L 294.527344 96.304688 Z M 279.050781 75.0625 " clip-rule="nonzero"/></clipPath><clipPath id="a41537d4e6"><path d="M 279.050781 75.0625 L 292.792969 65.046875 L 308.273438 86.289062 L 294.527344 96.304688 Z M 279.050781 75.0625 " clip-rule="nonzero"/></clipPath><clipPath id="4fd167ae9e"><path d="M 289 81 L 290 81 L 290 82 L 289 82 Z M 289 81 " clip-rule="nonzero"/></clipPath><clipPath id="5306a6849e"><path d="M 279.050781 75.0625 L 292.792969 65.046875 L 308.273438 86.289062 L 294.527344 96.304688 Z M 279.050781 75.0625 " clip-rule="nonzero"/></clipPath><clipPath id="54b07d5e9a"><path d="M 279.050781 75.0625 L 292.792969 65.046875 L 308.273438 86.289062 L 294.527344 96.304688 Z M 279.050781 75.0625 " clip-rule="nonzero"/></clipPath><clipPath id="1e5ad21749"><path d="M 279.050781 75.0625 L 292.792969 65.046875 L 308.273438 86.289062 L 294.527344 96.304688 Z M 279.050781 75.0625 " clip-rule="nonzero"/></clipPath><clipPath id="e4cdd83405"><path d="M 294 75 L 296 75 L 296 76 L 294 76 Z M 294 75 " clip-rule="nonzero"/></clipPath><clipPath id="edac0ac157"><path d="M 279.050781 75.0625 L 292.792969 65.046875 L 308.273438 86.289062 L 294.527344 96.304688 Z M 279.050781 75.0625 " clip-rule="nonzero"/></clipPath><clipPath id="f3db5336df"><path d="M 279.050781 75.0625 L 292.792969 65.046875 L 308.273438 86.289062 L 294.527344 96.304688 Z M 279.050781 75.0625 " clip-rule="nonzero"/></clipPath><clipPath id="c0ec6ae9bf"><path d="M 279.050781 75.0625 L 292.792969 65.046875 L 308.273438 86.289062 L 294.527344 96.304688 Z M 279.050781 75.0625 " clip-rule="nonzero"/></clipPath><clipPath id="9040f3b39b"><path d="M 294 70 L 297 70 L 297 73 L 294 73 Z M 294 70 " clip-rule="nonzero"/></clipPath><clipPath id="5511db7e46"><path d="M 279.050781 75.0625 L 292.792969 65.046875 L 308.273438 86.289062 L 294.527344 96.304688 Z M 279.050781 75.0625 " clip-rule="nonzero"/></clipPath><clipPath id="c18e317e8f"><path d="M 279.050781 75.0625 L 292.792969 65.046875 L 308.273438 86.289062 L 294.527344 96.304688 Z M 279.050781 75.0625 " clip-rule="nonzero"/></clipPath><clipPath id="b2f6ac7019"><path d="M 279.050781 75.0625 L 292.792969 65.046875 L 308.273438 86.289062 L 294.527344 96.304688 Z M 279.050781 75.0625 " clip-rule="nonzero"/></clipPath><clipPath id="f8ecf108aa"><path d="M 297 76 L 300 76 L 300 78 L 297 78 Z M 297 76 " clip-rule="nonzero"/></clipPath><clipPath id="79edac52de"><path d="M 279.050781 75.0625 L 292.792969 65.046875 L 308.273438 86.289062 L 294.527344 96.304688 Z M 279.050781 75.0625 " clip-rule="nonzero"/></clipPath><clipPath id="2b5078f18c"><path d="M 279.050781 75.0625 L 292.792969 65.046875 L 308.273438 86.289062 L 294.527344 96.304688 Z M 279.050781 75.0625 " clip-rule="nonzero"/></clipPath><clipPath id="a72759e604"><path d="M 279.050781 75.0625 L 292.792969 65.046875 L 308.273438 86.289062 L 294.527344 96.304688 Z M 279.050781 75.0625 " clip-rule="nonzero"/></clipPath><clipPath id="e174f5d32f"><path d="M 289 70 L 292 70 L 292 72 L 289 72 Z M 289 70 " clip-rule="nonzero"/></clipPath><clipPath id="4ef0a34ca0"><path d="M 279.050781 75.0625 L 292.792969 65.046875 L 308.273438 86.289062 L 294.527344 96.304688 Z M 279.050781 75.0625 " clip-rule="nonzero"/></clipPath><clipPath id="9e7d4d3744"><path d="M 279.050781 75.0625 L 292.792969 65.046875 L 308.273438 86.289062 L 294.527344 96.304688 Z M 279.050781 75.0625 " clip-rule="nonzero"/></clipPath><clipPath id="3df19857c9"><path d="M 279.050781 75.0625 L 292.792969 65.046875 L 308.273438 86.289062 L 294.527344 96.304688 Z M 279.050781 75.0625 " clip-rule="nonzero"/></clipPath><clipPath id="4cfaf7f14e"><path d="M 287 74 L 289 74 L 289 77 L 287 77 Z M 287 74 " clip-rule="nonzero"/></clipPath><clipPath id="7a352d871a"><path d="M 279.050781 75.0625 L 292.792969 65.046875 L 308.273438 86.289062 L 294.527344 96.304688 Z M 279.050781 75.0625 " clip-rule="nonzero"/></clipPath><clipPath id="ab4d0a2cb3"><path d="M 279.050781 75.0625 L 292.792969 65.046875 L 308.273438 86.289062 L 294.527344 96.304688 Z M 279.050781 75.0625 " clip-rule="nonzero"/></clipPath><clipPath id="2952a83ea4"><path d="M 279.050781 75.0625 L 292.792969 65.046875 L 308.273438 86.289062 L 294.527344 96.304688 Z M 279.050781 75.0625 " clip-rule="nonzero"/></clipPath><clipPath id="9c48bf5005"><path d="M 291 65 L 293 65 L 293 67 L 291 67 Z M 291 65 " clip-rule="nonzero"/></clipPath><clipPath id="61365e2982"><path d="M 279.050781 75.0625 L 292.792969 65.046875 L 308.273438 86.289062 L 294.527344 96.304688 Z M 279.050781 75.0625 " clip-rule="nonzero"/></clipPath><clipPath id="70a6b62208"><path d="M 279.050781 75.0625 L 292.792969 65.046875 L 308.273438 86.289062 L 294.527344 96.304688 Z M 279.050781 75.0625 " clip-rule="nonzero"/></clipPath><clipPath id="21d723b019"><path d="M 279.050781 75.0625 L 292.792969 65.046875 L 308.273438 86.289062 L 294.527344 96.304688 Z M 279.050781 75.0625 " clip-rule="nonzero"/></clipPath><clipPath id="61260512f9"><path d="M 302 82 L 304 82 L 304 84 L 302 84 Z M 302 82 " clip-rule="nonzero"/></clipPath><clipPath id="f23bf33e73"><path d="M 279.050781 75.0625 L 292.792969 65.046875 L 308.273438 86.289062 L 294.527344 96.304688 Z M 279.050781 75.0625 " clip-rule="nonzero"/></clipPath><clipPath id="6fbce7d4a6"><path d="M 279.050781 75.0625 L 292.792969 65.046875 L 308.273438 86.289062 L 294.527344 96.304688 Z M 279.050781 75.0625 " clip-rule="nonzero"/></clipPath><clipPath id="53daf12a97"><path d="M 279.050781 75.0625 L 292.792969 65.046875 L 308.273438 86.289062 L 294.527344 96.304688 Z M 279.050781 75.0625 " clip-rule="nonzero"/></clipPath><clipPath id="609b5e8612"><path d="M 298 88 L 300 88 L 300 90 L 298 90 Z M 298 88 " clip-rule="nonzero"/></clipPath><clipPath id="5798434cb3"><path d="M 279.050781 75.0625 L 292.792969 65.046875 L 308.273438 86.289062 L 294.527344 96.304688 Z M 279.050781 75.0625 " clip-rule="nonzero"/></clipPath><clipPath id="ec11e558fd"><path d="M 279.050781 75.0625 L 292.792969 65.046875 L 308.273438 86.289062 L 294.527344 96.304688 Z M 279.050781 75.0625 " clip-rule="nonzero"/></clipPath><clipPath id="c2a71a5747"><path d="M 279.050781 75.0625 L 292.792969 65.046875 L 308.273438 86.289062 L 294.527344 96.304688 Z M 279.050781 75.0625 " clip-rule="nonzero"/></clipPath><clipPath id="e502935459"><path d="M 297 72 L 299 72 L 299 73 L 297 73 Z M 297 72 " clip-rule="nonzero"/></clipPath><clipPath id="e30c2fef03"><path d="M 279.050781 75.0625 L 292.792969 65.046875 L 308.273438 86.289062 L 294.527344 96.304688 Z M 279.050781 75.0625 " clip-rule="nonzero"/></clipPath><clipPath id="2856810500"><path d="M 279.050781 75.0625 L 292.792969 65.046875 L 308.273438 86.289062 L 294.527344 96.304688 Z M 279.050781 75.0625 " clip-rule="nonzero"/></clipPath><clipPath id="425873f6f5"><path d="M 279.050781 75.0625 L 292.792969 65.046875 L 308.273438 86.289062 L 294.527344 96.304688 Z M 279.050781 75.0625 " clip-rule="nonzero"/></clipPath><clipPath id="451484fcdb"><path d="M 297.308594 72.445312 L 297.882812 72.027344 L 298.324219 72.632812 L 297.746094 73.050781 Z M 297.308594 72.445312 " clip-rule="nonzero"/></clipPath><clipPath id="1cc8bae289"><path d="M 283 81 L 285 81 L 285 82 L 283 82 Z M 283 81 " clip-rule="nonzero"/></clipPath><clipPath id="72a46bf9fd"><path d="M 279.050781 75.0625 L 292.792969 65.046875 L 308.273438 86.289062 L 294.527344 96.304688 Z M 279.050781 75.0625 " clip-rule="nonzero"/></clipPath><clipPath id="d276513130"><path d="M 279.050781 75.0625 L 292.792969 65.046875 L 308.273438 86.289062 L 294.527344 96.304688 Z M 279.050781 75.0625 " clip-rule="nonzero"/></clipPath><clipPath id="1230f34b94"><path d="M 279.050781 75.0625 L 292.792969 65.046875 L 308.273438 86.289062 L 294.527344 96.304688 Z M 279.050781 75.0625 " clip-rule="nonzero"/></clipPath><clipPath id="3c3bef26ee"><path d="M 289 86 L 291 86 L 291 88 L 289 88 Z M 289 86 " clip-rule="nonzero"/></clipPath><clipPath id="1ad58eaeb9"><path d="M 270.859375 86.558594 L 273.871094 69.824219 L 299.738281 74.480469 L 296.726562 91.214844 Z M 270.859375 86.558594 " clip-rule="nonzero"/></clipPath><clipPath id="c51b30f5d8"><path d="M 270.859375 86.558594 L 273.871094 69.824219 L 299.738281 74.480469 L 296.726562 91.214844 Z M 270.859375 86.558594 " clip-rule="nonzero"/></clipPath><clipPath id="834a1bb1e5"><path d="M 286 88 L 288 88 L 288 89 L 286 89 Z M 286 88 " clip-rule="nonzero"/></clipPath><clipPath id="4d373711ab"><path d="M 270.859375 86.558594 L 273.871094 69.824219 L 299.738281 74.480469 L 296.726562 91.214844 Z M 270.859375 86.558594 " clip-rule="nonzero"/></clipPath><clipPath id="35189973dd"><path d="M 270.859375 86.558594 L 273.871094 69.824219 L 299.738281 74.480469 L 296.726562 91.214844 Z M 270.859375 86.558594 " clip-rule="nonzero"/></clipPath><clipPath id="faa2b42675"><path d="M 285 83 L 287 83 L 287 86 L 285 86 Z M 285 83 " clip-rule="nonzero"/></clipPath><clipPath id="bc46a33ea3"><path d="M 270.859375 86.558594 L 273.871094 69.824219 L 299.738281 74.480469 L 296.726562 91.214844 Z M 270.859375 86.558594 " clip-rule="nonzero"/></clipPath><clipPath id="ed1d52f00c"><path d="M 270.859375 86.558594 L 273.871094 69.824219 L 299.738281 74.480469 L 296.726562 91.214844 Z M 270.859375 86.558594 " clip-rule="nonzero"/></clipPath><clipPath id="5feff6678d"><path d="M 291 81 L 293 81 L 293 83 L 291 83 Z M 291 81 " clip-rule="nonzero"/></clipPath><clipPath id="8c1f41aa90"><path d="M 270.859375 86.558594 L 273.871094 69.824219 L 299.738281 74.480469 L 296.726562 91.214844 Z M 270.859375 86.558594 " clip-rule="nonzero"/></clipPath><clipPath id="992dacb505"><path d="M 270.859375 86.558594 L 273.871094 69.824219 L 299.738281 74.480469 L 296.726562 91.214844 Z M 270.859375 86.558594 " clip-rule="nonzero"/></clipPath><clipPath id="b40d7cc327"><path d="M 295 85 L 298 85 L 298 88 L 295 88 Z M 295 85 " clip-rule="nonzero"/></clipPath><clipPath id="4b25db85a3"><path d="M 270.859375 86.558594 L 273.871094 69.824219 L 299.738281 74.480469 L 296.726562 91.214844 Z M 270.859375 86.558594 " clip-rule="nonzero"/></clipPath><clipPath id="5d39da02b8"><path d="M 270.859375 86.558594 L 273.871094 69.824219 L 299.738281 74.480469 L 296.726562 91.214844 Z M 270.859375 86.558594 " clip-rule="nonzero"/></clipPath><clipPath id="293d8cda94"><path d="M 294.863281 87.769531 L 295.253906 85.578125 L 297.453125 85.972656 L 297.058594 88.164062 Z M 294.863281 87.769531 " clip-rule="nonzero"/></clipPath><clipPath id="ad910f3a12"><path d="M 287 80 L 289 80 L 289 83 L 287 83 Z M 287 80 " clip-rule="nonzero"/></clipPath><clipPath id="d548d03c3e"><path d="M 270.859375 86.558594 L 273.871094 69.824219 L 299.738281 74.480469 L 296.726562 91.214844 Z M 270.859375 86.558594 " clip-rule="nonzero"/></clipPath><clipPath id="c17e30f196"><path d="M 270.859375 86.558594 L 273.871094 69.824219 L 299.738281 74.480469 L 296.726562 91.214844 Z M 270.859375 86.558594 " clip-rule="nonzero"/></clipPath><clipPath id="5a7a9fc528"><path d="M 289 77 L 291 77 L 291 79 L 289 79 Z M 289 77 " clip-rule="nonzero"/></clipPath><clipPath id="dbcb6d1b11"><path d="M 270.859375 86.558594 L 273.871094 69.824219 L 299.738281 74.480469 L 296.726562 91.214844 Z M 270.859375 86.558594 " clip-rule="nonzero"/></clipPath><clipPath id="2ba71323cb"><path d="M 270.859375 86.558594 L 273.871094 69.824219 L 299.738281 74.480469 L 296.726562 91.214844 Z M 270.859375 86.558594 " clip-rule="nonzero"/></clipPath><clipPath id="3dc18f7d68"><path d="M 285 77 L 287 77 L 287 79 L 285 79 Z M 285 77 " clip-rule="nonzero"/></clipPath><clipPath id="be2a597288"><path d="M 270.859375 86.558594 L 273.871094 69.824219 L 299.738281 74.480469 L 296.726562 91.214844 Z M 270.859375 86.558594 " clip-rule="nonzero"/></clipPath><clipPath id="202dda1327"><path d="M 270.859375 86.558594 L 273.871094 69.824219 L 299.738281 74.480469 L 296.726562 91.214844 Z M 270.859375 86.558594 " clip-rule="nonzero"/></clipPath><clipPath id="45ab13df6b"><path d="M 281 79 L 284 79 L 284 82 L 281 82 Z M 281 79 " clip-rule="nonzero"/></clipPath><clipPath id="4b1e4c427d"><path d="M 270.859375 86.558594 L 273.871094 69.824219 L 299.738281 74.480469 L 296.726562 91.214844 Z M 270.859375 86.558594 " clip-rule="nonzero"/></clipPath><clipPath id="a3e295576a"><path d="M 270.859375 86.558594 L 273.871094 69.824219 L 299.738281 74.480469 L 296.726562 91.214844 Z M 270.859375 86.558594 " clip-rule="nonzero"/></clipPath><clipPath id="74f727ec6d"><path d="M 282 83 L 284 83 L 284 85 L 282 85 Z M 282 83 " clip-rule="nonzero"/></clipPath><clipPath id="9d602dc290"><path d="M 270.859375 86.558594 L 273.871094 69.824219 L 299.738281 74.480469 L 296.726562 91.214844 Z M 270.859375 86.558594 " clip-rule="nonzero"/></clipPath><clipPath id="66b634f5ed"><path d="M 270.859375 86.558594 L 273.871094 69.824219 L 299.738281 74.480469 L 296.726562 91.214844 Z M 270.859375 86.558594 " clip-rule="nonzero"/></clipPath><clipPath id="5b28ae84bf"><path d="M 281 75 L 283 75 L 283 77 L 281 77 Z M 281 75 " clip-rule="nonzero"/></clipPath><clipPath id="033f6c25b3"><path d="M 270.859375 86.558594 L 273.871094 69.824219 L 299.738281 74.480469 L 296.726562 91.214844 Z M 270.859375 86.558594 " clip-rule="nonzero"/></clipPath><clipPath id="c63893136c"><path d="M 270.859375 86.558594 L 273.871094 69.824219 L 299.738281 74.480469 L 296.726562 91.214844 Z M 270.859375 86.558594 " clip-rule="nonzero"/></clipPath><clipPath id="95f8b0b71e"><path d="M 279 71 L 282 71 L 282 74 L 279 74 Z M 279 71 " clip-rule="nonzero"/></clipPath><clipPath id="9adb735873"><path d="M 270.859375 86.558594 L 273.871094 69.824219 L 299.738281 74.480469 L 296.726562 91.214844 Z M 270.859375 86.558594 " clip-rule="nonzero"/></clipPath><clipPath id="8ccba2acb9"><path d="M 270.859375 86.558594 L 273.871094 69.824219 L 299.738281 74.480469 L 296.726562 91.214844 Z M 270.859375 86.558594 " clip-rule="nonzero"/></clipPath><clipPath id="ce9911fe2b"><path d="M 285 74 L 287 74 L 287 76 L 285 76 Z M 285 74 " clip-rule="nonzero"/></clipPath><clipPath id="08c6d51737"><path d="M 270.859375 86.558594 L 273.871094 69.824219 L 299.738281 74.480469 L 296.726562 91.214844 Z M 270.859375 86.558594 " clip-rule="nonzero"/></clipPath><clipPath id="5887686080"><path d="M 270.859375 86.558594 L 273.871094 69.824219 L 299.738281 74.480469 L 296.726562 91.214844 Z M 270.859375 86.558594 " clip-rule="nonzero"/></clipPath><clipPath id="6e5c349fbf"><path d="M 275 75 L 277 75 L 277 77 L 275 77 Z M 275 75 " clip-rule="nonzero"/></clipPath><clipPath id="11b8f376c4"><path d="M 270.859375 86.558594 L 273.871094 69.824219 L 299.738281 74.480469 L 296.726562 91.214844 Z M 270.859375 86.558594 " clip-rule="nonzero"/></clipPath><clipPath id="b627217206"><path d="M 270.859375 86.558594 L 273.871094 69.824219 L 299.738281 74.480469 L 296.726562 91.214844 Z M 270.859375 86.558594 " clip-rule="nonzero"/></clipPath><clipPath id="ab916fe73b"><path d="M 277 80 L 279 80 L 279 82 L 277 82 Z M 277 80 " clip-rule="nonzero"/></clipPath><clipPath id="4af329e19d"><path d="M 270.859375 86.558594 L 273.871094 69.824219 L 299.738281 74.480469 L 296.726562 91.214844 Z M 270.859375 86.558594 " clip-rule="nonzero"/></clipPath><clipPath id="d4a34b45b1"><path d="M 270.859375 86.558594 L 273.871094 69.824219 L 299.738281 74.480469 L 296.726562 91.214844 Z M 270.859375 86.558594 " clip-rule="nonzero"/></clipPath><clipPath id="5428ae9096"><path d="M 273 71 L 275 71 L 275 72 L 273 72 Z M 273 71 " clip-rule="nonzero"/></clipPath><clipPath id="2c3a258462"><path d="M 270.859375 86.558594 L 273.871094 69.824219 L 299.738281 74.480469 L 296.726562 91.214844 Z M 270.859375 86.558594 " clip-rule="nonzero"/></clipPath><clipPath id="2e28751018"><path d="M 270.859375 86.558594 L 273.871094 69.824219 L 299.738281 74.480469 L 296.726562 91.214844 Z M 270.859375 86.558594 " clip-rule="nonzero"/></clipPath><clipPath id="0f2b2d7bc2"><path d="M 293 75 L 294 75 L 294 77 L 293 77 Z M 293 75 " clip-rule="nonzero"/></clipPath><clipPath id="7a9f29edd0"><path d="M 270.859375 86.558594 L 273.871094 69.824219 L 299.738281 74.480469 L 296.726562 91.214844 Z M 270.859375 86.558594 " clip-rule="nonzero"/></clipPath><clipPath id="0781ade53d"><path d="M 270.859375 86.558594 L 273.871094 69.824219 L 299.738281 74.480469 L 296.726562 91.214844 Z M 270.859375 86.558594 " clip-rule="nonzero"/></clipPath><clipPath id="c18c7ecffe"><path d="M 294 82 L 296 82 L 296 84 L 294 84 Z M 294 82 " clip-rule="nonzero"/></clipPath><clipPath id="f5b32cb1e1"><path d="M 270.859375 86.558594 L 273.871094 69.824219 L 299.738281 74.480469 L 296.726562 91.214844 Z M 270.859375 86.558594 " clip-rule="nonzero"/></clipPath><clipPath id="5cda975f17"><path d="M 270.859375 86.558594 L 273.871094 69.824219 L 299.738281 74.480469 L 296.726562 91.214844 Z M 270.859375 86.558594 " clip-rule="nonzero"/></clipPath><clipPath id="427a6e5ef9"><path d="M 282 71 L 283 71 L 283 73 L 282 73 Z M 282 71 " clip-rule="nonzero"/></clipPath><clipPath id="5919ab06e0"><path d="M 270.859375 86.558594 L 273.871094 69.824219 L 299.738281 74.480469 L 296.726562 91.214844 Z M 270.859375 86.558594 " clip-rule="nonzero"/></clipPath><clipPath id="c071a0206a"><path d="M 270.859375 86.558594 L 273.871094 69.824219 L 299.738281 74.480469 L 296.726562 91.214844 Z M 270.859375 86.558594 " clip-rule="nonzero"/></clipPath><clipPath id="8ee51e450f"><path d="M 282.105469 72.496094 L 282.226562 71.816406 L 282.957031 71.945312 L 282.835938 72.625 Z M 282.105469 72.496094 " clip-rule="nonzero"/></clipPath><clipPath id="5826d7149c"><path d="M 278 87 L 280 87 L 280 88 L 278 88 Z M 278 87 " clip-rule="nonzero"/></clipPath><clipPath id="f0be6b048f"><path d="M 270.859375 86.558594 L 273.871094 69.824219 L 299.738281 74.480469 L 296.726562 91.214844 Z M 270.859375 86.558594 " clip-rule="nonzero"/></clipPath><clipPath id="410c56de77"><path d="M 270.859375 86.558594 L 273.871094 69.824219 L 299.738281 74.480469 L 296.726562 91.214844 Z M 270.859375 86.558594 " clip-rule="nonzero"/></clipPath><clipPath id="f28ca341b8"><path d="M 290 76 L 292 76 L 292 78 L 290 78 Z M 290 76 " clip-rule="nonzero"/></clipPath><clipPath id="6cd95a017b"><path d="M 301.695312 60.625 L 314.597656 71.703125 L 297.480469 91.644531 L 284.574219 80.566406 Z M 301.695312 60.625 " clip-rule="nonzero"/></clipPath><clipPath id="a94ebfdd5d"><path d="M 301.695312 60.625 L 314.597656 71.703125 L 297.480469 91.644531 L 284.574219 80.566406 Z M 301.695312 60.625 " clip-rule="nonzero"/></clipPath><clipPath id="5836cbd01f"><path d="M 291 73 L 293 73 L 293 74 L 291 74 Z M 291 73 " clip-rule="nonzero"/></clipPath><clipPath id="e34bf2184b"><path d="M 301.695312 60.625 L 314.597656 71.703125 L 297.480469 91.644531 L 284.574219 80.566406 Z M 301.695312 60.625 " clip-rule="nonzero"/></clipPath><clipPath id="9384854da4"><path d="M 301.695312 60.625 L 314.597656 71.703125 L 297.480469 91.644531 L 284.574219 80.566406 Z M 301.695312 60.625 " clip-rule="nonzero"/></clipPath><clipPath id="1bb9bdaf6b"><path d="M 295 73 L 297 73 L 297 76 L 295 76 Z M 295 73 " clip-rule="nonzero"/></clipPath><clipPath id="f7d2ca5a25"><path d="M 301.695312 60.625 L 314.597656 71.703125 L 297.480469 91.644531 L 284.574219 80.566406 Z M 301.695312 60.625 " clip-rule="nonzero"/></clipPath><clipPath id="8208023c89"><path d="M 301.695312 60.625 L 314.597656 71.703125 L 297.480469 91.644531 L 284.574219 80.566406 Z M 301.695312 60.625 " clip-rule="nonzero"/></clipPath><clipPath id="e9b2f42f86"><path d="M 294 80 L 296 80 L 296 82 L 294 82 Z M 294 80 " clip-rule="nonzero"/></clipPath><clipPath id="ca67f497dc"><path d="M 301.695312 60.625 L 314.597656 71.703125 L 297.480469 91.644531 L 284.574219 80.566406 Z M 301.695312 60.625 " clip-rule="nonzero"/></clipPath><clipPath id="1c4e361e5a"><path d="M 301.695312 60.625 L 314.597656 71.703125 L 297.480469 91.644531 L 284.574219 80.566406 Z M 301.695312 60.625 " clip-rule="nonzero"/></clipPath><clipPath id="9fef97dcbe"><path d="M 287 81 L 290 81 L 290 84 L 287 84 Z M 287 81 " clip-rule="nonzero"/></clipPath><clipPath id="943d55c69d"><path d="M 301.695312 60.625 L 314.597656 71.703125 L 297.480469 91.644531 L 284.574219 80.566406 Z M 301.695312 60.625 " clip-rule="nonzero"/></clipPath><clipPath id="b03ed06028"><path d="M 301.695312 60.625 L 314.597656 71.703125 L 297.480469 91.644531 L 284.574219 80.566406 Z M 301.695312 60.625 " clip-rule="nonzero"/></clipPath><clipPath id="852dd3419c"><path d="M 288.492188 80.707031 L 290.183594 82.15625 L 288.726562 83.851562 L 287.039062 82.398438 Z M 288.492188 80.707031 " clip-rule="nonzero"/></clipPath><clipPath id="5e965deb2f"><path d="M 296 77 L 298 77 L 298 79 L 296 79 Z M 296 77 " clip-rule="nonzero"/></clipPath><clipPath id="81c0631efc"><path d="M 301.695312 60.625 L 314.597656 71.703125 L 297.480469 91.644531 L 284.574219 80.566406 Z M 301.695312 60.625 " clip-rule="nonzero"/></clipPath><clipPath id="5a70fe5f94"><path d="M 301.695312 60.625 L 314.597656 71.703125 L 297.480469 91.644531 L 284.574219 80.566406 Z M 301.695312 60.625 " clip-rule="nonzero"/></clipPath><clipPath id="d6980d5a01"><path d="M 298 80 L 300 80 L 300 82 L 298 82 Z M 298 80 " clip-rule="nonzero"/></clipPath><clipPath id="dd3230861b"><path d="M 301.695312 60.625 L 314.597656 71.703125 L 297.480469 91.644531 L 284.574219 80.566406 Z M 301.695312 60.625 " clip-rule="nonzero"/></clipPath><clipPath id="aff73aeef5"><path d="M 301.695312 60.625 L 314.597656 71.703125 L 297.480469 91.644531 L 284.574219 80.566406 Z M 301.695312 60.625 " clip-rule="nonzero"/></clipPath><clipPath id="64d48f33c9"><path d="M 300 77 L 302 77 L 302 79 L 300 79 Z M 300 77 " clip-rule="nonzero"/></clipPath><clipPath id="9ed53705a4"><path d="M 301.695312 60.625 L 314.597656 71.703125 L 297.480469 91.644531 L 284.574219 80.566406 Z M 301.695312 60.625 " clip-rule="nonzero"/></clipPath><clipPath id="e5e8bf5adc"><path d="M 301.695312 60.625 L 314.597656 71.703125 L 297.480469 91.644531 L 284.574219 80.566406 Z M 301.695312 60.625 " clip-rule="nonzero"/></clipPath><clipPath id="3c6cf11495"><path d="M 300 73 L 303 73 L 303 75 L 300 75 Z M 300 73 " clip-rule="nonzero"/></clipPath><clipPath id="664353b384"><path d="M 301.695312 60.625 L 314.597656 71.703125 L 297.480469 91.644531 L 284.574219 80.566406 Z M 301.695312 60.625 " clip-rule="nonzero"/></clipPath><clipPath id="ad3d10a4e8"><path d="M 301.695312 60.625 L 314.597656 71.703125 L 297.480469 91.644531 L 284.574219 80.566406 Z M 301.695312 60.625 " clip-rule="nonzero"/></clipPath><clipPath id="4f0654ce14"><path d="M 297 71 L 299 71 L 299 73 L 297 73 Z M 297 71 " clip-rule="nonzero"/></clipPath><clipPath id="6aa412740f"><path d="M 301.695312 60.625 L 314.597656 71.703125 L 297.480469 91.644531 L 284.574219 80.566406 Z M 301.695312 60.625 " clip-rule="nonzero"/></clipPath><clipPath id="5865fbe053"><path d="M 301.695312 60.625 L 314.597656 71.703125 L 297.480469 91.644531 L 284.574219 80.566406 Z M 301.695312 60.625 " clip-rule="nonzero"/></clipPath><clipPath id="e4384e18f5"><path d="M 304 75 L 306 75 L 306 77 L 304 77 Z M 304 75 " clip-rule="nonzero"/></clipPath><clipPath id="bb4e3ab92c"><path d="M 301.695312 60.625 L 314.597656 71.703125 L 297.480469 91.644531 L 284.574219 80.566406 Z M 301.695312 60.625 " clip-rule="nonzero"/></clipPath><clipPath id="6c287e41e6"><path d="M 301.695312 60.625 L 314.597656 71.703125 L 297.480469 91.644531 L 284.574219 80.566406 Z M 301.695312 60.625 " clip-rule="nonzero"/></clipPath><clipPath id="193f50f33a"><path d="M 307 74 L 310 74 L 310 77 L 307 77 Z M 307 74 " clip-rule="nonzero"/></clipPath><clipPath id="e8f859750d"><path d="M 301.695312 60.625 L 314.597656 71.703125 L 297.480469 91.644531 L 284.574219 80.566406 Z M 301.695312 60.625 " clip-rule="nonzero"/></clipPath><clipPath id="d327bcddfe"><path d="M 301.695312 60.625 L 314.597656 71.703125 L 297.480469 91.644531 L 284.574219 80.566406 Z M 301.695312 60.625 " clip-rule="nonzero"/></clipPath><clipPath id="2b92099f83"><path d="M 303 78 L 305 78 L 305 81 L 303 81 Z M 303 78 " clip-rule="nonzero"/></clipPath><clipPath id="be729e64dd"><path d="M 301.695312 60.625 L 314.597656 71.703125 L 297.480469 91.644531 L 284.574219 80.566406 Z M 301.695312 60.625 " clip-rule="nonzero"/></clipPath><clipPath id="3154add8d1"><path d="M 301.695312 60.625 L 314.597656 71.703125 L 297.480469 91.644531 L 284.574219 80.566406 Z M 301.695312 60.625 " clip-rule="nonzero"/></clipPath><clipPath id="c06cf64293"><path d="M 307 69 L 310 69 L 310 72 L 307 72 Z M 307 69 " clip-rule="nonzero"/></clipPath><clipPath id="606a6b1565"><path d="M 301.695312 60.625 L 314.597656 71.703125 L 297.480469 91.644531 L 284.574219 80.566406 Z M 301.695312 60.625 " clip-rule="nonzero"/></clipPath><clipPath id="d31fd80a38"><path d="M 301.695312 60.625 L 314.597656 71.703125 L 297.480469 91.644531 L 284.574219 80.566406 Z M 301.695312 60.625 " clip-rule="nonzero"/></clipPath><clipPath id="a51cfbff1c"><path d="M 302 68 L 304 68 L 304 70 L 302 70 Z M 302 68 " clip-rule="nonzero"/></clipPath><clipPath id="b00b004409"><path d="M 301.695312 60.625 L 314.597656 71.703125 L 297.480469 91.644531 L 284.574219 80.566406 Z M 301.695312 60.625 " clip-rule="nonzero"/></clipPath><clipPath id="c1527a7b88"><path d="M 301.695312 60.625 L 314.597656 71.703125 L 297.480469 91.644531 L 284.574219 80.566406 Z M 301.695312 60.625 " clip-rule="nonzero"/></clipPath><clipPath id="b36a24d010"><path d="M 312 70 L 314 70 L 314 72 L 312 72 Z M 312 70 " clip-rule="nonzero"/></clipPath><clipPath id="6369eea807"><path d="M 301.695312 60.625 L 314.597656 71.703125 L 297.480469 91.644531 L 284.574219 80.566406 Z M 301.695312 60.625 " clip-rule="nonzero"/></clipPath><clipPath id="88e3b79a6f"><path d="M 301.695312 60.625 L 314.597656 71.703125 L 297.480469 91.644531 L 284.574219 80.566406 Z M 301.695312 60.625 " clip-rule="nonzero"/></clipPath><clipPath id="fd8cf69255"><path d="M 299 85 L 300 85 L 300 86 L 299 86 Z M 299 85 " clip-rule="nonzero"/></clipPath><clipPath id="692ee9661e"><path d="M 301.695312 60.625 L 314.597656 71.703125 L 297.480469 91.644531 L 284.574219 80.566406 Z M 301.695312 60.625 " clip-rule="nonzero"/></clipPath><clipPath id="c4d1e16e1c"><path d="M 301.695312 60.625 L 314.597656 71.703125 L 297.480469 91.644531 L 284.574219 80.566406 Z M 301.695312 60.625 " clip-rule="nonzero"/></clipPath><clipPath id="6d90297481"><path d="M 292 82 L 293 82 L 293 84 L 292 84 Z M 292 82 " clip-rule="nonzero"/></clipPath><clipPath id="25ae5e8d7a"><path d="M 301.695312 60.625 L 314.597656 71.703125 L 297.480469 91.644531 L 284.574219 80.566406 Z M 301.695312 60.625 " clip-rule="nonzero"/></clipPath><clipPath id="d6b7c23c5c"><path d="M 301.695312 60.625 L 314.597656 71.703125 L 297.480469 91.644531 L 284.574219 80.566406 Z M 301.695312 60.625 " clip-rule="nonzero"/></clipPath><clipPath id="e11f98600e"><path d="M 307 77 L 309 77 L 309 79 L 307 79 Z M 307 77 " clip-rule="nonzero"/></clipPath><clipPath id="574af20313"><path d="M 301.695312 60.625 L 314.597656 71.703125 L 297.480469 91.644531 L 284.574219 80.566406 Z M 301.695312 60.625 " clip-rule="nonzero"/></clipPath><clipPath id="8bd5c37c1e"><path d="M 301.695312 60.625 L 314.597656 71.703125 L 297.480469 91.644531 L 284.574219 80.566406 Z M 301.695312 60.625 " clip-rule="nonzero"/></clipPath><clipPath id="2731864358"><path d="M 308.125 77.445312 L 308.648438 77.894531 L 308.164062 78.457031 L 307.640625 78.007812 Z M 308.125 77.445312 " clip-rule="nonzero"/></clipPath><clipPath id="8cf93ef301"><path d="M 296 66 L 297 66 L 297 68 L 296 68 Z M 296 66 " clip-rule="nonzero"/></clipPath><clipPath id="9cc457b26b"><path d="M 301.695312 60.625 L 314.597656 71.703125 L 297.480469 91.644531 L 284.574219 80.566406 Z M 301.695312 60.625 " clip-rule="nonzero"/></clipPath><clipPath id="d13f63160d"><path d="M 301.695312 60.625 L 314.597656 71.703125 L 297.480469 91.644531 L 284.574219 80.566406 Z M 301.695312 60.625 " clip-rule="nonzero"/></clipPath></defs><g clip-path="url(#35207e3fcf)"><g clip-path="url(#7844b4f5fc)"><g clip-path="url(#f7413e042d)"><path fill="#ffde59" d="M 297.273438 65.671875 C 293.15625 52.535156 277.835938 45.644531 277.835938 45.644531 C 277.835938 45.644531 268.917969 60.136719 273.035156 73.269531 C 277.152344 86.40625 292.75 93.210938 292.75 93.210938 C 292.75 93.210938 301.390625 78.808594 297.273438 65.671875 " fill-opacity="1" fill-rule="nonzero"/></g></g></g><g fill="#ffffff" fill-opacity="1"><g transform="translate(21.590254, 180.196212)"><g><path d="M 43.8125 -111.71875 C 50.84375 -105.03125 56.25 -96.722656 60.03125 -86.796875 C 63.9375 -76.765625 65.890625 -66.0625 65.890625 -54.6875 C 65.890625 -43.3125 64.160156 -33.554688 60.703125 -25.421875 C 57.140625 -17.285156 51.789062 -10.816406 44.65625 -6.015625 C 40.414062 -3.117188 35.898438 -1.003906 31.109375 0.328125 C 26.421875 1.671875 20.066406 2.617188 12.046875 3.171875 C 10.253906 3.285156 8.800781 3.34375 7.6875 3.34375 L 6.359375 3.34375 C 5.242188 3.226562 4.347656 2.953125 3.671875 2.515625 C 3.003906 2.066406 2.5625 1.507812 2.34375 0.84375 C 2.113281 0.28125 2 -0.5 2 -1.5 C 2 -3.175781 2.554688 -4.460938 3.671875 -5.359375 C 4.898438 -6.128906 6.6875 -6.515625 9.03125 -6.515625 C 10.03125 -6.515625 11.085938 -6.628906 12.203125 -6.859375 C 13.316406 -6.972656 14.15625 -7.140625 14.71875 -7.359375 C 15.164062 -7.472656 15.832031 -7.695312 16.71875 -8.03125 C 16.613281 -11.257812 16.445312 -16.164062 16.21875 -22.75 C 16 -34.675781 15.609375 -45.65625 15.046875 -55.6875 C 14.492188 -65.71875 13.882812 -73.523438 13.21875 -79.109375 C 12.988281 -82.003906 12.648438 -85.738281 12.203125 -90.3125 C 11.867188 -94.769531 11.59375 -98.726562 11.375 -102.1875 C 11.144531 -106.644531 10.863281 -109.875 10.53125 -111.875 C 10.3125 -113.882812 9.976562 -115 9.53125 -115.21875 C 9.3125 -115.332031 8.753906 -115.503906 7.859375 -115.734375 C 6.859375 -115.835938 5.851562 -115.890625 4.84375 -115.890625 C 1.945312 -115.890625 -0.0546875 -116.671875 -1.171875 -118.234375 C -1.722656 -118.898438 -2 -119.625 -2 -120.40625 C -1.894531 -121.414062 -1.453125 -122.476562 -0.671875 -123.59375 C -0.109375 -124.375 0.613281 -124.816406 1.5 -124.921875 C 2.394531 -125.148438 4.570312 -125.265625 8.03125 -125.265625 C 15.71875 -125.265625 22.347656 -124.203125 27.921875 -122.078125 C 33.503906 -119.960938 38.800781 -116.507812 43.8125 -111.71875 Z M 23.40625 -78.765625 C 23.851562 -74.523438 24.300781 -69.226562 24.75 -62.875 C 25.082031 -56.519531 25.414062 -50.113281 25.75 -43.65625 C 25.863281 -40.195312 25.921875 -36.796875 25.921875 -33.453125 C 26.035156 -30.210938 26.09375 -27.203125 26.09375 -24.421875 C 26.09375 -21.296875 26.144531 -18.507812 26.25 -16.0625 C 26.363281 -13.488281 26.476562 -11.925781 26.59375 -11.375 C 26.925781 -10.257812 27.707031 -9.703125 28.9375 -9.703125 C 30.050781 -9.703125 31.945312 -10.316406 34.625 -11.546875 C 37.632812 -12.992188 40.644531 -15.222656 43.65625 -18.234375 C 46.664062 -21.347656 49.003906 -24.578125 50.671875 -27.921875 C 53.015625 -32.722656 54.578125 -37.96875 55.359375 -43.65625 C 56.242188 -49.332031 56.410156 -55.128906 55.859375 -61.046875 C 54.859375 -71.742188 51.847656 -81.890625 46.828125 -91.484375 C 41.703125 -100.953125 35.179688 -107.582031 27.265625 -111.375 C 25.921875 -111.9375 24.75 -112.382812 23.75 -112.71875 C 22.75 -113.050781 22.078125 -113.21875 21.734375 -113.21875 C 21.296875 -112.769531 21.242188 -108.925781 21.578125 -101.6875 C 21.910156 -94.4375 22.519531 -86.796875 23.40625 -78.765625 Z M 23.40625 -78.765625 "/></g></g></g><g fill="#ffffff" fill-opacity="1"><g transform="translate(111.049139, 180.196212)"><g><path d="M 40.46875 -118.234375 C 41.46875 -117.453125 42.023438 -116.335938 42.140625 -114.890625 C 42.140625 -113.441406 41.640625 -112.101562 40.640625 -110.875 C 40.191406 -110.207031 39.96875 -109.207031 39.96875 -107.875 C 39.96875 -106.53125 40.582031 -102.738281 41.8125 -96.5 C 42.363281 -93.820312 42.976562 -90.585938 43.65625 -86.796875 C 44.425781 -82.890625 45.367188 -78.316406 46.484375 -73.078125 C 48.492188 -63.160156 50.445312 -53.628906 52.34375 -44.484375 C 54.125 -35.234375 55.351562 -29.101562 56.03125 -26.09375 C 56.46875 -23.75 57.191406 -20.125 58.203125 -15.21875 L 61.203125 -14.71875 C 62.878906 -14.488281 64.164062 -13.929688 65.0625 -13.046875 C 65.945312 -12.148438 66.390625 -11.035156 66.390625 -9.703125 C 66.390625 -8.023438 65.722656 -6.796875 64.390625 -6.015625 C 63.046875 -5.234375 60.703125 -4.675781 57.359375 -4.34375 C 55.691406 -4.238281 54.078125 -4.070312 52.515625 -3.84375 C 50.953125 -3.726562 50.003906 -3.617188 49.671875 -3.515625 C 49.441406 -3.398438 49.21875 -3.34375 49 -3.34375 C 48.664062 -3.34375 48.332031 -3.398438 48 -3.515625 C 47.4375 -3.617188 46.929688 -3.785156 46.484375 -4.015625 C 44.703125 -5.015625 43.757812 -6.351562 43.65625 -8.03125 C 43.539062 -9.8125 44.265625 -11.316406 45.828125 -12.546875 C 46.265625 -12.878906 46.988281 -13.4375 48 -14.21875 C 47.664062 -15.78125 47.21875 -18.234375 46.65625 -21.578125 C 46.320312 -23.691406 45.929688 -25.53125 45.484375 -27.09375 C 45.148438 -28.757812 44.875 -29.707031 44.65625 -29.9375 C 44.320312 -30.15625 43.09375 -30.378906 40.96875 -30.609375 C 38.96875 -30.710938 36.179688 -30.765625 32.609375 -30.765625 C 30.160156 -30.765625 26.484375 -30.820312 21.578125 -30.9375 C 21.347656 -29.9375 21.007812 -28.488281 20.5625 -26.59375 C 19.789062 -23.351562 19.457031 -21.125 19.5625 -19.90625 C 19.675781 -18.675781 20.289062 -17.835938 21.40625 -17.390625 C 22.738281 -16.835938 23.578125 -15.832031 23.921875 -14.375 C 24.140625 -13.039062 23.859375 -11.757812 23.078125 -10.53125 C 22.296875 -9.3125 21.015625 -8.703125 19.234375 -8.703125 C 17.554688 -8.585938 14.265625 -8.972656 9.359375 -9.859375 C 5.679688 -10.535156 3.226562 -11.265625 2 -12.046875 C 0.664062 -12.828125 0 -13.992188 0 -15.546875 C 0 -17.109375 0.390625 -18.222656 1.171875 -18.890625 C 1.835938 -19.566406 3.175781 -20.015625 5.1875 -20.234375 C 6.851562 -20.453125 7.96875 -20.785156 8.53125 -21.234375 C 9.082031 -21.679688 9.804688 -24.191406 10.703125 -28.765625 C 11.035156 -30.210938 11.425781 -31.941406 11.875 -33.953125 C 12.320312 -36.066406 12.820312 -38.519531 13.375 -41.3125 C 14.15625 -45.769531 15.382812 -52.007812 17.0625 -60.03125 C 18.625 -68.0625 20.128906 -75.535156 21.578125 -82.453125 C 22.910156 -89.253906 24.078125 -95.21875 25.078125 -100.34375 C 26.085938 -105.363281 26.59375 -107.984375 26.59375 -108.203125 C 26.476562 -108.421875 26.195312 -108.695312 25.75 -109.03125 C 25.300781 -109.476562 24.691406 -109.867188 23.921875 -110.203125 C 22.910156 -110.648438 22.238281 -111.097656 21.90625 -111.546875 C 21.570312 -112.109375 21.347656 -112.890625 21.234375 -113.890625 C 21.015625 -116.234375 21.519531 -117.738281 22.75 -118.40625 C 23.96875 -119.1875 26.753906 -119.578125 31.109375 -119.578125 C 33.890625 -119.578125 36.007812 -119.460938 37.46875 -119.234375 C 38.800781 -119.015625 39.800781 -118.679688 40.46875 -118.234375 Z M 32.78125 -85.453125 C 32.445312 -85.003906 31.722656 -82.21875 30.609375 -77.09375 C 29.492188 -71.96875 28.378906 -66.617188 27.265625 -61.046875 C 26.484375 -56.359375 25.753906 -52.234375 25.078125 -48.671875 C 24.523438 -44.984375 24.304688 -42.921875 24.421875 -42.484375 C 24.640625 -42.140625 25.25 -41.859375 26.25 -41.640625 C 27.363281 -41.421875 28.925781 -41.3125 30.9375 -41.3125 L 35.953125 -40.96875 C 37.515625 -40.863281 38.578125 -40.8125 39.140625 -40.8125 C 39.804688 -40.695312 40.363281 -40.75 40.8125 -40.96875 C 41.363281 -41.082031 41.695312 -41.25 41.8125 -41.46875 C 41.914062 -41.695312 41.691406 -43.707031 41.140625 -47.5 C 40.472656 -51.394531 39.632812 -55.960938 38.625 -61.203125 C 36.726562 -71.128906 35.394531 -77.65625 34.625 -80.78125 C 33.945312 -83.894531 33.441406 -85.507812 33.109375 -85.625 L 32.953125 -85.625 C 32.953125 -85.507812 32.894531 -85.453125 32.78125 -85.453125 Z M 32.78125 -85.453125 "/></g></g></g><g fill="#ffffff" fill-opacity="1"><g transform="translate(200.508024, 180.196212)"><g><path d="M 7.359375 -1.84375 C 6.023438 -2.289062 5.132812 -2.847656 4.6875 -3.515625 C 4.125 -4.179688 3.84375 -5.238281 3.84375 -6.6875 C 3.84375 -7.800781 4.234375 -8.804688 5.015625 -9.703125 C 5.910156 -10.585938 6.96875 -11.144531 8.1875 -11.375 C 8.632812 -11.488281 8.972656 -11.929688 9.203125 -12.703125 C 9.421875 -13.484375 9.585938 -15.71875 9.703125 -19.40625 L 9.703125 -33.453125 C 9.703125 -37.128906 9.644531 -41.253906 9.53125 -45.828125 C 9.53125 -50.390625 9.421875 -55.125 9.203125 -60.03125 C 8.972656 -69.175781 8.691406 -78.039062 8.359375 -86.625 C 7.910156 -95.320312 7.519531 -101.675781 7.1875 -105.6875 C 6.96875 -107.03125 6.742188 -108.984375 6.515625 -111.546875 C 5.847656 -111.660156 4.789062 -111.828125 3.34375 -112.046875 C 1.226562 -112.273438 -0.273438 -112.773438 -1.171875 -113.546875 C -1.953125 -114.328125 -2.34375 -115.5 -2.34375 -117.0625 C -2.34375 -118.84375 -2.007812 -120.070312 -1.34375 -120.75 C -0.5625 -121.414062 1.945312 -121.804688 6.1875 -121.921875 C 7.863281 -122.023438 10.035156 -122.078125 12.703125 -122.078125 L 22.078125 -122.078125 C 25.640625 -122.078125 28.648438 -122.132812 31.109375 -122.25 L 37.296875 -122.25 C 40.304688 -122.363281 42.203125 -122.472656 42.984375 -122.578125 C 43.648438 -122.804688 44.148438 -123.144531 44.484375 -123.59375 C 44.703125 -124.03125 44.867188 -124.585938 44.984375 -125.265625 C 45.097656 -125.929688 45.15625 -126.539062 45.15625 -127.09375 C 45.15625 -128.988281 46.210938 -130.328125 48.328125 -131.109375 C 48.992188 -131.441406 49.609375 -131.609375 50.171875 -131.609375 C 51.398438 -131.609375 52.457031 -131.109375 53.34375 -130.109375 C 53.90625 -129.554688 54.242188 -128.382812 54.359375 -126.59375 C 54.578125 -124.925781 54.6875 -121.523438 54.6875 -116.390625 C 54.6875 -110.816406 54.578125 -107.304688 54.359375 -105.859375 C 54.242188 -104.410156 53.796875 -103.351562 53.015625 -102.6875 C 52.117188 -101.675781 51.0625 -101.171875 49.84375 -101.171875 C 48.613281 -101.066406 47.441406 -101.40625 46.328125 -102.1875 C 45.878906 -102.519531 45.488281 -103.128906 45.15625 -104.015625 C 44.820312 -104.796875 44.597656 -105.910156 44.484375 -107.359375 C 44.367188 -108.367188 44.203125 -109.765625 43.984375 -111.546875 L 17.5625 -111.546875 C 17.5625 -108.867188 17.617188 -104.851562 17.734375 -99.5 C 17.835938 -96.15625 18.003906 -91.753906 18.234375 -86.296875 C 18.453125 -80.941406 18.671875 -76.09375 18.890625 -71.75 L 19.90625 -56.1875 C 22.019531 -56.1875 25.140625 -56.242188 29.265625 -56.359375 C 31.046875 -56.472656 33.78125 -56.582031 37.46875 -56.6875 C 40.46875 -56.582031 42.023438 -55.414062 42.140625 -53.1875 C 42.253906 -51.0625 41.640625 -49.5 40.296875 -48.5 C 39.523438 -47.71875 38.582031 -47.160156 37.46875 -46.828125 C 36.238281 -46.597656 33.785156 -46.375 30.109375 -46.15625 C 27.878906 -46.039062 25.867188 -45.875 24.078125 -45.65625 C 22.296875 -45.539062 21.296875 -45.375 21.078125 -45.15625 C 20.734375 -45.039062 20.507812 -42.976562 20.40625 -38.96875 C 20.289062 -34.957031 20.234375 -30.773438 20.234375 -26.421875 C 20.234375 -22.742188 20.34375 -19.507812 20.5625 -16.71875 C 20.675781 -13.9375 20.847656 -12.488281 21.078125 -12.375 C 21.296875 -12.257812 21.90625 -12.09375 22.90625 -11.875 C 23.800781 -11.757812 24.804688 -11.648438 25.921875 -11.546875 C 27.484375 -11.546875 28.65625 -11.375 29.4375 -11.03125 C 30.21875 -10.8125 30.828125 -10.367188 31.265625 -9.703125 C 32.273438 -8.585938 32.722656 -7.523438 32.609375 -6.515625 C 32.609375 -5.398438 32.109375 -4.398438 31.109375 -3.515625 C 30.441406 -2.734375 29.550781 -2.285156 28.4375 -2.171875 C 27.320312 -1.953125 24.921875 -1.84375 21.234375 -1.84375 L 14.890625 -1.84375 C 12.878906 -1.726562 11.648438 -1.613281 11.203125 -1.5 L 9.53125 -1.5 C 8.75 -1.613281 8.023438 -1.726562 7.359375 -1.84375 Z M 7.359375 -1.84375 "/></g></g></g><g fill="#ffffff" fill-opacity="1"><g transform="translate(279.598531, 180.196212)"><g><path d="M 4.015625 -7.1875 C 3.015625 -8.195312 2.515625 -9.203125 2.515625 -10.203125 C 2.515625 -10.753906 2.625 -11.253906 2.84375 -11.703125 C 3.507812 -13.265625 4.957031 -14.4375 7.1875 -15.21875 L 10.203125 -16.21875 L 10.703125 -36.796875 C 11.035156 -46.046875 11.203125 -55.519531 11.203125 -65.21875 C 11.203125 -74.8125 11.144531 -84.957031 11.03125 -95.65625 C 11.03125 -97.332031 10.976562 -99.898438 10.875 -103.359375 C 10.425781 -103.460938 9.644531 -103.628906 8.53125 -103.859375 C 7.082031 -104.078125 5.910156 -104.632812 5.015625 -105.53125 C 4.117188 -106.414062 3.726562 -107.53125 3.84375 -108.875 C 3.84375 -110.65625 4.679688 -111.9375 6.359375 -112.71875 C 8.023438 -113.382812 11.535156 -114.050781 16.890625 -114.71875 C 20.347656 -115.050781 23.078125 -115.21875 25.078125 -115.21875 C 26.203125 -115.21875 27.097656 -115.164062 27.765625 -115.0625 C 29.546875 -114.726562 30.601562 -113.613281 30.9375 -111.71875 C 31.050781 -111.269531 31.109375 -110.878906 31.109375 -110.546875 C 31.109375 -109.316406 30.601562 -108.253906 29.59375 -107.359375 C 28.375 -106.242188 26.425781 -105.519531 23.75 -105.1875 C 22.632812 -104.96875 21.960938 -104.632812 21.734375 -104.1875 C 21.515625 -103.632812 21.347656 -102.070312 21.234375 -99.5 C 21.234375 -98.050781 21.179688 -94.988281 21.078125 -90.3125 C 21.078125 -85.625 21.128906 -80.71875 21.234375 -75.59375 C 21.234375 -70.351562 21.179688 -63.882812 21.078125 -56.1875 C 21.078125 -48.382812 20.960938 -41.640625 20.734375 -35.953125 C 20.617188 -31.273438 20.453125 -24.304688 20.234375 -15.046875 C 21.128906 -14.941406 22.410156 -14.773438 24.078125 -14.546875 C 26.203125 -14.210938 27.875 -13.546875 29.09375 -12.546875 C 30.207031 -11.648438 30.710938 -10.421875 30.609375 -8.859375 C 30.492188 -6.859375 29.65625 -5.632812 28.09375 -5.1875 C 27.09375 -4.957031 25.363281 -4.84375 22.90625 -4.84375 C 21.125 -4.84375 19.007812 -4.898438 16.5625 -5.015625 C 11.539062 -5.242188 8.363281 -5.46875 7.03125 -5.6875 C 5.6875 -5.90625 4.679688 -6.40625 4.015625 -7.1875 Z M 4.015625 -7.1875 "/></g></g></g><g clip-path="url(#e4a18d8bba)"><g clip-path="url(#58c7d08d0d)"><g clip-path="url(#6fcf8efdb5)"><path fill="#ffffff" d="M 313.238281 77.015625 C 316.152344 65.984375 308.453125 54.382812 308.453125 54.382812 C 308.453125 54.382812 295.796875 60.601562 292.878906 71.632812 C 289.964844 82.664062 297.894531 94.332031 297.894531 94.332031 C 297.894531 94.332031 310.320312 88.046875 313.238281 77.015625 " fill-opacity="1" fill-rule="nonzero"/></g></g></g><g clip-path="url(#dc32ca0658)"><g clip-path="url(#d32e278d1c)"><g clip-path="url(#b9f3de279a)"><path fill="#ffffff" d="M 349.253906 11.878906 C 311.117188 15.289062 292.324219 35.011719 294.035156 72.019531 C 294.058594 72.484375 293.382812 72.574219 293.273438 72.121094 C 290.441406 60.242188 289.738281 49.242188 291.898438 39.417969 C 299.023438 6.996094 337.101562 -0.75 365.328125 6.644531 C 366.738281 7.015625 367.175781 8.742188 366.132812 9.753906 C 346.441406 28.777344 353.707031 74.964844 300 59.703125 C 305.726562 33.789062 320.855469 16.644531 349.253906 11.878906 " fill-opacity="1" fill-rule="evenodd"/></g></g></g><g clip-path="url(#4102bc24f5)"><g clip-path="url(#c8a8ece850)"><g clip-path="url(#9c7cca6ac5)"><path fill="#ffffff" d="M 266.273438 75.652344 C 274.03125 92.992188 286.316406 98.625 303.402344 91.847656 C 303.617188 91.761719 303.769531 92.0625 303.574219 92.1875 C 298.457031 95.433594 293.410156 97.539062 288.453125 98.113281 C 272.09375 100.003906 262.3125 83.390625 261.222656 68.953125 C 261.167969 68.234375 261.910156 67.75 262.554688 68.078125 C 274.65625 74.242188 295.152344 63.378906 296.660156 91.039062 C 283.582031 92.535156 273.09375 88.207031 266.273438 75.652344 " fill-opacity="1" fill-rule="evenodd"/></g></g></g><g clip-path="url(#322a3664f2)"><g clip-path="url(#c6c7ce883c)"><g clip-path="url(#45b6dc53c2)"><g clip-path="url(#d33c9521da)"><path fill="#000000" d="M 292.429688 88.535156 C 292.085938 88.660156 292 88.992188 292.089844 89.253906 C 292.183594 89.519531 292.457031 89.71875 292.800781 89.59375 C 292.859375 89.574219 292.910156 89.546875 292.953125 89.511719 C 293.167969 89.359375 293.214844 89.09375 293.136719 88.875 C 293.046875 88.613281 292.773438 88.410156 292.429688 88.535156 " fill-opacity="1" fill-rule="nonzero"/></g></g></g></g><g clip-path="url(#117e9b62cf)"><g clip-path="url(#ef7594dbb2)"><g clip-path="url(#dc0caf306b)"><g clip-path="url(#83f2ad322d)"><path fill="#000000" d="M 289.402344 87.277344 C 289.269531 87.324219 289.183594 87.425781 289.15625 87.554688 C 289.128906 87.691406 289.179688 87.839844 289.289062 87.929688 C 289.386719 88.011719 289.519531 88.035156 289.648438 87.988281 C 289.6875 87.972656 289.722656 87.957031 289.75 87.933594 C 289.824219 87.878906 289.875 87.800781 289.894531 87.710938 C 289.921875 87.570312 289.867188 87.425781 289.761719 87.335938 C 289.664062 87.25 289.53125 87.230469 289.402344 87.277344 " fill-opacity="1" fill-rule="nonzero"/></g></g></g></g><g clip-path="url(#f65d94b921)"><g clip-path="url(#22c5972034)"><g clip-path="url(#6240ba0523)"><g clip-path="url(#51590ce16b)"><path fill="#000000" d="M 291.207031 83.332031 C 290.78125 83.484375 290.671875 83.898438 290.789062 84.226562 C 290.902344 84.554688 291.242188 84.808594 291.667969 84.652344 C 291.738281 84.625 291.804688 84.59375 291.859375 84.550781 C 291.996094 84.453125 292.085938 84.308594 292.121094 84.144531 C 292.171875 83.886719 292.070312 83.601562 291.871094 83.433594 C 291.691406 83.28125 291.449219 83.242188 291.207031 83.332031 " fill-opacity="1" fill-rule="nonzero"/></g></g></g></g><g clip-path="url(#1b7801474e)"><g clip-path="url(#5a9a01d562)"><g clip-path="url(#5fa1a10119)"><g clip-path="url(#545db155bb)"><path fill="#000000" d="M 297.335938 85.480469 C 296.824219 85.664062 296.695312 86.160156 296.832031 86.554688 C 296.96875 86.945312 297.378906 87.246094 297.890625 87.0625 C 297.976562 87.03125 298.054688 86.988281 298.121094 86.9375 C 298.28125 86.820312 298.390625 86.65625 298.429688 86.453125 C 298.488281 86.144531 298.367188 85.800781 298.132812 85.601562 C 297.910156 85.417969 297.628906 85.371094 297.335938 85.480469 " fill-opacity="1" fill-rule="nonzero"/></g></g></g></g><g clip-path="url(#dcc7b681a6)"><g clip-path="url(#2406b7484c)"><g clip-path="url(#0c7a8ab9d0)"><g clip-path="url(#4a886f958e)"><g clip-path="url(#bfe076cec6)"><path fill="#000000" d="M 296.957031 91.804688 C 296.570312 91.945312 296.316406 92.230469 296.242188 92.609375 C 296.160156 93.019531 296.320312 93.476562 296.640625 93.746094 C 296.929688 93.992188 297.304688 94.050781 297.695312 93.910156 C 297.808594 93.867188 297.910156 93.8125 298.003906 93.746094 C 298.214844 93.589844 298.359375 93.371094 298.410156 93.101562 C 298.492188 92.691406 298.332031 92.234375 298.011719 91.964844 C 297.722656 91.71875 297.347656 91.664062 296.957031 91.804688 " fill-opacity="1" fill-rule="nonzero"/></g></g></g></g></g><g clip-path="url(#7b56eee47e)"><g clip-path="url(#7812b60c0e)"><g clip-path="url(#41900ab59d)"><g clip-path="url(#0890f43b19)"><path fill="#000000" d="M 295.609375 83.960938 C 295.679688 83.933594 295.738281 83.902344 295.789062 83.863281 C 296.039062 83.683594 296.089844 83.375 296.003906 83.121094 C 295.894531 82.816406 295.578125 82.582031 295.179688 82.726562 C 294.777344 82.871094 294.679688 83.257812 294.785156 83.5625 C 294.894531 83.871094 295.210938 84.105469 295.609375 83.960938 " fill-opacity="1" fill-rule="nonzero"/></g></g></g></g><g clip-path="url(#1afe43fc0b)"><g clip-path="url(#94aa275d3c)"><g clip-path="url(#0e2498b4e8)"><g clip-path="url(#99e3d4fbec)"><path fill="#000000" d="M 298.644531 81.8125 C 298.328125 81.925781 298.25 82.230469 298.332031 82.472656 C 298.417969 82.714844 298.667969 82.898438 298.984375 82.785156 C 299.039062 82.765625 299.085938 82.738281 299.125 82.710938 C 299.320312 82.566406 299.363281 82.324219 299.292969 82.125 C 299.210938 81.882812 298.960938 81.699219 298.644531 81.8125 " fill-opacity="1" fill-rule="nonzero"/></g></g></g></g><g clip-path="url(#ae151d7838)"><g clip-path="url(#e2ed55144b)"><g clip-path="url(#1bea2aea38)"><g clip-path="url(#b8e1b51744)"><path fill="#000000" d="M 296.671875 79.75 C 296.699219 79.613281 296.644531 79.464844 296.539062 79.375 C 296.441406 79.292969 296.308594 79.269531 296.179688 79.320312 C 296.046875 79.367188 295.960938 79.46875 295.933594 79.597656 C 295.90625 79.734375 295.957031 79.882812 296.066406 79.972656 C 296.164062 80.054688 296.296875 80.078125 296.425781 80.027344 C 296.464844 80.015625 296.5 79.996094 296.527344 79.976562 C 296.601562 79.921875 296.652344 79.84375 296.671875 79.75 " fill-opacity="1" fill-rule="nonzero"/></g></g></g></g><g clip-path="url(#75dbae5166)"><g clip-path="url(#e45e2e400b)"><g clip-path="url(#43c16ab3eb)"><g clip-path="url(#a41537d4e6)"><path fill="#000000" d="M 291.945312 77.464844 C 291.351562 77.679688 291.199219 78.257812 291.359375 78.71875 C 291.519531 79.175781 291.996094 79.523438 292.589844 79.308594 C 292.691406 79.273438 292.78125 79.226562 292.859375 79.167969 C 293.046875 79.03125 293.171875 78.835938 293.21875 78.601562 C 293.289062 78.242188 293.148438 77.84375 292.871094 77.609375 C 292.613281 77.394531 292.285156 77.34375 291.945312 77.464844 " fill-opacity="1" fill-rule="nonzero"/></g></g></g></g><g clip-path="url(#4fd167ae9e)"><g clip-path="url(#5306a6849e)"><g clip-path="url(#54b07d5e9a)"><g clip-path="url(#1e5ad21749)"><path fill="#000000" d="M 289.511719 81.898438 C 289.542969 81.886719 289.574219 81.871094 289.601562 81.851562 C 289.714844 81.769531 289.765625 81.621094 289.714844 81.472656 C 289.652344 81.296875 289.472656 81.210938 289.292969 81.273438 C 289.117188 81.339844 289.03125 81.523438 289.09375 81.699219 C 289.15625 81.878906 289.335938 81.960938 289.511719 81.898438 " fill-opacity="1" fill-rule="nonzero"/></g></g></g></g><g clip-path="url(#e4cdd83405)"><g clip-path="url(#edac0ac157)"><g clip-path="url(#f3db5336df)"><g clip-path="url(#c0ec6ae9bf)"><path fill="#000000" d="M 294.699219 75.089844 L 294.523438 75.15625 C 294.414062 75.195312 294.324219 75.28125 294.273438 75.390625 C 294.226562 75.496094 294.222656 75.605469 294.261719 75.707031 C 294.347656 75.921875 294.585938 76.03125 294.800781 75.953125 L 294.980469 75.890625 C 295.015625 75.875 295.050781 75.855469 295.085938 75.832031 C 295.144531 75.789062 295.195312 75.726562 295.230469 75.65625 C 295.277344 75.550781 295.28125 75.4375 295.242188 75.335938 C 295.15625 75.121094 294.917969 75.011719 294.699219 75.089844 " fill-opacity="1" fill-rule="nonzero"/></g></g></g></g><g clip-path="url(#9040f3b39b)"><g clip-path="url(#5511db7e46)"><g clip-path="url(#c18e317e8f)"><g clip-path="url(#b2f6ac7019)"><path fill="#000000" d="M 295.542969 70.660156 C 294.945312 70.878906 294.796875 71.453125 294.957031 71.914062 C 295.117188 72.371094 295.589844 72.722656 296.1875 72.503906 C 296.289062 72.46875 296.378906 72.421875 296.453125 72.363281 C 296.824219 72.09375 296.902344 71.632812 296.773438 71.253906 C 296.613281 70.796875 296.136719 70.445312 295.542969 70.660156 " fill-opacity="1" fill-rule="nonzero"/></g></g></g></g><g clip-path="url(#f8ecf108aa)"><g clip-path="url(#79edac52de)"><g clip-path="url(#2b5078f18c)"><g clip-path="url(#a72759e604)"><path fill="#000000" d="M 298.214844 76.199219 C 297.753906 76.367188 297.636719 76.816406 297.761719 77.171875 C 297.882812 77.527344 298.253906 77.796875 298.714844 77.628906 C 298.792969 77.601562 298.863281 77.566406 298.921875 77.519531 C 299.210938 77.3125 299.273438 76.953125 299.171875 76.660156 C 299.046875 76.304688 298.679688 76.03125 298.214844 76.199219 " fill-opacity="1" fill-rule="nonzero"/></g></g></g></g><g clip-path="url(#e174f5d32f)"><g clip-path="url(#4ef0a34ca0)"><g clip-path="url(#9e7d4d3744)"><g clip-path="url(#3df19857c9)"><path fill="#000000" d="M 290.855469 71.511719 C 290.9375 71.484375 291.003906 71.449219 291.066406 71.402344 C 291.351562 71.195312 291.414062 70.835938 291.3125 70.542969 C 291.1875 70.1875 290.820312 69.914062 290.355469 70.082031 C 289.894531 70.25 289.777344 70.699219 289.902344 71.054688 C 290.027344 71.410156 290.394531 71.679688 290.855469 71.511719 " fill-opacity="1" fill-rule="nonzero"/></g></g></g></g><g clip-path="url(#4cfaf7f14e)"><g clip-path="url(#7a352d871a)"><g clip-path="url(#ab4d0a2cb3)"><g clip-path="url(#2952a83ea4)"><path fill="#000000" d="M 287.933594 74.902344 C 287.574219 75.035156 287.484375 75.382812 287.582031 75.65625 C 287.679688 75.933594 287.964844 76.144531 288.324219 76.011719 C 288.386719 75.988281 288.4375 75.960938 288.484375 75.925781 C 288.707031 75.765625 288.757812 75.488281 288.675781 75.257812 C 288.582031 74.984375 288.296875 74.773438 287.933594 74.902344 " fill-opacity="1" fill-rule="nonzero"/></g></g></g></g><g clip-path="url(#9c48bf5005)"><g clip-path="url(#61365e2982)"><g clip-path="url(#70a6b62208)"><g clip-path="url(#21d723b019)"><path fill="#000000" d="M 292.152344 66.414062 C 292.1875 66.402344 292.21875 66.382812 292.25 66.363281 C 292.316406 66.3125 292.363281 66.242188 292.382812 66.15625 C 292.40625 66.027344 292.359375 65.890625 292.257812 65.808594 C 292.167969 65.730469 292.042969 65.710938 291.921875 65.753906 C 291.800781 65.796875 291.71875 65.890625 291.695312 66.011719 C 291.671875 66.140625 291.71875 66.277344 291.816406 66.359375 C 291.910156 66.4375 292.03125 66.457031 292.152344 66.414062 " fill-opacity="1" fill-rule="nonzero"/></g></g></g></g><g clip-path="url(#61260512f9)"><g clip-path="url(#f23bf33e73)"><g clip-path="url(#6fbce7d4a6)"><g clip-path="url(#53daf12a97)"><path fill="#000000" d="M 303.027344 82.410156 C 302.90625 82.453125 302.824219 82.550781 302.800781 82.667969 C 302.773438 82.796875 302.820312 82.933594 302.921875 83.015625 C 303.011719 83.09375 303.136719 83.113281 303.257812 83.070312 C 303.292969 83.058594 303.324219 83.042969 303.351562 83.019531 C 303.421875 82.96875 303.46875 82.898438 303.484375 82.8125 C 303.507812 82.683594 303.460938 82.546875 303.363281 82.464844 C 303.269531 82.386719 303.148438 82.367188 303.027344 82.410156 " fill-opacity="1" fill-rule="nonzero"/></g></g></g></g><g clip-path="url(#609b5e8612)"><g clip-path="url(#5798434cb3)"><g clip-path="url(#ec11e558fd)"><g clip-path="url(#c2a71a5747)"><path fill="#000000" d="M 299 88.933594 C 298.8125 89 298.722656 89.195312 298.789062 89.382812 C 298.851562 89.570312 299.042969 89.660156 299.230469 89.59375 C 299.265625 89.582031 299.296875 89.566406 299.324219 89.542969 C 299.445312 89.457031 299.496094 89.296875 299.441406 89.144531 C 299.378906 88.957031 299.1875 88.867188 299 88.933594 " fill-opacity="1" fill-rule="nonzero"/></g></g></g></g><g clip-path="url(#e502935459)"><g clip-path="url(#e30c2fef03)"><g clip-path="url(#2856810500)"><g clip-path="url(#425873f6f5)"><g clip-path="url(#451484fcdb)"><path fill="#000000" d="M 298.03125 72.25 C 297.9375 72.171875 297.816406 72.152344 297.695312 72.195312 C 297.574219 72.238281 297.492188 72.332031 297.46875 72.453125 C 297.441406 72.582031 297.492188 72.71875 297.589844 72.800781 C 297.683594 72.878906 297.804688 72.898438 297.925781 72.855469 C 297.960938 72.84375 297.992188 72.824219 298.019531 72.804688 C 298.089844 72.753906 298.136719 72.683594 298.152344 72.597656 C 298.175781 72.46875 298.128906 72.332031 298.03125 72.25 " fill-opacity="1" fill-rule="nonzero"/></g></g></g></g></g><g clip-path="url(#1cc8bae289)"><g clip-path="url(#72a46bf9fd)"><g clip-path="url(#d276513130)"><g clip-path="url(#1230f34b94)"><path fill="#000000" d="M 284.113281 81.171875 C 283.925781 81.238281 283.835938 81.433594 283.902344 81.621094 C 283.964844 81.808594 284.15625 81.898438 284.34375 81.832031 C 284.378906 81.820312 284.410156 81.800781 284.4375 81.78125 C 284.558594 81.691406 284.609375 81.535156 284.558594 81.382812 C 284.492188 81.195312 284.300781 81.101562 284.113281 81.171875 " fill-opacity="1" fill-rule="nonzero"/></g></g></g></g><g clip-path="url(#3c3bef26ee)"><g clip-path="url(#1ad58eaeb9)"><g clip-path="url(#c51b30f5d8)"><path fill="#ffffff" d="M 289.691406 87.105469 C 289.53125 87.425781 289.699219 87.714844 289.945312 87.839844 C 290.191406 87.964844 290.523438 87.921875 290.683594 87.605469 C 290.710938 87.550781 290.730469 87.496094 290.738281 87.445312 C 290.785156 87.191406 290.636719 86.972656 290.429688 86.871094 C 290.183594 86.746094 289.851562 86.789062 289.691406 87.105469 " fill-opacity="1" fill-rule="nonzero"/></g></g></g><g clip-path="url(#834a1bb1e5)"><g clip-path="url(#4d373711ab)"><g clip-path="url(#35189973dd)"><path fill="#ffffff" d="M 286.660156 88.246094 C 286.601562 88.367188 286.605469 88.496094 286.675781 88.605469 C 286.753906 88.71875 286.890625 88.789062 287.027344 88.78125 C 287.15625 88.773438 287.265625 88.703125 287.328125 88.582031 C 287.34375 88.546875 287.355469 88.511719 287.363281 88.476562 C 287.378906 88.386719 287.359375 88.296875 287.308594 88.222656 C 287.234375 88.105469 287.097656 88.035156 286.957031 88.046875 C 286.828125 88.050781 286.722656 88.125 286.660156 88.246094 " fill-opacity="1" fill-rule="nonzero"/></g></g></g><g clip-path="url(#faa2b42675)"><g clip-path="url(#bc46a33ea3)"><g clip-path="url(#ed1d52f00c)"><path fill="#ffffff" d="M 285.238281 84.253906 C 285.039062 84.648438 285.246094 85.011719 285.554688 85.167969 C 285.859375 85.324219 286.277344 85.273438 286.476562 84.875 C 286.507812 84.8125 286.53125 84.746094 286.542969 84.679688 C 286.570312 84.515625 286.539062 84.355469 286.449219 84.214844 C 286.304688 84 286.039062 83.867188 285.78125 83.882812 C 285.546875 83.894531 285.347656 84.03125 285.238281 84.253906 " fill-opacity="1" fill-rule="nonzero"/></g></g></g><g clip-path="url(#5feff6678d)"><g clip-path="url(#8c1f41aa90)"><g clip-path="url(#992dacb505)"><path fill="#ffffff" d="M 291.09375 81.667969 C 290.855469 82.140625 291.105469 82.578125 291.472656 82.761719 C 291.839844 82.945312 292.339844 82.886719 292.578125 82.414062 C 292.617188 82.332031 292.644531 82.253906 292.660156 82.171875 C 292.691406 81.980469 292.65625 81.792969 292.542969 81.625 C 292.375 81.367188 292.054688 81.203125 291.746094 81.222656 C 291.460938 81.238281 291.230469 81.398438 291.09375 81.667969 " fill-opacity="1" fill-rule="nonzero"/></g></g></g><g clip-path="url(#b40d7cc327)"><g clip-path="url(#4b25db85a3)"><g clip-path="url(#5d39da02b8)"><g clip-path="url(#293d8cda94)"><path fill="#ffffff" d="M 295.175781 86.382812 C 294.996094 86.738281 295.007812 87.113281 295.21875 87.429688 C 295.445312 87.773438 295.871094 87.988281 296.285156 87.964844 C 296.660156 87.941406 296.96875 87.734375 297.148438 87.375 C 297.203125 87.265625 297.238281 87.160156 297.257812 87.050781 C 297.304688 86.800781 297.253906 86.546875 297.105469 86.324219 C 296.878906 85.980469 296.453125 85.765625 296.039062 85.789062 C 295.664062 85.8125 295.355469 86.023438 295.175781 86.382812 " fill-opacity="1" fill-rule="nonzero"/></g></g></g></g><g clip-path="url(#ad910f3a12)"><g clip-path="url(#d548d03c3e)"><g clip-path="url(#c17e30f196)"><path fill="#ffffff" d="M 288.8125 81.75 C 288.84375 81.6875 288.867188 81.625 288.878906 81.5625 C 288.929688 81.269531 288.757812 81.015625 288.519531 80.898438 C 288.230469 80.753906 287.84375 80.800781 287.65625 81.167969 C 287.472656 81.539062 287.664062 81.878906 287.953125 82.023438 C 288.238281 82.167969 288.628906 82.121094 288.8125 81.75 " fill-opacity="1" fill-rule="nonzero"/></g></g></g><g clip-path="url(#5a7a9fc528)"><g clip-path="url(#dbcb6d1b11)"><g clip-path="url(#2ba71323cb)"><path fill="#ffffff" d="M 289.503906 78.207031 C 289.359375 78.5 289.511719 78.765625 289.738281 78.878906 C 289.964844 78.996094 290.269531 78.957031 290.414062 78.664062 C 290.441406 78.613281 290.457031 78.566406 290.464844 78.515625 C 290.507812 78.285156 290.371094 78.085938 290.183594 77.992188 C 289.957031 77.878906 289.652344 77.914062 289.503906 78.207031 " fill-opacity="1" fill-rule="nonzero"/></g></g></g><g clip-path="url(#3dc18f7d68)"><g clip-path="url(#be2a597288)"><g clip-path="url(#202dda1327)"><path fill="#ffffff" d="M 286.675781 78.074219 C 286.601562 77.957031 286.460938 77.886719 286.324219 77.894531 C 286.195312 77.902344 286.085938 77.976562 286.027344 78.097656 C 285.964844 78.21875 285.972656 78.347656 286.042969 78.457031 C 286.117188 78.570312 286.257812 78.640625 286.394531 78.632812 C 286.523438 78.625 286.632812 78.554688 286.691406 78.433594 C 286.710938 78.398438 286.722656 78.363281 286.730469 78.328125 C 286.746094 78.238281 286.726562 78.148438 286.675781 78.074219 " fill-opacity="1" fill-rule="nonzero"/></g></g></g><g clip-path="url(#45ab13df6b)"><g clip-path="url(#4b1e4c427d)"><g clip-path="url(#a3e295576a)"><path fill="#ffffff" d="M 281.726562 79.625 C 281.449219 80.175781 281.742188 80.679688 282.171875 80.898438 C 282.597656 81.113281 283.179688 81.042969 283.457031 80.492188 C 283.503906 80.398438 283.535156 80.304688 283.550781 80.210938 C 283.589844 79.988281 283.546875 79.769531 283.417969 79.574219 C 283.21875 79.273438 282.847656 79.085938 282.488281 79.105469 C 282.15625 79.125 281.886719 79.308594 281.726562 79.625 " fill-opacity="1" fill-rule="nonzero"/></g></g></g><g clip-path="url(#74f727ec6d)"><g clip-path="url(#9d602dc290)"><g clip-path="url(#66b634f5ed)"><path fill="#ffffff" d="M 283.039062 84.378906 C 283.054688 84.347656 283.0625 84.316406 283.070312 84.289062 C 283.09375 84.148438 283.027344 84.011719 282.890625 83.945312 C 282.722656 83.859375 282.535156 83.921875 282.453125 84.085938 C 282.371094 84.25 282.4375 84.433594 282.601562 84.519531 C 282.769531 84.601562 282.957031 84.542969 283.039062 84.378906 " fill-opacity="1" fill-rule="nonzero"/></g></g></g><g clip-path="url(#5b28ae84bf)"><g clip-path="url(#033f6c25b3)"><g clip-path="url(#c63893136c)"><path fill="#ffffff" d="M 282.0625 76.105469 L 281.980469 76.269531 C 281.929688 76.371094 281.921875 76.492188 281.960938 76.601562 C 282 76.707031 282.074219 76.789062 282.171875 76.832031 C 282.382812 76.929688 282.625 76.84375 282.726562 76.644531 L 282.808594 76.480469 C 282.828125 76.445312 282.839844 76.410156 282.847656 76.371094 C 282.859375 76.296875 282.851562 76.222656 282.828125 76.148438 C 282.789062 76.042969 282.714844 75.960938 282.617188 75.917969 C 282.40625 75.820312 282.164062 75.90625 282.0625 76.105469 " fill-opacity="1" fill-rule="nonzero"/></g></g></g><g clip-path="url(#95f8b0b71e)"><g clip-path="url(#9adb735873)"><g clip-path="url(#8ccba2acb9)"><path fill="#ffffff" d="M 279.613281 72.417969 C 279.335938 72.96875 279.628906 73.476562 280.058594 73.691406 C 280.488281 73.90625 281.066406 73.839844 281.34375 73.285156 C 281.390625 73.191406 281.421875 73.097656 281.4375 73.007812 C 281.515625 72.570312 281.257812 72.191406 280.898438 72.011719 C 280.46875 71.796875 279.890625 71.867188 279.613281 72.417969 " fill-opacity="1" fill-rule="nonzero"/></g></g></g><g clip-path="url(#ce9911fe2b)"><g clip-path="url(#08c6d51737)"><g clip-path="url(#5887686080)"><path fill="#ffffff" d="M 285.335938 74.535156 C 285.121094 74.964844 285.347656 75.355469 285.679688 75.523438 C 286.011719 75.691406 286.460938 75.636719 286.675781 75.210938 C 286.714844 75.136719 286.738281 75.0625 286.75 74.992188 C 286.8125 74.652344 286.609375 74.359375 286.332031 74.21875 C 286 74.054688 285.550781 74.105469 285.335938 74.535156 " fill-opacity="1" fill-rule="nonzero"/></g></g></g><g clip-path="url(#6e5c349fbf)"><g clip-path="url(#11b8f376c4)"><g clip-path="url(#b627217206)"><path fill="#ffffff" d="M 276.851562 76.152344 C 276.890625 76.082031 276.914062 76.007812 276.925781 75.9375 C 276.988281 75.597656 276.785156 75.304688 276.507812 75.164062 C 276.175781 74.996094 275.726562 75.050781 275.511719 75.480469 C 275.296875 75.90625 275.519531 76.300781 275.855469 76.46875 C 276.1875 76.636719 276.636719 76.582031 276.851562 76.152344 " fill-opacity="1" fill-rule="nonzero"/></g></g></g><g clip-path="url(#ab916fe73b)"><g clip-path="url(#4af329e19d)"><g clip-path="url(#d4a34b45b1)"><path fill="#ffffff" d="M 277.097656 80.5 C 276.929688 80.832031 277.105469 81.136719 277.363281 81.269531 C 277.621094 81.398438 277.972656 81.355469 278.136719 81.023438 C 278.167969 80.964844 278.1875 80.910156 278.195312 80.855469 C 278.242188 80.589844 278.085938 80.363281 277.871094 80.253906 C 277.613281 80.125 277.265625 80.167969 277.097656 80.5 " fill-opacity="1" fill-rule="nonzero"/></g></g></g><g clip-path="url(#5428ae9096)"><g clip-path="url(#2c3a258462)"><g clip-path="url(#2e28751018)"><path fill="#ffffff" d="M 274.269531 71.691406 C 274.285156 71.65625 274.296875 71.625 274.304688 71.589844 C 274.316406 71.507812 274.300781 71.425781 274.253906 71.355469 C 274.183594 71.25 274.054688 71.183594 273.929688 71.191406 C 273.808594 71.199219 273.707031 71.265625 273.652344 71.378906 C 273.59375 71.492188 273.601562 71.613281 273.667969 71.710938 C 273.738281 71.820312 273.867188 71.882812 273.992188 71.875 C 274.113281 71.871094 274.214844 71.800781 274.269531 71.691406 " fill-opacity="1" fill-rule="nonzero"/></g></g></g><g clip-path="url(#0f2b2d7bc2)"><g clip-path="url(#7a9f29edd0)"><g clip-path="url(#0781ade53d)"><path fill="#ffffff" d="M 293.046875 75.695312 C 292.992188 75.808594 292.996094 75.929688 293.0625 76.03125 C 293.132812 76.136719 293.261719 76.199219 293.386719 76.195312 C 293.507812 76.1875 293.609375 76.117188 293.664062 76.007812 C 293.683594 75.976562 293.691406 75.941406 293.699219 75.910156 C 293.714844 75.828125 293.695312 75.746094 293.648438 75.671875 C 293.578125 75.566406 293.453125 75.5 293.324219 75.507812 C 293.203125 75.515625 293.101562 75.585938 293.046875 75.695312 " fill-opacity="1" fill-rule="nonzero"/></g></g></g><g clip-path="url(#c18c7ecffe)"><g clip-path="url(#f5b32cb1e1)"><g clip-path="url(#5cda975f17)"><path fill="#ffffff" d="M 294.660156 82.992188 C 294.574219 83.164062 294.640625 83.359375 294.816406 83.449219 C 294.992188 83.539062 295.191406 83.472656 295.277344 83.300781 C 295.292969 83.269531 295.304688 83.238281 295.3125 83.207031 C 295.335938 83.058594 295.265625 82.914062 295.121094 82.84375 C 294.945312 82.753906 294.746094 82.816406 294.660156 82.992188 " fill-opacity="1" fill-rule="nonzero"/></g></g></g><g clip-path="url(#427a6e5ef9)"><g clip-path="url(#5919ab06e0)"><g clip-path="url(#c071a0206a)"><g clip-path="url(#8ee51e450f)"><path fill="#ffffff" d="M 282.484375 71.871094 C 282.363281 71.878906 282.261719 71.945312 282.207031 72.058594 C 282.152344 72.171875 282.15625 72.292969 282.222656 72.394531 C 282.292969 72.5 282.421875 72.5625 282.550781 72.554688 C 282.667969 72.550781 282.769531 72.480469 282.824219 72.371094 C 282.84375 72.335938 282.851562 72.304688 282.859375 72.269531 C 282.875 72.1875 282.859375 72.105469 282.8125 72.035156 C 282.742188 71.929688 282.613281 71.863281 282.484375 71.871094 " fill-opacity="1" fill-rule="nonzero"/></g></g></g></g><g clip-path="url(#5826d7149c)"><g clip-path="url(#f0be6b048f)"><g clip-path="url(#410c56de77)"><path fill="#ffffff" d="M 278.679688 87.476562 C 278.59375 87.652344 278.660156 87.847656 278.839844 87.9375 C 279.015625 88.027344 279.214844 87.960938 279.300781 87.789062 C 279.316406 87.757812 279.328125 87.726562 279.332031 87.691406 C 279.359375 87.546875 279.289062 87.402344 279.144531 87.332031 C 278.964844 87.242188 278.769531 87.304688 278.679688 87.476562 " fill-opacity="1" fill-rule="nonzero"/></g></g></g><g clip-path="url(#f28ca341b8)"><g clip-path="url(#6cd95a017b)"><g clip-path="url(#a94ebfdd5d)"><path fill="#ffffff" d="M 291.683594 76.582031 C 291.488281 76.285156 291.152344 76.28125 290.921875 76.429688 C 290.691406 76.582031 290.554688 76.886719 290.75 77.1875 C 290.78125 77.238281 290.820312 77.28125 290.859375 77.316406 C 291.054688 77.484375 291.320312 77.464844 291.511719 77.339844 C 291.742188 77.191406 291.875 76.882812 291.683594 76.582031 " fill-opacity="1" fill-rule="nonzero"/></g></g></g><g clip-path="url(#5836cbd01f)"><g clip-path="url(#e34bf2184b)"><g clip-path="url(#9384854da4)"><path fill="#ffffff" d="M 292.234375 73.394531 C 292.164062 73.28125 292.046875 73.21875 291.917969 73.226562 C 291.78125 73.234375 291.648438 73.316406 291.585938 73.441406 C 291.527344 73.554688 291.535156 73.6875 291.609375 73.800781 C 291.628906 73.832031 291.65625 73.859375 291.683594 73.882812 C 291.75 73.941406 291.835938 73.972656 291.925781 73.964844 C 292.066406 73.960938 292.195312 73.875 292.257812 73.753906 C 292.316406 73.636719 292.308594 73.507812 292.234375 73.394531 " fill-opacity="1" fill-rule="nonzero"/></g></g></g><g clip-path="url(#1bb9bdaf6b)"><g clip-path="url(#f7d2ca5a25)"><g clip-path="url(#8208023c89)"><path fill="#ffffff" d="M 296.398438 74.1875 C 296.160156 73.816406 295.738281 73.8125 295.449219 74 C 295.160156 74.1875 294.996094 74.570312 295.234375 74.941406 C 295.273438 75.003906 295.320312 75.054688 295.371094 75.097656 C 295.496094 75.207031 295.652344 75.261719 295.816406 75.25 C 296.074219 75.238281 296.324219 75.078125 296.441406 74.847656 C 296.550781 74.636719 296.535156 74.398438 296.398438 74.1875 " fill-opacity="1" fill-rule="nonzero"/></g></g></g><g clip-path="url(#e9b2f42f86)"><g clip-path="url(#ca67f497dc)"><g clip-path="url(#1c4e361e5a)"><path fill="#ffffff" d="M 295.664062 80.546875 C 295.375 80.101562 294.871094 80.097656 294.527344 80.320312 C 294.179688 80.546875 293.980469 81.003906 294.269531 81.449219 C 294.316406 81.523438 294.371094 81.589844 294.433594 81.640625 C 294.582031 81.769531 294.761719 81.832031 294.964844 81.820312 C 295.273438 81.804688 295.574219 81.609375 295.714844 81.335938 C 295.84375 81.082031 295.828125 80.800781 295.664062 80.546875 " fill-opacity="1" fill-rule="nonzero"/></g></g></g><g clip-path="url(#9fef97dcbe)"><g clip-path="url(#943d55c69d)"><g clip-path="url(#b03ed06028)"><g clip-path="url(#852dd3419c)"><path fill="#ffffff" d="M 289.53125 81.679688 C 289.3125 81.34375 288.984375 81.167969 288.605469 81.1875 C 288.195312 81.207031 287.789062 81.464844 287.601562 81.832031 C 287.429688 82.171875 287.457031 82.542969 287.675781 82.878906 C 287.738281 82.980469 287.8125 83.066406 287.894531 83.136719 C 288.089844 83.304688 288.332031 83.386719 288.597656 83.375 C 289.011719 83.351562 289.414062 83.09375 289.601562 82.726562 C 289.773438 82.390625 289.75 82.015625 289.53125 81.679688 " fill-opacity="1" fill-rule="nonzero"/></g></g></g></g><g clip-path="url(#5e965deb2f)"><g clip-path="url(#81c0631efc)"><g clip-path="url(#5a70fe5f94)"><path fill="#ffffff" d="M 296.746094 78.539062 C 296.785156 78.601562 296.828125 78.648438 296.875 78.691406 C 297.101562 78.882812 297.40625 78.863281 297.628906 78.71875 C 297.902344 78.542969 298.058594 78.183594 297.832031 77.839844 C 297.609375 77.492188 297.214844 77.484375 296.945312 77.660156 C 296.675781 77.835938 296.519531 78.195312 296.746094 78.539062 " fill-opacity="1" fill-rule="nonzero"/></g></g></g><g clip-path="url(#d6980d5a01)"><g clip-path="url(#dd3230861b)"><g clip-path="url(#aff73aeef5)"><path fill="#ffffff" d="M 299.449219 80.929688 C 299.273438 80.65625 298.964844 80.652344 298.75 80.789062 C 298.539062 80.929688 298.417969 81.210938 298.59375 81.484375 C 298.625 81.53125 298.660156 81.570312 298.695312 81.605469 C 298.875 81.757812 299.117188 81.742188 299.292969 81.625 C 299.503906 81.488281 299.628906 81.207031 299.449219 80.929688 " fill-opacity="1" fill-rule="nonzero"/></g></g></g><g clip-path="url(#64d48f33c9)"><g clip-path="url(#9ed53705a4)"><g clip-path="url(#e5e8bf5adc)"><path fill="#ffffff" d="M 301 78.5625 C 301.136719 78.554688 301.265625 78.46875 301.328125 78.347656 C 301.386719 78.230469 301.378906 78.101562 301.308594 77.988281 C 301.234375 77.875 301.117188 77.8125 300.988281 77.820312 C 300.851562 77.828125 300.722656 77.910156 300.65625 78.035156 C 300.597656 78.148438 300.605469 78.28125 300.679688 78.394531 C 300.703125 78.425781 300.726562 78.453125 300.753906 78.476562 C 300.820312 78.535156 300.90625 78.566406 301 78.5625 " fill-opacity="1" fill-rule="nonzero"/></g></g></g><g clip-path="url(#3c6cf11495)"><g clip-path="url(#664353b384)"><g clip-path="url(#ad3d10a4e8)"><path fill="#ffffff" d="M 302.167969 73.507812 C 301.835938 72.992188 301.25 72.984375 300.847656 73.246094 C 300.441406 73.507812 300.210938 74.042969 300.542969 74.558594 C 300.601562 74.648438 300.664062 74.722656 300.738281 74.785156 C 300.910156 74.929688 301.121094 75.003906 301.355469 74.992188 C 301.714844 74.972656 302.066406 74.746094 302.230469 74.425781 C 302.382812 74.128906 302.359375 73.804688 302.167969 73.507812 " fill-opacity="1" fill-rule="nonzero"/></g></g></g><g clip-path="url(#4f0654ce14)"><g clip-path="url(#6aa412740f)"><g clip-path="url(#5865fbe053)"><path fill="#ffffff" d="M 297.40625 72.230469 C 297.421875 72.257812 297.445312 72.285156 297.46875 72.304688 C 297.574219 72.394531 297.726562 72.40625 297.855469 72.324219 C 298.011719 72.222656 298.054688 72.03125 297.953125 71.875 C 297.855469 71.722656 297.660156 71.683594 297.503906 71.785156 C 297.347656 71.886719 297.304688 72.078125 297.40625 72.230469 " fill-opacity="1" fill-rule="nonzero"/></g></g></g><g clip-path="url(#e4384e18f5)"><g clip-path="url(#bb4e3ab92c)"><g clip-path="url(#6c287e41e6)"><path fill="#ffffff" d="M 305.03125 75.578125 L 304.933594 75.425781 C 304.871094 75.332031 304.769531 75.265625 304.65625 75.242188 C 304.546875 75.222656 304.4375 75.242188 304.347656 75.304688 C 304.160156 75.4375 304.109375 75.691406 304.230469 75.878906 L 304.332031 76.035156 C 304.351562 76.066406 304.375 76.09375 304.40625 76.121094 C 304.460938 76.167969 304.53125 76.203125 304.609375 76.21875 C 304.71875 76.238281 304.828125 76.214844 304.914062 76.15625 C 305.101562 76.019531 305.15625 75.769531 305.03125 75.578125 " fill-opacity="1" fill-rule="nonzero"/></g></g></g><g clip-path="url(#193f50f33a)"><g clip-path="url(#e8f859750d)"><g clip-path="url(#d327bcddfe)"><path fill="#ffffff" d="M 309.453125 75.335938 C 309.117188 74.820312 308.53125 74.8125 308.128906 75.074219 C 307.726562 75.335938 307.492188 75.871094 307.828125 76.386719 C 307.882812 76.476562 307.949219 76.550781 308.019531 76.609375 C 308.355469 76.898438 308.816406 76.867188 309.148438 76.652344 C 309.554688 76.390625 309.785156 75.855469 309.453125 75.335938 " fill-opacity="1" fill-rule="nonzero"/></g></g></g><g clip-path="url(#2b92099f83)"><g clip-path="url(#be729e64dd)"><g clip-path="url(#3154add8d1)"><path fill="#ffffff" d="M 304.726562 79.199219 C 304.46875 78.796875 304.015625 78.789062 303.699219 78.992188 C 303.386719 79.195312 303.207031 79.609375 303.46875 80.011719 C 303.511719 80.082031 303.5625 80.140625 303.617188 80.1875 C 303.878906 80.410156 304.234375 80.386719 304.492188 80.21875 C 304.808594 80.015625 304.988281 79.601562 304.726562 79.199219 " fill-opacity="1" fill-rule="nonzero"/></g></g></g><g clip-path="url(#c06cf64293)"><g clip-path="url(#606a6b1565)"><g clip-path="url(#d31fd80a38)"><path fill="#ffffff" d="M 307.628906 71.0625 C 307.675781 71.132812 307.726562 71.191406 307.777344 71.238281 C 308.042969 71.460938 308.398438 71.4375 308.65625 71.269531 C 308.96875 71.066406 309.152344 70.652344 308.890625 70.25 C 308.628906 69.847656 308.175781 69.839844 307.863281 70.042969 C 307.550781 70.246094 307.371094 70.660156 307.628906 71.0625 " fill-opacity="1" fill-rule="nonzero"/></g></g></g><g clip-path="url(#a51cfbff1c)"><g clip-path="url(#b00b004409)"><g clip-path="url(#c1527a7b88)"><path fill="#ffffff" d="M 303.757812 69.074219 C 303.554688 68.761719 303.203125 68.757812 302.960938 68.914062 C 302.71875 69.070312 302.578125 69.394531 302.78125 69.707031 C 302.816406 69.761719 302.855469 69.804688 302.898438 69.839844 C 303.101562 70.015625 303.375 69.996094 303.578125 69.867188 C 303.820312 69.710938 303.960938 69.386719 303.757812 69.074219 " fill-opacity="1" fill-rule="nonzero"/></g></g></g><g clip-path="url(#b36a24d010)"><g clip-path="url(#6369eea807)"><g clip-path="url(#88e3b79a6f)"><path fill="#ffffff" d="M 312.789062 71.097656 C 312.808594 71.128906 312.828125 71.15625 312.855469 71.175781 C 312.917969 71.230469 312.996094 71.257812 313.082031 71.253906 C 313.210938 71.25 313.332031 71.171875 313.390625 71.058594 C 313.445312 70.949219 313.4375 70.828125 313.367188 70.722656 C 313.300781 70.617188 313.191406 70.5625 313.074219 70.566406 C 312.945312 70.574219 312.824219 70.652344 312.765625 70.765625 C 312.710938 70.871094 312.71875 70.992188 312.789062 71.097656 " fill-opacity="1" fill-rule="nonzero"/></g></g></g><g clip-path="url(#fd8cf69255)"><g clip-path="url(#692ee9661e)"><g clip-path="url(#c4d1e16e1c)"><path fill="#ffffff" d="M 299.820312 85.257812 C 299.753906 85.152344 299.644531 85.097656 299.523438 85.101562 C 299.398438 85.109375 299.277344 85.1875 299.21875 85.300781 C 299.164062 85.40625 299.171875 85.527344 299.238281 85.632812 C 299.257812 85.664062 299.28125 85.691406 299.308594 85.710938 C 299.371094 85.765625 299.449219 85.792969 299.535156 85.789062 C 299.664062 85.785156 299.78125 85.707031 299.839844 85.59375 C 299.894531 85.484375 299.886719 85.363281 299.820312 85.257812 " fill-opacity="1" fill-rule="nonzero"/></g></g></g><g clip-path="url(#6d90297481)"><g clip-path="url(#25ae5e8d7a)"><g clip-path="url(#d6b7c23c5c)"><path fill="#ffffff" d="M 292.714844 82.953125 C 292.609375 82.789062 292.40625 82.75 292.238281 82.855469 C 292.074219 82.964844 292.027344 83.167969 292.132812 83.328125 C 292.152344 83.359375 292.175781 83.382812 292.199219 83.40625 C 292.3125 83.5 292.472656 83.511719 292.609375 83.425781 C 292.773438 83.320312 292.820312 83.117188 292.714844 82.953125 " fill-opacity="1" fill-rule="nonzero"/></g></g></g><g clip-path="url(#e11f98600e)"><g clip-path="url(#574af20313)"><g clip-path="url(#8bd5c37c1e)"><g clip-path="url(#2731864358)"><path fill="#ffffff" d="M 308.46875 78.089844 C 308.523438 77.980469 308.515625 77.859375 308.449219 77.753906 C 308.378906 77.648438 308.273438 77.59375 308.152344 77.597656 C 308.023438 77.605469 307.90625 77.683594 307.847656 77.796875 C 307.792969 77.90625 307.796875 78.027344 307.867188 78.132812 C 307.886719 78.160156 307.910156 78.1875 307.933594 78.210938 C 307.996094 78.265625 308.078125 78.292969 308.164062 78.285156 C 308.289062 78.28125 308.410156 78.203125 308.46875 78.089844 " fill-opacity="1" fill-rule="nonzero"/></g></g></g></g><g clip-path="url(#8cf93ef301)"><g clip-path="url(#9cc457b26b)"><g clip-path="url(#d13f63160d)"><path fill="#ffffff" d="M 296.941406 66.902344 C 296.835938 66.742188 296.628906 66.699219 296.464844 66.804688 C 296.300781 66.914062 296.253906 67.117188 296.359375 67.28125 C 296.378906 67.308594 296.398438 67.335938 296.425781 67.355469 C 296.535156 67.453125 296.699219 67.464844 296.832031 67.375 C 297 67.269531 297.046875 67.066406 296.941406 66.902344 " fill-opacity="1" fill-rule="nonzero"/></g></g></g></svg>